<?xml version="1.0" encoding="UTF-8" standalone="no"?>
<!-- Created with Inkscape (http://www.inkscape.org/) -->

<svg
   xmlns:dc="http://purl.org/dc/elements/1.1/"
   xmlns:cc="http://creativecommons.org/ns#"
   xmlns:rdf="http://www.w3.org/1999/02/22-rdf-syntax-ns#"
   xmlns:svg="http://www.w3.org/2000/svg"
   xmlns="http://www.w3.org/2000/svg"
   xmlns:sodipodi="http://sodipodi.sourceforge.net/DTD/sodipodi-0.dtd"
   xmlns:inkscape="http://www.inkscape.org/namespaces/inkscape"
   width="935"
   height="174"
   id="svg2"
   version="1.1"
   inkscape:version="0.48.3.1 r9886"
   sodipodi:docname="logo.svg">
  <defs
     id="defs4" />
  <sodipodi:namedview
     id="base"
     pagecolor="#ffffff"
     bordercolor="#666666"
     borderopacity="1.0"
     inkscape:pageopacity="0.0"
     inkscape:pageshadow="2"
     inkscape:zoom="0.35"
     inkscape:cx="375"
     inkscape:cy="520"
     inkscape:document-units="px"
     inkscape:current-layer="layer1"
     showgrid="false"
     inkscape:window-width="1366"
     inkscape:window-height="744"
     inkscape:window-x="0"
     inkscape:window-y="24"
     inkscape:window-maximized="1"
     width="935px" />
  <metadata
     id="metadata7">
    <rdf:RDF>
      <cc:Work
         rdf:about="">
        <dc:format>image/svg+xml</dc:format>
        <dc:type
           rdf:resource="http://purl.org/dc/dcmitype/StillImage" />
        <dc:title></dc:title>
      </cc:Work>
    </rdf:RDF>
  </metadata>
  <g
     inkscape:label="Livello 1"
     inkscape:groupmode="layer"
     id="layer1"
     transform="translate(0,-878.36218)">
    <path
       style="fill:#000000"
       d="m 21.213287,1053.3767 c -1.250845,-0.3991 -3.81345,-2.5184 -5.036182,-4.1649 -0.244855,-0.3297 -0.800304,-1.0728 -1.234311,-1.6513 -0.433987,-0.5784 -1.004457,-1.5672 -1.267696,-2.1972 -0.263228,-0.63 -0.919282,-1.69 -1.45789,-2.3556 -0.538608,-0.6655 -1.090653,-1.3976 -1.226769,-1.6269 -0.369015,-0.6215 -0.442141,-1.8092 -0.111447,-1.8092 0.354585,0 0.0607,-2.3157 -0.519315,-4.0913 -0.5571136,-1.7057 -0.5250366,-2.2087 0.189786,-2.9759 0.974566,-1.0461 1.922135,-0.8267 3.64356,0.8436 1.780828,1.728 3.254148,2.301 4.874192,1.8958 1.057053,-0.2644 1.100801,-0.3301 1.467179,-2.2018 0.611336,-3.1231 0.819617,-10.0132 0.42899,-14.1928 -0.193465,-2.07 -0.406141,-8.0376 -0.472686,-13.2613 -0.06652,-5.2237 -0.149615,-10.90001 -0.184635,-12.61404 -0.03505,-1.71404 -0.0329,-13.10078 0.0051,-25.30391 0.06479,-21.00306 -0.04568,-26.04272 -0.570838,-26.04272 -0.124507,0 -0.231877,-1.63611 -0.238591,-3.63581 -0.01747,-5.21376 -0.320751,-11.40764 -0.642963,-13.13346 -0.835753,-4.47638 -1.290903,-6.56126 -1.490325,-6.82642 -0.122729,-0.16324 -0.319596,-0.83105 -0.437492,-1.48401 -0.392753,-2.1758 -0.955079,-3.04747 -2.883805,-4.47024 -2.20247,-1.62472 -3.000689,-1.97536 -3.952835,-1.73638 -0.7820726,0.19627 -2.3848566,2.29835 -2.1017216,2.75643 0.326392,0.52809 -0.723192,2.61475 -1.491224,2.96468 -1.57878,0.71932 -3.342286,0.0252 -2.50356,-0.9855 0.197297,-0.2377 0.2796,-0.56021 0.182929,-0.71665 -0.09677,-0.15644 -0.03137,-0.33261 0.145282,-0.39149 0.176593,-0.0589 0.362117,-0.79227 0.412251,-1.62981 0.05017,-0.83755 0.156094,-1.63557 0.235403,-1.77333 0.0793,-0.13781 0.232899,-0.78478 0.341321,-1.43774 0.355475,-2.14107 0.878949,-4.00683 1.124131,-4.00683 0.132396,0 0.240696,-0.33388 0.240696,-0.74199 0,-0.40811 0.133561,-0.742 0.296818,-0.742 0.163227,0 0.296798,-0.20035 0.296798,-0.44521 0,-0.24486 0.14146,-0.4452 0.314303,-0.4452 0.172893,0 0.247328,-0.10835 0.165464,-0.24085 -0.220697,-0.35709 3.0643936,-3.39722 5.0574986,-4.68041 2.063401,-1.32842 4.224014,-2.20196 5.446369,-2.20196 0.866052,0 3.936945,0.90699 5.26623,1.55539 0.367288,0.17914 0.667805,0.49591 0.667805,0.70394 0,0.20802 0.249004,0.55274 0.553384,0.76605 0.599216,0.41993 1.821029,2.51923 1.821029,3.12884 0,0.20649 0.200332,0.3754 0.445197,0.3754 0.244855,0 0.445197,-0.11835 0.445197,-0.26305 0,-0.40666 2.730256,-3.17759 3.547942,-3.60084 3.218474,-1.6659 11.045745,-1.32379 13.963351,0.61035 0.408061,0.27053 1.241893,0.81273 1.852943,1.2049 0.709662,0.45546 1.111694,0.94112 1.113063,1.34451 0,0.34729 0.202304,0.79771 0.44721,1.00093 0.244814,0.20321 0.445146,0.55332 0.445146,0.77801 0,0.22464 0.495995,1.37695 1.102139,2.56065 1.037341,2.02585 1.43222,4.02037 0.901123,4.55154 -0.115136,0.11513 -0.866103,0.27242 -1.668879,0.34957 -1.276812,0.1227 -1.483683,0.0642 -1.652683,-0.46845 -0.345583,-1.08905 -4.896405,-2.8552 -4.920062,-1.90949 -0.0092,0.36393 4.235436,58.68924 4.2739,58.72844 0.149983,0.15298 54.586543,0.6535 54.972313,0.50549 0.46072,-0.17677 0.4843,-1.21389 0.3097,-13.63054 -0.1055,-7.50729 -0.0741,-13.74175 0.0714,-14.12471 0.14311,-0.37705 0.30979,-4.59204 0.37045,-9.36666 0.0603,-4.77462 0.22855,-8.68127 0.37312,-8.68144 0.40642,0 0.0448,-8.99973 -0.36736,-9.13706 -0.1874,-0.0624 -0.34076,-0.30279 -0.34076,-0.53404 0,-0.23126 -0.12452,-0.42048 -0.27682,-0.42048 -0.15223,0 -0.35109,-0.23405 -0.44187,-0.52014 -0.29997,-0.94525 -1.40366,-1.36424 -3.495549,-1.32696 -2.15317,0.0384 -3.29343,0.4767 -4.41976,1.69917 -0.99543,1.08034 -1.84914,1.37459 -2.91247,1.00389 -1.08622,-0.37863 -1.2708,-1.22336 -0.57628,-2.63676 0.28077,-0.57135 0.65924,-1.90695 0.84114,-2.96801 0.18191,-1.06106 0.59092,-2.49539 0.90895,-3.18738 0.31805,-0.69199 0.57826,-1.36116 0.57826,-1.48703 0,-0.12588 0.33388,-0.58898 0.74195,-1.0291 0.40813,-0.44011 0.74201,-0.87779 0.74201,-0.97261 0,-0.0948 0.59737,-0.753 1.32743,-1.46255 0.94793,-0.92128 2.09541,-1.59748 4.01341,-2.36516 2.373949,-0.95018 2.877879,-1.05252 4.337809,-0.88091 3.16685,0.37219 5.72703,1.746 7.24609,3.88827 1.63738,2.30929 2.10197,2.40246 2.97125,0.59584 0.83117,-1.72731 2.65252,-2.97468 5.64219,-3.86403 3.86549,-1.1499 4.60897,-1.18892 7.58479,-0.39822 3.44013,0.9141 6.02751,2.10607 6.83605,3.14925 0.18974,0.24485 0.61948,0.75877 0.95489,1.14203 0.33544,0.38325 0.82731,1.35157 1.09312,2.15181 0.55468,1.66985 1.32595,1.97954 1.32595,0.53235 0,-1.94136 4.59969,-6.79421 6.43971,-6.79421 0.30333,0 0.81491,-0.17939 1.13691,-0.39866 0.3762,-0.25617 1.38111,-0.38552 2.81145,-0.36187 1.93615,0.032 2.54185,0.18811 4.65166,1.19881 1.88218,0.90167 2.58049,1.4132 3.11641,2.28309 0.37991,0.61661 0.7909,1.12467 0.91335,1.12906 0.12244,0.004 0.22261,0.20379 0.22261,0.44313 0,0.726 0.97573,2.53287 1.36779,2.53287 0.20212,0 0.74501,-0.31056 1.20643,-0.69019 0.77858,-0.64043 3.1048,-2.1792 4.84578,-3.20539 0.95628,-0.56356 3.38748,-1.29075 6.38128,-1.90855 1.3059,-0.26949 2.77505,-0.60135 3.26476,-0.7374 0.4898,-0.13609 1.95895,-0.38797 3.26486,-0.55979 1.30591,-0.17185 2.84183,-0.37968 3.41321,-0.46189 3.45528,-0.4972 7.34901,-0.76808 12.769,-0.88833 3.38361,-0.075 8.40588,-0.23417 11.16063,-0.35357 8.55621,-0.37095 10.5489,-0.25599 13.7641,0.79412 0.89785,0.29321 2.30023,0.6898 3.11642,0.88123 1.97857,0.46411 4.35081,2.00127 5.89387,3.81901 0.18649,0.21959 0.63231,0.71933 0.9908,1.11054 1.50701,1.64439 3.35315,4.75059 3.49565,5.88147 0.11806,0.93667 1.07555,3.14517 1.36365,3.14517 0.13897,0 0.41467,-0.56764 0.61258,-1.2614 0.19802,-0.69378 0.52501,-1.46175 0.72671,-1.70661 0.2017,-0.24486 0.69443,-1.17979 1.09483,-2.0776 1.22759,-2.75269 1.38817,-3.0817 2.02736,-4.15523 1.04809,-1.76017 2.02916,-2.58407 3.70457,-3.11104 1.4022,-0.44105 1.94312,-0.4617 4.2054,-0.16069 1.42783,0.19005 2.79664,0.50421 3.04164,0.69817 0.24499,0.19396 0.92719,0.59597 1.51587,0.89331 1.44943,0.73205 3.82686,3.23155 3.82686,4.02332 0,0.64313 0.88253,0.31428 1.3097,-0.48806 0.565,-1.06112 4.2842,-4.6363 5.39598,-5.18702 0.47448,-0.23504 1.59727,-0.58078 2.49513,-0.76833 4.2973,-0.89771 4.41072,-0.90346 6.32405,-0.32158 2.07211,0.63017 3.20643,0.70872 3.66164,0.25358 0.2153,-0.21538 0.82385,-0.11765 1.9945,0.32034 1.46147,0.54683 1.82702,0.85298 2.76033,2.31206 0.59177,0.92495 1.24515,2.41691 1.4522,3.31544 0.20695,0.89853 0.59461,2.30153 0.86129,3.11772 0.26675,0.81619 0.60802,1.88468 0.75844,2.37441 0.15033,0.48972 0.36538,2.73942 0.47784,4.99936 0.22433,4.50817 0.1839,4.63336 -1.50193,4.64215 -0.58161,0.002 -1.32166,-0.37419 -2.22596,-1.13477 -1.79614,-1.51051 -2.4442,-1.8287 -3.72437,-1.8287 -1.43404,0 -3.71483,1.20266 -3.71483,1.95882 0,0.12124 -0.2337,0.47886 -0.51939,0.79474 -0.47741,0.5279 -0.52346,1.69249 -0.56983,14.41822 -0.0275,7.61418 -0.0343,17.11618 -0.0146,21.11557 0.0413,8.25794 0,14.1671 -0.12856,16.76928 -0.0465,0.97944 0.0198,3.18318 0.14878,4.89722 0.12865,1.71403 0.29438,4.2358 0.3683,5.6039 0.0741,1.3681 0.2024,2.59764 0.2856,2.73226 0.0835,0.13464 0.21883,5.42618 0.30134,11.75898 0.36073,27.69358 0.52441,32.63878 1.12176,33.90548 0.18803,0.3987 1.13279,1.186 2.09948,1.7497 1.45564,0.8487 2.29695,1.0965 4.89715,1.4424 1.72679,0.2297 3.74063,0.3623 4.47525,0.2947 0.73453,-0.068 4.11909,0.061 7.52112,0.2866 3.74802,0.2482 8.19255,0.343 11.27851,0.2404 2.80104,-0.093 8.63219,-0.2195 12.95805,-0.2809 4.32596,-0.061 8.45916,-0.2465 9.1849,-0.4112 0.72584,-0.1647 1.43328,-0.2293 1.57216,-0.1435 0.13889,0.086 0.81387,-0.1036 1.49995,-0.421 0.68609,-0.3173 1.60709,-0.6636 2.04663,-0.7695 0.9241,-0.2225 4.36734,-3.4778 5.0666,-4.7901 1.50529,-2.8246 2.50106,-5.676 2.64211,-7.5653 0.0542,-0.7329 0.29601,-1.5676 0.53635,-1.855 0.56053,-0.6703 1.85973,-0.6719 2.4602,-0 0.66121,0.7365 2.00007,4.5039 2.00007,5.6281 0,0.3848 0.24964,0.6834 0.66777,0.7989 0.36734,0.1013 1.20203,0.9208 1.85507,1.8211 1.44712,1.9952 3.21822,3.3968 4.02556,3.1856 0.32001,-0.084 0.92418,-0.5589 1.34247,-1.0561 0.70975,-0.8435 0.75751,-1.0943 0.71388,-3.7487 -0.0259,-1.5646 0.10296,-5.7831 0.2862,-9.3743 0.18321,-3.5913 0.38482,-9.8322 0.44816,-13.86874 0.0637,-4.03646 0.20497,-7.48443 0.31485,-7.66215 0.23192,-0.37528 0.203,-12.16915 -0.0327,-13.49171 -0.0875,-0.4897 -0.20591,-10.12602 -0.26339,-21.41403 -0.0946,-18.57754 -0.23397,-26.52901 -0.61071,-34.82981 -0.11711,-2.5787 -0.20806,-3.46337 -0.62542,-6.08207 -0.0783,-0.48843 -0.3343,-0.99593 -0.56982,-1.12777 -0.2356,-0.13183 -0.42836,-0.50016 -0.42836,-0.81853 0,-0.31839 -0.14147,-0.57886 -0.31426,-0.57886 -0.17296,0 -0.23217,-0.13297 -0.13175,-0.29549 0.18019,-0.29156 -0.91575,-1.47698 -2.08269,-2.25276 -0.32974,-0.21919 -1.36941,-0.48902 -2.31046,-0.59963 -1.47156,-0.17294 -1.80303,-0.11732 -2.36855,0.39751 -0.92204,0.83941 -1.8303,1.26637 -2.69383,1.26637 -0.97133,0 -1.12073,-0.74081 -0.43224,-2.14277 0.29818,-0.60716 0.74039,-1.87598 0.98262,-2.81961 0.4584,-1.78554 2.78341,-6.61288 3.18492,-6.61288 0.12666,0 0.23019,-0.20034 0.23019,-0.4452 0,-0.24486 0.11736,-0.44521 0.26082,-0.44521 0.14344,0 0.42973,-0.4077 0.63608,-0.90603 0.22554,-0.5444 0.82583,-1.13592 1.50409,-1.48193 0.62086,-0.31672 1.23621,-0.75097 1.36734,-0.96496 0.39748,-0.64846 2.21384,-1.32442 4.09698,-1.52473 1.90361,-0.20248 5.38395,0.57606 6.34746,1.41996 0.2634,0.23072 0.77944,0.51105 1.14671,0.62298 0.36735,0.11193 0.66784,0.32809 0.66784,0.48031 0,0.61584 0.98684,0.20512 2.53299,-1.0543 2.23208,-1.81806 2.96875,-2.15463 6.14825,-2.80879 2.649,-0.54505 2.83331,-0.54684 4.97427,-0.0482 2.81962,0.65674 5.54502,2.44767 6.99008,4.59346 0.56148,0.83376 1.0209,1.675 1.0209,1.86941 0,0.1944 0.40953,0.67396 0.91008,1.06569 0.96885,0.75823 1.20591,1.42016 1.93976,5.41519 1.20325,6.55085 1.28087,8.12041 0.43946,8.8819 -0.86859,0.78608 -1.89664,0.49547 -2.26366,-0.63988 -0.94363,-2.91935 -5.46113,-4.49793 -7.52557,-2.62966 -0.50177,0.45408 -1.21693,3.41152 -1.21693,5.03251 0,0.4301 -0.14191,0.78199 -0.31547,0.78199 -0.17349,0 -0.28379,0.23372 -0.24516,0.51939 0.0387,0.28568 -0.03,2.32248 -0.153,4.52623 -0.35883,6.43808 -0.61861,31.03914 -0.48576,46.00419 0.0292,3.34643 0.0654,7.95428 0.0791,10.23964 0.0138,2.28538 0.0379,5.62439 0.0533,7.42004 0.0155,1.79564 -0.0749,4.19973 -0.19955,5.34242 -0.27898,2.54929 -0.44239,8.26812 -0.64357,22.51631 -0.17124,12.1284 -0.24559,11.6037 1.80345,12.732 1.34979,0.7433 3.24145,1.0423 8.81325,1.3933 2.25858,0.1422 4.40666,0.3339 4.7735,0.426 1.69159,0.4246 21.31274,0.7214 27.32975,0.4135 2.28535,-0.117 6.11306,-0.1066 8.50596,0.023 3.01893,0.1635 4.97238,0.1279 6.3812,-0.1165 2.76662,-0.4799 4.58523,-1.0642 4.76437,-1.5309 0.0818,-0.2139 0.32098,-0.389 0.53095,-0.389 0.20987,0 0.45856,-0.2003 0.55251,-0.4452 0.094,-0.2448 0.34198,-0.4468 0.55117,-0.4489 0.75784,-0.01 2.3244,-2.8502 3.47156,-6.3001 0.36571,-1.1001 0.78814,-2.0763 0.93872,-2.1693 0.1505,-0.093 0.27365,-0.4284 0.27365,-0.7452 0,-0.3169 0.13355,-0.5761 0.29678,-0.5761 0.16324,0 0.30127,-0.3673 0.30669,-0.8162 0.008,-0.4489 0.27605,-1.1359 0.60141,-1.5265 l 0.59151,-0.7104 1.05559,0.5619 c 1.31271,0.6989 1.27647,0.6373 1.78607,3.0315 1.04181,4.8953 1.43352,11.7149 0.79562,13.8545 -0.19465,0.653 -0.58858,2.189 -0.87539,3.4133 -0.28681,1.2243 -0.6952,2.4894 -0.9075,2.8114 -0.21229,0.322 -0.38602,0.7766 -0.38602,1.0102 0,0.3871 -1.00257,2.5566 -1.87401,4.0552 -0.19362,0.3329 -0.99691,1.3507 -1.78513,2.2617 -1.586,1.8332 -4.46269,3.4929 -7.34796,4.2396 -1.45195,0.3757 -7.95214,1.1496 -9.17536,1.0924 -8.02924,-0.3757 -20.01302,-0.4524 -28.34447,-0.1815 -9.66627,0.3143 -19.29992,0.1928 -20.53278,-0.2591 -0.62353,-0.2285 -1.70286,-0.587 -2.3985,-0.7965 -1.63591,-0.4928 -3.96169,-2.8309 -5.12708,-5.1542 -0.48386,-0.9647 -0.88279,-1.8996 -0.88641,-2.0776 0,-0.178 -0.24215,-0.6297 -0.53007,-1.0039 l -0.52353,-0.6803 -1.00551,2.4592 c -1.00301,2.4532 -3.19361,5.2666 -4.61233,5.9236 -0.32647,0.1512 -0.92745,0.4675 -1.33559,0.703 -0.94709,0.5464 -2.38302,0.5527 -3.62576,0.016 -0.53601,-0.2316 -1.6076,-0.6991 -2.3812,-1.0388 -0.7736,-0.3397 -1.51338,-0.6177 -1.64391,-0.6177 -0.5207,0 -2.61338,-1.2362 -4.12787,-2.4385 -1.68711,-1.3394 -2.93115,-3.0327 -3.908,-5.3198 -0.32355,-0.7574 -0.71258,-1.454 -0.86464,-1.548 -0.15205,-0.094 -0.45194,0.5608 -0.66646,1.4551 -0.21453,0.8942 -0.56862,1.7741 -0.78693,1.9553 -0.21833,0.1811 -0.39687,0.5544 -0.39687,0.8294 0,1.2939 -4.82479,6.0355 -7.29178,7.1661 -2.52611,1.1576 -5.12511,1.401 -15.41353,1.4435 -4.89723,0.02 -11.77563,0.1078 -15.2853,0.1946 -3.50967,0.087 -6.78193,0.1664 -7.27165,0.1769 -4.56147,0.098 -20.86278,-0.1644 -21.34397,-0.3431 -0.34059,-0.1264 -1.42062,-0.4713 -2.40013,-0.7664 -2.46563,-0.743 -4.95568,-2.3143 -6.00515,-3.7897 -0.86498,-1.2159 -2.14963,-3.9437 -2.67257,-5.6749 -0.30832,-1.0206 -0.96824,-1.3727 -0.96824,-0.5165 0,0.3246 -0.25463,1.1037 -0.56587,1.7313 -0.31117,0.6276 -0.77972,1.6309 -1.04114,2.2297 -0.26143,0.5987 -0.84157,1.4084 -1.28921,1.7993 -0.44764,0.3909 -0.95491,0.9695 -1.12743,1.2858 -0.17246,0.3163 -1.03116,0.9424 -1.90818,1.3913 -1.89734,0.9711 -3.95215,1.0716 -6.61783,0.3237 -1.62001,-0.4546 -1.86654,-0.6433 -3.19869,-2.4486 -0.7939,-1.0759 -1.7822,-2.6239 -2.19619,-3.4401 -1.88073,-3.7081 -3.30134,-6.2071 -3.57644,-6.2914 -0.1648,-0.051 -0.87816,1.2443 -1.58515,2.8772 -0.707,1.6329 -1.40375,2.969 -1.54831,2.969 -0.14448,0 -0.49995,0.4624 -0.78986,1.0275 -0.82369,1.6055 -4.13682,4.8306 -5.37474,5.232 -0.59789,0.1939 -1.43429,0.5958 -1.85853,0.8932 -0.42432,0.2974 -1.96023,0.904 -3.41322,1.348 -2.5502,0.7791 -2.91462,0.81 -10.50706,0.8907 -4.32587,0.046 -12.27275,0.1874 -17.65963,0.3144 -12.50224,0.2947 -14.74559,0.2922 -18.55016,-0.021 -7.32189,-0.6029 -8.6544,-0.8684 -10.31398,-2.0549 -0.73219,-0.5235 -1.61602,-1.147 -1.96402,-1.3857 -1.03286,-0.7082 -4.14292,-3.2256 -4.85327,-3.9284 -0.75329,-0.7452 -0.68109,-0.7906 -1.41166,0.8886 -0.30514,0.7012 -0.79185,1.5483 -1.08158,1.8824 -0.28973,0.3341 -0.56715,0.6952 -0.61655,0.8025 -0.22881,0.4973 -2.38636,1.8501 -4.11564,2.5804 -4.94139,2.087 -8.71566,0.817 -11.41628,-3.8412 -0.61613,-1.0628 -0.8249,-1.7843 -0.77291,-2.6712 0.0843,-1.4364 -0.2468,-1.1938 -0.97419,0.714 -0.89949,2.3591 -2.71043,4.8007 -4.09472,5.5208 -1.21471,0.6318 -4.78418,1.3056 -6.91696,1.3056 -2.24944,0 -4.46561,-0.4382 -6.28351,-1.2423 -1.44179,-0.6378 -4.99682,-4.0039 -6.60966,-6.2583 -0.55727,-0.779 -1.14852,-1.3712 -1.31391,-1.316 -0.16538,0.055 -0.77506,0.979 -1.35486,2.0531 -2.24852,4.1655 -5.02349,6.1014 -9.15161,6.3844 -3.25074,0.2228 -5.610259,-0.5856 -7.726509,-2.647 -0.8464,-0.8245 -1.53884,-1.5967 -1.53884,-1.716 0,-0.1193 -0.30058,-0.5529 -0.66785,-0.9638 -1.10463,-1.2355 -1.64374,-1.9325 -1.97848,-2.5579 -0.17476,-0.3267 -0.48566,-0.7713 -0.69081,-0.9881 -1.41589,-1.4963 -2.17727,-6.548 -1.16652,-7.74 0.62912,-0.742 1.90475,-0.6482 2.70028,0.1987 0.89045,0.9478 3.38697,2.0015 5.13096,2.1655 1.13665,0.1069 1.67947,-0.026 2.900269,-0.7082 1.50011,-0.8388 2.03793,-1.7628 2.21606,-3.8078 0.0284,-0.3264 0.15222,-0.8929 0.2751,-1.2587 0.1228,-0.3658 0.12573,-0.8231 0.008,-1.0161 -0.3054,-0.4942 -0.34069,-2.0215 -0.0697,-3.0313 0.12624,-0.471 0.10127,-1.0926 -0.0559,-1.3858 -0.19319,-0.361 -0.17726,-0.5676 0.0499,-0.6432 0.24739,-0.082 0.24163,-2.5742 -0.0224,-9.5958 -0.19612,-5.2164 -0.41726,-9.6699 -0.49144,-9.8966 -0.0741,-0.2267 -0.2128,-3.8329 -0.30806,-8.01365 -0.0951,-4.18076 -0.19818,-7.62948 -0.22899,-7.66379 -0.19171,-0.21391 -51.246658,-0.6529 -51.970248,-0.44687 -0.890199,0.25348 -0.890455,0.25416 -0.967475,2.7558 -0.0422,1.37627 -0.205052,2.7694 -0.361504,3.09588 -0.407703,0.8511 -0.772814,28.09193 -0.421642,31.46093 0.841312,8.0709 1.33465,9.016 5.11787,9.8048 2.38655,0.4976 4.89423,0.2655 6.58669,-0.6097 1.06979,-0.5532 2.88321,-0.383 3.14343,0.2949 0.0852,0.2227 -0.0731,0.7542 -0.35323,1.1811 -0.27967,0.4269 -0.55719,1.406 -0.61664,2.1758 -0.0594,0.7698 -0.23199,1.6667 -0.38362,1.9932 -0.54428,1.1724 -2.25599,4.6757 -2.7353,5.598 -0.72257,1.3904 -3.27304,3.9077 -4.74958,4.6877 -2.42672,1.2821 -4.130609,1.6946 -7.07864,1.714 -3.139707,0.02 -3.345955,-0.061 -6.208491,-2.4559 -1.410219,-1.1798 -2.544773,-2.6221 -4.412431,-5.6093 -0.280028,-0.4479 -0.655409,-0.8152 -0.834118,-0.8162 -0.401081,-0 -1.099983,0.7776 -1.641288,1.8316 -0.988822,1.9254 -4.52863,5.5779 -6.195752,6.393 -1.375761,0.6726 -5.068249,0.8002 -6.835874,0.2361 z m 116.518743,-14.9512 c 0.51742,-0.4695 2.64571,-0.8311 3.515,-0.5973 1.42355,0.3827 2.84708,-0.6381 4.19095,-3.0054 0.66671,-1.1746 0.68074,-2.724 0.32311,-35.91292 -0.20084,-18.6436 -0.21211,-29.50133 -0.0327,-31.46094 0.11961,-1.30562 0.1376,-5.32627 0.086,-19.14367 -0.0147,-3.75454 0,-12.16886 0.037,-18.69848 0.0765,-14.64982 0.008,-15.90552 -1.04165,-18.57712 -1.73753,-4.42866 -5.35613,-5.59735 -6.77994,-2.18969 -0.26262,0.62869 -0.69219,1.07639 -1.14069,1.18896 -1.04534,0.26237 -2.81198,-0.55819 -2.93159,-1.36169 -0.0543,-0.36239 -0.37578,-0.84226 -0.71508,-1.06635 -0.55055,-0.36361 -0.73039,-0.31939 -1.67179,0.41119 -0.94992,0.73708 -1.80957,2.22541 -1.63626,2.83285 0.037,0.12839 -0.10593,0.34001 -0.31674,0.47031 -0.25902,0.16007 -0.42029,1.21291 -0.49747,3.24686 -0.0628,1.65546 -0.21178,3.16791 -0.33112,3.36098 -0.11935,0.19303 -0.26031,1.7656 -0.31332,3.49453 -0.0533,1.72896 -0.23241,5.48085 -0.39876,8.33757 -0.16625,2.85671 -0.30255,9.60152 -0.30273,14.98847 -2.5e-4,5.38694 -0.0319,9.99478 -0.0697,10.23964 -0.0379,0.24485 0.0387,1.88925 0.17013,3.65422 0.1721,2.30848 0.14293,3.32512 -0.10412,3.6228 -0.18889,0.2276 -0.23854,0.58363 -0.11023,0.79119 0.1283,0.20757 0.26348,3.11834 0.3004,6.46843 0.037,3.35009 0.13922,10.21824 0.22725,15.26262 0.0881,5.04434 0.0843,9.29465 -0.008,9.44509 -0.24103,0.38998 -0.11953,8.34385 0.13036,8.53245 0.34636,0.2613 0.36692,0.8823 0.48162,14.5515 0.10444,12.4357 0.23613,15.1661 0.76604,15.8788 0.12133,0.1633 0.31356,0.9385 0.42706,1.7227 0.21823,1.5069 1.15962,2.6456 2.78358,3.3669 0.92892,0.4126 4.55356,0.5187 4.96497,0.1455 z m -18.94625,-5.8789 c 1.37655,-0.6532 2.6785,-2.4967 2.9252,-4.1419 0.52414,-3.495 -2.74175,-6.7639 -6.21012,-6.216 -4.34952,0.6871 -6.20521,5.9868 -3.21546,9.1829 0.43852,0.4688 1.198,1.0312 1.68772,1.2498 1.23741,0.5523 3.56742,0.5161 4.81266,-0.075 z m 105.68029,-0.341 c 3.56261,-0.589 8.50337,-2.6294 9.10255,-3.7591 0.91377,-1.723 2.0333,-3.1213 2.49892,-3.1213 0.28922,0 0.81619,0.3339 1.17098,0.742 0.35488,0.4081 0.84641,0.742 1.09233,0.742 0.24594,0 0.44721,0.1355 0.44721,0.3012 0,0.611 1.92607,1.4774 3.26477,1.4686 2.53833,-0.017 3.33197,-1.3619 3.84595,-6.5186 0.18708,-1.8773 0.45281,-3.9149 0.5904,-4.528 0.1376,-0.6131 0.16212,-1.1692 0.0543,-1.2357 -0.10764,-0.067 -0.0984,-1.5682 0.0206,-3.3372 0.11892,-1.769 0.14758,-4.3516 0.0637,-5.7392 -0.0834,-1.3875 -0.20412,-3.3909 -0.26719,-4.452 -0.13183,-2.2145 -0.49729,-21.9568 -0.54951,-29.68012 -0.0267,-3.94437 0.23318,-16.37483 0.46544,-22.2601 0.009,-0.24487 -0.0893,-1.91436 -0.22003,-3.71002 -0.13063,-1.79564 -0.22451,-3.59872 -0.2086,-4.00682 0.0163,-0.4081 0.1765,-3.88068 0.35669,-7.71682 0.31194,-6.64057 0.26039,-11.36109 -0.16677,-15.28528 -0.79192,-7.27515 -7.37705,-8.75809 -11.95659,-2.69257 -0.68668,0.90957 -1.36882,1.65377 -1.5158,1.65377 -0.14696,0 -0.34557,0.24685 -0.44126,0.54858 -0.23243,0.73214 -1.3436,1.2091 -2.13492,0.91637 -0.44437,-0.16443 -0.82738,-0.80878 -1.26848,-2.1345 -0.90181,-2.70974 -2.51148,-4.06843 -6.43386,-5.43043 -3.24376,-1.12636 -9.87106,-1.6701 -14.5148,-1.19085 -0.8162,0.0843 -4.05945,0.2848 -7.20728,0.44576 -3.14782,0.16092 -5.85894,0.37645 -6.02476,0.47891 -0.16582,0.10254 -1.73075,0.23339 -3.47758,0.29088 -11.83828,0.38949 -13.67994,0.50971 -15.82888,1.03343 -2.05413,0.50055 -4.97358,2.00651 -6.14103,3.16776 -0.21572,0.21456 -0.55804,0.39008 -0.76069,0.39008 -0.20265,0 -0.76069,0.40939 -1.24008,0.90976 -0.8402,0.877 -0.87187,1.01328 -0.87936,3.78421 -0.008,2.18557 0.12228,3.14563 0.53473,4.00588 0.41261,0.86068 0.4928,1.46224 0.33508,2.51393 -0.11402,0.76038 -0.24095,3.72382 -0.28207,6.58543 -0.0414,2.86159 -0.21023,6.60527 -0.37571,8.31931 -0.4163,4.31091 -0.45589,20.67744 -0.0508,20.92789 0.32837,0.20296 2.14413,0.51437 6.82091,1.16979 5.66119,0.79339 18.96854,0.0175 23.44731,-1.36733 2.60992,-0.80691 2.91712,-1.07638 3.1252,-2.74132 0.26065,-2.08653 -0.2622,-3.9811 -1.19671,-4.33644 -0.39214,-0.14909 -0.92204,-0.67543 -1.17761,-1.16972 -1.02477,-1.98175 1.1758,-2.82452 3.5527,-1.36058 0.70433,0.43379 1.64882,0.735 2.32192,0.7405 0.94913,0.007 1.44109,0.27997 3.00816,1.66425 2.54753,2.25056 4.05558,4.38542 5.30693,7.51273 0.62715,1.56749 0.19913,5.83102 -0.86231,8.5898 -1.2906,3.3541 -1.73341,4.34631 -2.03313,4.55573 -0.17348,0.12124 0.0448,0.9493 0.54711,2.0776 1.49058,3.34674 1.61673,3.85683 1.45486,5.88288 -0.16117,2.01813 -0.88554,4.45202 -1.325,4.45202 -0.14104,0 -0.25652,0.28789 -0.25652,0.63978 0,1.12559 -2.80526,4.47039 -4.89716,5.83904 -2.47044,1.61626 -5.05326,2.22677 -5.8882,1.39184 -0.65184,-0.65176 -0.62448,-1.68746 0.0679,-2.56739 0.89407,-1.1366 1.51416,-2.89083 1.46501,-4.14454 -0.025,-0.63728 -0.16495,-1.15873 -0.31107,-1.15873 -0.14611,0 -0.18311,-0.13356 -0.0826,-0.29681 0.10096,-0.16324 0.0422,-0.29679 -0.13089,-0.29679 -0.17288,0 -0.31424,-0.13998 -0.31424,-0.31105 0,-0.38585 -1.36633,-1.63479 -2.41839,-2.21067 -1.6329,-0.89384 -3.72583,-1.14619 -9.89895,-1.1935 -3.428,-0.0261 -9.09412,-0.0728 -12.59123,-0.10348 -3.49709,-0.0305 -6.47197,0.0579 -6.61077,0.19669 -0.13879,0.13878 -0.33224,0.57645 -0.42999,0.97256 -0.19181,0.77763 -0.18278,11.57573 0.0189,22.9031 0.0731,4.1232 0.0121,7.1161 -0.14774,7.2149 -0.35471,0.2192 -0.35728,7.6991 0,8.3742 0.14877,0.2835 0.50099,1.1832 0.78263,1.9994 0.53833,1.5599 1.11668,2.3924 1.98485,2.8571 0.28706,0.1535 2.29197,0.3448 4.45537,0.4249 2.16341,0.08 4.45375,0.2138 5.08966,0.2972 0.63582,0.083 2.57248,0.2235 4.30357,0.3113 1.73117,0.088 3.615,0.2872 4.18628,0.4428 0.57139,0.1557 2.84192,0.364 5.04569,0.4628 2.20377,0.099 4.03269,0.1992 4.06444,0.2228 0.2856,0.2131 26.20207,-0.1289 27.62776,-0.3646 z m -188.19104,-1.4398 c 1.376568,-0.6532 2.678518,-2.4967 2.925223,-4.142 0.553915,-3.6937 -3.065763,-7.0422 -6.592797,-6.0989 -2.608416,0.6977 -4.261497,2.7734 -4.261497,5.351 0,2.0556 1.475221,4.3382 3.26496,5.0519 1.16287,0.4637 3.51799,0.3819 4.664111,-0.162 z m 82.08178,-21.3698 c 2.17597,-1.1017 3.36966,-4.3903 2.45908,-6.7747 -1.62207,-4.24714 -7.29291,-4.87701 -9.70241,-1.0777 -0.96249,1.5176 -1.137,3.5259 -0.44936,5.1715 0.49496,1.1847 2.30091,2.81 3.38868,3.0497 0.44592,0.098 0.94423,0.2229 1.10756,0.277 0.49694,0.1647 2.32519,-0.2047 3.19645,-0.6458 z m -82.551972,-4.1293 c 1.640604,-0.8393 2.934358,-3.129 2.921002,-5.1696 -0.01369,-2.08124 -1.999931,-4.46746 -4.215226,-5.06398 -3.333621,-0.89765 -6.758261,1.79598 -6.758261,5.31558 0,4.1354 4.367702,6.8029 8.052485,4.918 z m 81.943242,-20.91313 c 4.03407,-1.12037 5.3337,-6.23334 2.34437,-9.22268 -2.56637,-2.56637 -6.67875,-2.05016 -8.50587,1.06767 -1.39591,2.38194 -0.65157,5.9503 1.52138,7.29324 1.81886,1.12416 2.94338,1.33299 4.64012,0.86177 z m -83.0276,-0.61481 c 3.402516,-0.94458 5.008243,-5.3815 3.016916,-8.3364 -1.918221,-2.84647 -5.522745,-3.31126 -8.103937,-1.04491 -3.196351,2.80643 -2.183422,7.83273 1.86966,9.27762 1.415686,0.50468 1.735906,0.515 3.217361,0.10369 z m 26.635361,0.021 c 4.03408,-1.12034 5.3337,-6.23333 2.34437,-9.22268 -3.41011,-3.4101 -9.23576,-0.9828 -9.23576,3.84817 0,2.3816 1.46761,4.43569 3.7508,5.24962 1.40357,0.50037 1.74037,0.51376 3.14059,0.12489 z m 27.9761,-0.021 c 2.19575,-0.6096 4.02132,-3.16422 4.00532,-5.60497 -0.008,-1.15066 -0.9963,-3.05829 -2.0407,-3.93709 -3.52259,-2.96402 -8.93277,-0.3997 -8.93277,4.23389 0,2.43733 1.65458,4.61628 4.05085,5.33453 1.17562,0.3524 1.56578,0.34887 2.9173,-0.0264 z m -55.798673,-24.9313 c 3.402527,-0.9446 5.008254,-5.38151 3.016927,-8.3364 -1.918231,-2.84648 -5.522755,-3.31126 -8.103938,-1.04492 -3.19635,2.80642 -2.183422,7.83273 1.869651,9.27762 1.415686,0.50468 1.735905,0.51501 3.21736,0.1037 z m 83.027652,0.0211 c 4.03398,-1.12033 5.3337,-6.23333 2.34437,-9.22268 -3.49977,-3.4997 -9.23954,-0.97535 -9.23428,4.06125 0,2.35633 1.60209,4.47219 3.87417,5.12451 1.36632,0.39225 1.72068,0.39659 3.01574,0.0369 z m -84.291546,-25.5249 c 3.79576,-1.05419 5.261212,-5.85791 2.711463,-8.88814 -1.079423,-1.28281 -2.368302,-1.86844 -4.112066,-1.86844 -5.012679,0 -7.398272,6.00099 -3.75326,9.44129 1.541133,1.45459 3.162423,1.86837 5.153863,1.31529 z m 85.496086,-2.3792 c 2.53652,-0.7044 4.33249,-3.44901 3.94552,-6.02963 -0.25444,-1.69697 -1.67282,-3.65813 -3.08165,-4.2611 -5.05696,-2.16427 -9.8499,3.35529 -6.92228,7.97164 0.75199,1.18582 1.60252,1.81011 3.30488,2.42585 0.7156,0.25881 1.55416,0.22631 2.75353,-0.10676 z m 363.64763,117.97314 c -0.97944,-0.2096 -3.31674,-0.5179 -5.19403,-0.6851 -1.87729,-0.1672 -3.88065,-0.4667 -4.45202,-0.6655 -2.16788,-0.7545 -4.94655,-1.7874 -6.23283,-2.3168 -0.73454,-0.3024 -1.93658,-0.7971 -2.67119,-1.0994 -1.58583,-0.6526 -3.56166,-1.8938 -3.56166,-2.2375 0,-0.1342 -0.17992,-0.2441 -0.39997,-0.2441 -0.70276,0 -5.43558,-5.3078 -6.43849,-7.2208 -0.52818,-1.0074 -1.27863,-2.2605 -1.66766,-2.7847 -1.95948,-2.6403 -4.27071,-9.955 -4.388,-13.887 -0.0344,-1.1427 -0.15214,-5.4834 -0.26237,-9.646 -0.36873,-13.9275 -0.77996,-17.71612 -2.23577,-20.59774 -1.2653,-2.50443 -2.45228,-3.64772 -4.3639,-4.20345 -0.88357,-0.25684 -1.72334,-0.67594 -1.86618,-0.93124 -0.39619,-0.70787 0.27613,-2.13303 1.30676,-2.76996 0.802,-0.49569 1.14905,-0.52703 2.96927,-0.26831 6.30814,0.8967 9.0079,1.5629 12.38367,3.05584 2.82997,1.25153 7.04026,4.35532 7.04026,5.18999 0,0.1633 0.47199,0.91524 1.04887,1.67098 1.01695,1.3322 2.18844,3.96806 2.3528,5.2934 0.0438,0.35729 0.28484,1.38419 0.53464,2.28202 0.56707,2.03831 1.0012,5.45627 1.38344,10.89287 0.16297,2.3182 0.41872,4.4552 0.56845,4.7488 0.14973,0.2937 0.47629,1.0015 0.72576,1.5728 1.27062,2.9101 3.88984,5.1118 7.65525,6.435 1.47776,0.5193 2.84837,1.0782 3.04586,1.2421 0.19741,0.1639 0.91679,0.3652 1.59857,0.4474 0.68178,0.082 1.4799,0.2736 1.77369,0.4254 0.62825,0.3247 1.9838,0.5846 4.9246,0.9442 1.17648,0.1438 2.47292,0.3422 2.88097,0.4408 1.63868,0.396 7.76696,0.7201 10.98175,0.5808 5.63477,-0.2441 12.03859,-2.0429 14.64473,-4.1137 1.57051,-1.2479 2.86816,-3.2508 2.85922,-4.4135 -0.0198,-2.6436 -1.24655,-5.0681 -3.64608,-7.208 -4.12251,-3.6765 -4.12785,-3.6802 -8.5155,-5.9815 -1.87729,-0.9847 -4.14782,-2.2115 -5.04558,-2.7263 -0.89787,-0.51475 -2.02763,-1.0977 -2.51073,-1.29537 -1.04825,-0.42891 -8.04738,-3.96006 -12.10942,-6.10926 -1.59314,-0.8429 -3.59649,-1.80776 -4.45201,-2.14416 -0.85561,-0.33643 -1.95627,-0.90431 -2.44599,-1.26206 -0.48972,-0.35773 -1.22426,-0.79956 -1.63239,-0.98185 -2.93839,-1.31245 -7.47078,-3.60151 -8.4588,-4.272 -0.65296,-0.4431 -1.92186,-1.26427 -2.81963,-1.8248 -0.89785,-0.56053 -2.19723,-1.37757 -2.88744,-1.81565 -0.6903,-0.43808 -1.32759,-0.7965 -1.41623,-0.7965 -0.0886,0 -0.65906,-0.31157 -1.2677,-0.69238 -2.12149,-1.32735 -4.68169,-2.81124 -6.59752,-3.82395 -2.52517,-1.33487 -4.45125,-2.55965 -4.4552,-2.83322 0,-0.12037 -0.50649,-0.75313 -1.12167,-1.40609 -1.45031,-1.53947 -3.32716,-3.86368 -3.32716,-4.12032 0,-0.11039 -0.53868,-0.88227 -1.19715,-1.71524 -2.84337,-3.59717 -4.78038,-9.78508 -5.23429,-16.72134 -0.12822,-1.95889 -0.21143,-3.8955 -0.18493,-4.30361 0.0941,-1.44797 0.69977,-6.0348 0.95577,-7.2377 0.14284,-0.67165 0.35273,-2.14496 0.46631,-3.27404 0.11359,-1.12914 0.31133,-2.33118 0.43946,-2.67122 0.12805,-0.34009 0.47217,-1.68679 0.76457,-2.99271 0.29249,-1.30594 0.75983,-2.84188 1.03872,-3.41322 0.2788,-0.57134 1.07856,-2.44119 1.77712,-4.15522 0.69856,-1.71401 1.5644,-3.51709 1.92401,-4.00681 0.35961,-0.48972 1.09105,-1.79194 1.62533,-2.89381 0.5343,-1.10187 1.07108,-2.00342 1.19283,-2.00342 0.12177,0 0.3017,-0.23372 0.3998,-0.5194 0.33991,-0.98995 1.53041,-2.73485 3.0073,-4.40785 0.81619,-0.92457 1.6046,-1.93045 1.75192,-2.2353 0.1474,-0.30485 0.37638,-0.55427 0.50882,-0.55427 0.13242,0 1.28025,-0.93493 2.55071,-2.07762 1.27054,-1.14267 2.46278,-2.0776 2.6496,-2.0776 0.18672,0 0.94699,-0.50085 1.68953,-1.113 1.34497,-1.10888 1.84905,-1.40224 4.94749,-2.87878 0.89777,-0.42783 2.15394,-1.05111 2.79131,-1.38502 1.46545,-0.76774 8.12209,-2.89185 10.23223,-3.26511 0.87815,-0.15534 1.85114,-0.41864 2.16221,-0.58508 1.36897,-0.73266 6.54356,-1.42391 10.84163,-1.44826 17.24882,-0.0978 25.96233,0.39025 29.17763,1.6343 0.57137,0.22104 1.5063,0.48744 2.07759,0.59196 0.57139,0.10454 1.8872,0.44545 2.92403,0.75759 1.03691,0.31211 2.17218,0.62083 2.52283,0.68597 3.06935,0.57021 6.70957,1.92878 9.54167,3.56104 0.81619,0.47043 2.36063,1.36227 3.43205,1.98184 2.17468,1.25756 5.87383,4.5656 7.0665,6.31938 3.96635,5.83244 4.58428,7.20454 5.09748,11.31883 0.14259,1.14269 0.34868,2.41151 0.45805,2.81961 0.10928,0.40811 0.17994,2.41151 0.15679,4.45202 -0.0387,3.39491 -0.45117,5.94423 -1.20127,7.42004 -0.12443,0.24486 -0.39593,1.15518 -0.60322,2.02294 -0.5312,2.22336 -2.16788,6.05059 -3.48988,8.16078 -1.21133,1.93359 -2.80474,3.65303 -5.55287,5.99195 -0.95903,0.8162 -2.07674,1.78452 -2.48394,2.15181 -0.40719,0.3673 -0.84691,0.66781 -0.97711,0.66781 -0.1302,0 -0.46777,0.39114 -0.7501,0.86927 -0.63325,1.07193 -1.45271,1.31702 -2.37749,0.7111 -0.87773,-0.57514 -0.90725,-1.60502 -0.0671,-2.35057 0.79528,-0.70589 2.46887,-3.28545 2.77385,-4.27543 0.12571,-0.4081 0.47431,-1.09098 0.77454,-1.51752 0.30024,-0.42649 0.4608,-0.86058 0.35677,-0.9646 -0.1039,-0.10401 -0.0258,-0.18909 0.17468,-0.18909 0.20008,0 0.28828,-0.12217 0.19602,-0.27145 -0.0922,-0.14929 -0.0111,-0.32367 0.18037,-0.38751 0.22408,-0.0747 0.47139,-1.6977 0.69357,-4.55157 0.277,-3.55868 0.26701,-5.05159 -0.0508,-7.55193 -0.58558,-4.60784 -1.16031,-6.32059 -3.26512,-9.73014 -0.89725,-1.4536 -3.17717,-3.6428 -5.14214,-4.93759 -2.93312,-1.93281 -2.74709,-1.84353 -9.65887,-4.63442 -1.14972,-0.46421 -3.48704,-1.13365 -5.19402,-1.48762 -2.76216,-0.57276 -3.70759,-0.6253 -8.59442,-0.47754 -3.01997,0.0913 -5.9574,0.30596 -6.52765,0.47703 -0.57026,0.17106 -1.70553,0.31201 -2.52284,0.31325 -2.73384,0.004 -8.32448,1.07365 -11.29522,2.16084 -1.92366,0.70398 -6.91607,3.39956 -9.01916,4.86973 -2.72721,1.90642 -7.42095,5.67894 -8.47731,6.81349 -1.45787,1.56583 -3.35451,4.36654 -3.58867,5.29941 -0.12011,0.47889 -0.47275,1.30171 -0.78358,1.8285 -0.40141,0.68036 -0.66051,2.01568 -0.89458,4.61 -0.28955,3.20906 -0.2634,4.00318 0.21505,6.54525 0.29954,1.59119 0.66507,2.89308 0.81232,2.89308 0.14722,0 0.18612,0.13202 0.0863,0.29339 -0.58516,0.94676 3.92615,7.76028 6.28,9.48491 0.56922,0.41697 1.5255,1.21468 2.12519,1.77267 1.14654,1.06679 6.95421,4.9505 9.1442,6.11496 0.70657,0.37569 2.18861,1.27682 3.29342,2.00251 1.10481,0.72569 2.94372,1.82005 4.0864,2.43192 1.14265,0.61185 3.74707,2.21303 5.78761,3.55816 2.04052,1.34516 4.51139,2.89374 5.49082,3.44127 0.97943,0.54753 2.71576,1.6189 3.85842,2.38077 1.14268,0.76188 2.61183,1.67288 3.26478,2.02444 0.65295,0.35156 2.01332,1.23687 3.02296,1.96732 1.00973,0.73046 2.77437,1.79914 3.92152,2.37486 1.14714,0.57573 2.19094,1.23456 2.31942,1.46408 0.29945,0.53466 2.05342,1.79946 4.68581,3.37891 1.14267,0.68564 2.92572,1.77855 3.96239,2.42873 1.03664,0.65014 1.94353,1.18209 2.01539,1.18209 0.0714,0 0.49256,0.24623 0.93486,0.54719 0.4423,0.30093 1.40521,0.93506 2.13974,1.40921 3.68788,2.38026 6.54348,4.51998 8.03836,6.02327 0.91136,0.91651 2.61543,2.59444 3.78675,3.72874 3.59271,3.4792 6.95421,9.1682 8.25134,13.9649 0.90293,3.3388 0.66328,13.0369 -0.37183,15.048 -0.22683,0.4407 -0.41468,1.1085 -0.41743,1.484 0,0.3754 -0.32562,1.2167 -0.71775,1.8697 -0.39214,0.6529 -1.07314,1.9127 -1.51338,2.7994 -1.15729,2.3309 -5.62127,6.5452 -6.93674,6.5487 -0.22949,0 -0.83055,0.3164 -1.33585,0.7018 -1.09018,0.8316 -8.15125,3.2861 -10.78079,3.7476 -3.95112,0.6934 -8.24419,0.9808 -15.6623,1.0486 -4.24429,0.039 -9.18602,0.2031 -10.98164,0.3653 -4.8895,0.4416 -23.03634,0.3713 -25.22815,-0.098 z m 22.7682,-7.0226 c 2.06892,-1.1628 3.21676,-3.9023 2.59796,-6.2004 -1.13328,-4.2084 -6.7598,-5.4027 -9.59252,-2.0362 -2.96135,3.5193 -0.41218,8.8953 4.22003,8.8997 1.10102,0 1.95678,-0.2035 2.77453,-0.6631 z m -21.96328,-1.1872 c 2.06892,-1.1628 3.21675,-3.9023 2.59788,-6.2004 -1.13321,-4.2084 -6.75974,-5.4027 -9.59245,-2.0362 -2.96134,3.5193 -0.41218,8.8953 4.22002,8.8997 1.10095,0 1.95672,-0.2035 2.77455,-0.6631 z m 45.11381,-1.7808 c 2.03812,-1.1455 3.21684,-3.9019 2.61862,-6.1235 -1.11058,-4.1243 -6.21753,-5.4762 -9.24608,-2.4476 -3.45503,3.4549 -1.05352,9.2357 3.83683,9.2357 1.1154,0 1.9704,-0.2036 2.79063,-0.6646 z m -63.38139,-10.1814 c 2.82591,-1.6562 3.50589,-5.6345 1.39222,-8.1464 -2.53006,-3.0069 -7.41517,-2.4821 -9.21037,0.9894 -0.69528,1.3445 -0.63127,3.6564 0.14259,5.1473 1.37784,2.6548 4.96986,3.5953 7.67556,2.0097 z m 78.81505,-1.097 c 3.10429,-1.7448 3.68582,-6.0446 1.1592,-8.5712 -3.03674,-3.0367 -8.13561,-1.6762 -9.25168,2.4685 -0.38852,1.443 0.008,3.4276 0.94784,4.748 1.41864,1.9922 4.85199,2.6432 7.14464,1.3547 z m -83.81831,-18.849 c 2.10507,-0.9775 3.37183,-3.9194 2.72386,-6.3259 -0.69941,-2.59737 -3.58487,-4.43563 -6.25452,-3.98459 -4.41278,0.74554 -6.10463,6.18169 -2.91626,9.37009 1.71662,1.7166 4.04412,2.0561 6.44692,0.9404 z m 71.33895,-1.2987 c 2.07184,-1.0359 3.26443,-3.8108 2.63798,-6.1375 -1.11609,-4.14472 -6.21503,-5.50519 -9.25176,-2.46847 -2.19095,2.19097 -2.16849,5.54837 0.0525,7.76887 1.75423,1.7543 4.12303,2.0565 6.56164,0.8371 z M 511.1842,993.94627 c 1.28354,-0.60477 2.30418,-1.97765 2.73005,-3.67221 1.39084,-5.53391 -5.90283,-9.11642 -9.6043,-4.71745 -1.81164,2.15298 -1.63661,5.37853 0.40237,7.41751 1.74752,1.74755 4.0819,2.09821 6.47188,0.97215 z m -22.55696,-13.05931 c 1.89924,-0.89488 3.26409,-3.70232 2.85638,-5.87553 -0.24455,-1.30365 -1.64098,-3.2566 -2.71886,-3.80227 -4.33154,-2.19291 -9.2448,1.43727 -8.09972,5.98459 0.94794,3.76468 4.40616,5.36872 7.9622,3.69321 z M 468.644,968.8986 c 2.66766,-0.74061 4.40004,-3.75358 3.71809,-6.46683 -0.82042,-3.26433 -3.55597,-4.9393 -6.75242,-4.13443 -3.75423,0.94534 -5.30297,5.57572 -2.91299,8.70915 1.46027,1.91451 3.51354,2.56778 5.94732,1.89211 z m -12.46568,-20.77609 c 1.57344,-0.43684 3.27294,-2.17627 3.70922,-3.79639 0.78479,-2.91447 -1.05273,-6.08127 -3.95224,-6.81137 -5.08009,-1.27919 -8.88887,4.5404 -5.7043,8.71565 1.46028,1.91452 3.51354,2.56777 5.94732,1.89211 z m 6.52962,-23.15051 c 0.64926,-0.18024 1.67154,-0.81874 2.27167,-1.41889 3.46621,-3.46621 1.02916,-9.3002 -3.88494,-9.3002 -6.13096,0 -7.65966,8.56206 -1.89562,10.61723 1.40857,0.50222 2.00456,0.51953 3.50889,0.10188 z m 15.43366,-14.84005 c 1.57818,-0.43815 3.27286,-2.17597 3.71189,-3.80639 0.65537,-2.43379 -0.50744,-5.14918 -2.67962,-6.25732 -3.74037,-1.9082 -8.16589,0.76593 -8.10616,4.89812 0.0353,2.43626 1.32191,4.26393 3.565,5.06372 1.40856,0.50222 2.00456,0.51953 3.50889,0.10188 z m 45.11382,-5.34243 c 2.4083,-0.66861 4.34161,-3.68119 3.85095,-6.00082 -0.83418,-3.94348 -4.94792,-5.88574 -8.30237,-3.91995 -1.46733,0.85993 -2.07675,1.70338 -2.52929,3.50058 -0.64865,2.57596 0.89064,5.409 3.42577,6.30542 1.45771,0.51542 2.04363,0.53436 3.55494,0.11477 z m -22.55695,-1.1872 c 2.4084,-0.66861 4.3417,-3.68119 3.85104,-6.00082 -0.83426,-3.94349 -4.94793,-5.88575 -8.30237,-3.91995 -1.46734,0.85993 -2.07676,1.70338 -2.52929,3.50057 -0.64865,2.57597 0.89054,5.40898 3.42568,6.30543 1.45779,0.51542 2.04363,0.53435 3.55494,0.11477 z m 63.52216,143.03038 c -2.7236,-1.1461 -5.53874,-5.6836 -7.32698,-11.81 -0.16668,-0.5713 -0.40357,-1.1723 -0.52619,-1.3356 -0.50787,-0.6756 -0.5138,-1.7127 -0.0206,-3.6073 0.63471,-2.4396 1.36537,-3.1202 2.53015,-2.357 0.40892,0.2679 0.74357,0.6245 0.74357,0.7923 0,0.4899 1.94887,1.1661 3.32948,1.1551 1.82307,-0.015 3.48567,-0.8868 4.00962,-2.1039 1.20335,-2.7949 1.56364,-8.1987 1.35307,-20.2945 -0.19095,-10.97163 -0.21229,-13.28556 -0.13124,-14.24645 0.0275,-0.32649 0.0602,-4.86753 0.0722,-10.09124 0.0121,-5.22371 0.0791,-10.69969 0.14827,-12.16885 0.24016,-5.07353 0.36924,-11.62999 0.52258,-26.54289 0.12047,-11.72073 0.0638,-15.78395 -0.26375,-18.73059 -0.22967,-2.06962 -0.48231,-5.437 -0.5613,-7.48307 -0.15282,-3.95535 -0.56733,-6.22102 -1.24017,-6.77947 -0.22674,-0.18818 -0.41226,-0.53131 -0.41226,-0.76258 0,-0.50741 -1.6564,-2.15538 -3.94432,-3.92416 -2.11737,-1.63705 -3.03217,-2.11233 -4.06582,-2.11233 -1.06661,0 -3.33283,0.79519 -3.71757,1.30447 -0.16556,0.21916 -0.72833,0.49227 -1.25049,0.60696 -0.85578,0.18797 -0.96894,0.13044 -1.14809,-0.5831 -0.11041,-0.44001 0.024,-1.73473 0.30289,-2.915 0.27579,-1.16782 0.62155,-2.68127 0.76835,-3.36317 0.14673,-0.68194 0.46158,-1.70617 0.69968,-2.27607 0.48653,-1.16443 3.24989,-3.51785 5.08389,-4.32981 2.45718,-1.0878 9.05608,-1.54366 11.27981,-0.77919 0.63816,0.21939 1.92934,1.01428 2.86928,1.76647 0.94002,0.75219 1.80131,1.3676 1.91403,1.3676 0.11273,0 0.61819,-0.30825 1.1233,-0.68498 0.50512,-0.37676 1.43267,-0.94439 2.06119,-1.26142 0.62851,-0.31704 1.56345,-0.8064 2.07761,-1.08754 1.06462,-0.58205 5.75568,-2.15608 8.24014,-2.76485 1.90096,-0.4658 1.81043,-0.46336 19.55524,-0.5205 l 13.2077,-0.0425 2.89749,0.80651 c 1.59367,0.44353 3.2277,0.80645 3.63136,0.80645 1.18388,0 7.18163,1.80542 9.70567,2.92155 0.70218,0.31051 2.30083,0.99549 3.55261,1.5222 1.2517,0.52667 2.54032,1.20401 2.86352,1.50514 0.32321,0.30114 1.04432,0.73832 1.60245,0.97152 0.55821,0.23319 1.99026,1.49035 3.1825,2.79366 3.07925,3.36635 5.13836,7.13802 6.57343,12.04094 0.46821,1.59946 1.03992,3.46931 1.27045,4.15523 0.23053,0.6859 0.49815,1.82415 0.5947,2.52945 0.0966,0.70531 0.30187,1.7738 0.45633,2.37441 0.26564,1.03295 1.05489,6.57602 1.8248,12.81569 0.73882,5.98741 -0.5583,18.41744 -2.41433,23.1364 -1.7631,4.48271 -4.92237,9.812 -7.31012,12.33136 -2.16607,2.28546 -5.48334,5.05684 -7.59656,6.34643 -2.17701,1.32858 -7.053,3.07692 -10.0011,3.58602 -4.65741,0.80424 -5.80612,0.9324 -9.4976,1.0595 -2.20377,0.0759 -4.34076,0.20179 -4.7489,0.27988 -0.40805,0.0781 -2.60141,0.218 -4.874,0.31092 -2.27269,0.093 -4.25299,0.24368 -4.40073,0.33501 -0.14785,0.0914 -3.56398,0.2066 -7.59158,0.25617 -4.02763,0.0496 -7.55407,0.18218 -7.83658,0.29466 -0.2825,0.11252 -0.52611,0.49177 -0.54134,0.84279 -0.15386,3.53914 -0.35041,13.72558 -0.3331,17.25916 0.0567,11.51131 0.0249,17.38011 -0.10306,19.23421 -0.16265,2.3529 0.48342,5.95 1.4225,7.9194 0.63015,1.3215 2.32303,3.2685 2.842,3.2685 0.1487,0 0.4226,0.1834 0.60865,0.4076 0.76705,0.9242 5.62316,1.2797 6.13646,0.4492 0.27983,-0.4528 1.20024,-0.2881 1.74338,0.312 0.48352,0.5344 0.48869,0.7085 0.0723,2.4486 -0.24662,1.0304 -0.53291,2.3738 -0.63626,2.9855 -0.10327,0.6116 -0.5157,1.4658 -0.91653,1.8983 -0.40083,0.4325 -0.73118,0.9338 -0.73411,1.114 -0.008,0.3343 -1.11262,2.1075 -2.57317,4.1211 -0.95637,1.3185 -2.98313,2.5859 -4.50502,2.8171 -0.59315,0.09 -2.68118,0.2182 -4.64005,0.2848 -3.3077,0.1123 -5.25571,-0.1465 -6.23282,-0.828 -0.16325,-0.1139 -0.63076,-0.3081 -1.03881,-0.4315 -0.79261,-0.2397 -4.7167,-2.5194 -4.3368,-2.5194 0.12443,0 -0.31485,-0.5677 -0.97607,-1.2614 l -1.2023,-1.2614 -0.95387,1.1872 c -1.68566,2.0978 -3.5411,3.6795 -5.21599,4.4463 -2.10901,0.9655 -4.88992,1.0018 -7.0523,0.092 z m 50.60464,-88.53785 c 9.1941,-0.0736 10.50475,-0.14546 12.83621,-0.70365 2.57524,-0.61652 5.19317,-1.85047 6.31682,-2.97743 2.46683,-2.47389 4.59107,-5.67119 4.59107,-6.91018 0,-0.39166 0.15112,-0.86322 0.33578,-1.0479 0.56664,-0.56666 0.18079,-6.53134 -0.5077,-7.84778 -0.66277,-1.26725 -2.47535,-2.79595 -3.62773,-3.05963 -0.92807,-0.21236 -1.91403,-0.96472 -2.36253,-1.80283 -0.42596,-0.79588 0.25281,-2.38064 1.14034,-2.66231 0.98623,-0.31303 3.42836,-2.87223 4.30005,-4.50633 0.68101,-1.27651 0.74168,-1.65013 0.59221,-3.64816 -0.16204,-2.16751 -1.04432,-5.01313 -1.84794,-5.9601 -0.21901,-0.25813 -0.33845,-0.52907 -0.26539,-0.60212 0.0731,-0.0731 -0.26014,-0.39611 -0.74048,-0.7179 -0.48032,-0.32182 -0.87366,-0.72171 -0.87418,-0.88862 0,-0.3237 -0.93649,-0.83903 -3.56242,-1.96228 -1.57422,-0.67332 -1.87703,-0.69594 -8.48538,-0.63411 -3.76913,0.0354 -7.16367,0.1791 -7.5434,0.31956 -0.38775,0.14343 -1.31787,0.1414 -2.12116,-0.005 -1.52361,-0.27692 -12.7196,-0.0871 -16.78414,0.28472 -1.33886,0.12247 -2.55398,0.35619 -2.70028,0.51944 -0.74365,0.82985 -0.91695,5.00335 -0.82574,19.88568 0.0516,8.48852 0.19843,17.35186 0.32537,19.69632 l 0.23086,4.2627 1.06961,0.46066 c 1.44161,0.62088 4.68066,0.93174 7.74769,0.7436 1.38756,-0.0851 7.13069,-0.19163 12.76246,-0.23672 z m 148.1471,88.83205 c -2.58359,-0.3447 -4.03328,-1.1395 -6.15366,-3.3738 -0.99372,-1.0472 -1.73616,-1.9039 -1.64985,-1.9039 0.0862,0 -0.0543,-0.167 -0.31229,-0.371 -0.25798,-0.2041 -0.90172,-1.1724 -1.43043,-2.1519 -0.52861,-0.9794 -1.14438,-1.9916 -1.36829,-2.2493 -0.224,-0.2577 -0.40719,-0.6045 -0.40719,-0.7706 0,-0.1662 -0.21632,-0.7356 -0.48068,-1.2656 -0.40444,-0.8107 -0.42819,-1.2247 -0.1499,-2.6103 0.18192,-0.9058 0.48136,-1.8284 0.66543,-2.0502 0.58781,-0.7083 1.6267,-0.4544 2.54643,0.6224 1.27466,1.4923 2.93975,1.8182 5.28394,1.0344 0.97944,-0.3275 1.98296,-0.7581 2.2301,-0.9568 0.89768,-0.7217 1.60054,-2.1828 1.95852,-4.0712 0.20118,-1.0611 0.59391,-3.0645 0.87282,-4.452 0.40804,-2.0307 0.49951,-4.0283 0.46854,-10.2397 -0.0646,-12.90121 -0.024,-15.58047 0.25582,-17.05631 0.27511,-1.4505 0.14681,-36.52061 -0.13958,-38.1487 -0.26142,-1.48653 -0.43996,-8.50346 -0.40787,-16.02726 0.0697,-16.20734 -0.11487,-23.41064 -0.61372,-24.01173 -0.24894,-0.29995 -0.97607,-0.3642 -2.92314,-0.25839 -1.42552,0.0776 -3.75234,0.0105 -5.17063,-0.14945 -1.41829,-0.15968 -3.09327,-0.19621 -3.72213,-0.0812 -0.62895,0.11502 -2.2733,0.0856 -3.65415,-0.0652 -3.12253,-0.34109 -7.29703,0.10348 -11.38212,1.21228 -3.08365,0.83698 -3.99801,1.45729 -6.2072,4.21129 -0.74555,0.92934 -0.81817,1.21415 -0.6971,2.73202 0.25738,3.22528 -1.50667,3.03574 -3.08656,-0.33164 -1.00154,-2.13472 -1.53747,-5.70221 -0.91446,-6.08727 0.18502,-0.11433 0.33654,-0.70084 0.33672,-1.30335 0,-4.9164 3.2683,-13.11594 5.22501,-13.11594 0.55735,0 0.52578,-1.03288 -0.0491,-1.60774 -0.79864,-0.79864 -2.41698,-3.34645 -2.58875,-4.07554 -0.0904,-0.38388 -0.36278,-1.2322 -0.60528,-1.88516 -0.4694,-1.26392 -0.88503,-4.55201 -0.82832,-6.55314 0.0189,-0.66587 0.36795,-2.32552 0.77574,-3.68811 0.40788,-1.36258 0.74159,-2.83976 0.74159,-3.28262 0,-0.44289 0.25721,-1.12054 0.57164,-1.50591 l 0.5718,-0.70069 1.01506,0.97862 c 0.55831,0.53825 1.30419,1.55748 1.65752,2.265 0.40831,0.81764 1.40959,1.90188 2.74777,2.97546 1.79924,1.44356 2.36726,1.7313 3.90765,1.97937 0.99132,0.15966 1.93211,0.37041 2.09062,0.46839 0.29834,0.18437 3.96281,0.42232 5.91109,0.38381 0.6107,-0.0122 1.39101,0.12826 1.73402,0.31179 0.4188,0.22415 3.02717,0.32237 7.94206,0.29906 4.0252,-0.019 7.58564,-0.0352 7.91212,-0.0357 2.17252,-0.003 30.48206,0.34542 33.91833,0.41812 2.35866,0.0499 6.76807,-0.13281 9.94283,-0.41197 6.38782,-0.5617 8.37466,-1.08766 11.32869,-2.99886 0.97109,-0.62826 1.91222,-1.14233 2.09139,-1.14233 0.88666,0 3.1178,-2.18763 3.1178,-3.05689 0,-0.8661 0.85259,-1.69192 1.74665,-1.69192 0.84588,0 1.62147,1.7086 2.10075,4.62781 0.30842,1.87801 0.2826,2.29409 -0.23956,3.85842 -0.32191,0.96439 -0.81369,2.68833 -1.09292,3.83102 -0.27924,1.14268 -0.66785,2.27795 -0.86353,2.52281 -0.19576,0.24487 -0.93528,1.42257 -1.64339,2.6171 -0.88279,1.48911 -1.87833,2.65544 -3.16658,3.71003 -1.03348,0.84597 -1.88091,1.68537 -1.88306,1.86536 0,0.18001 0.82867,1.10902 1.84639,2.06455 1.01772,0.95549 2.17709,2.21061 2.57628,2.78917 0.86626,1.25542 2.6878,5.30412 2.69295,5.98556 0,0.26491 0.2702,1.0843 0.59599,1.82086 0.50426,1.1399 0.54884,1.56881 0.2999,2.88192 -0.16091,0.84845 -0.5682,2.09927 -0.905,2.77954 -0.33681,0.68027 -0.89519,1.80447 -1.24103,2.49824 -0.4639,0.93086 -0.80578,1.26141 -1.3047,1.26141 -0.75424,0 -2.19034,-1.64949 -2.19034,-2.51579 0,-1.35043 -2.01919,-3.82893 -3.73925,-4.58978 -2.37122,-1.0489 -4.86971,-1.21039 -17.36154,-1.12215 -13.52677,0.0956 -13.33188,0.0645 -13.89104,2.21668 -0.15919,0.61261 -0.29876,3.05044 -0.3102,5.41743 -0.0111,2.367 -0.10507,5.5951 -0.20816,7.17354 -0.10317,1.57844 -0.0353,5.65205 0.15144,9.05244 0.18648,3.40039 0.38767,11.05747 0.44704,17.01577 0.0594,5.95828 0.21306,15.10717 0.34137,20.33088 0.12821,5.2237 0.2745,12.63631 0.32501,16.47248 0.36727,27.91691 0.48662,29.92571 1.91437,32.23591 1.13803,1.8414 3.57258,3.0834 6.04379,3.0834 1.26004,0 2.11746,-0.3884 3.04827,-1.3807 0.80052,-0.8535 1.60321,-0.8891 2.31484,-0.1028 0.4912,0.5427 0.50918,0.8317 0.20808,3.339 -0.66577,5.5451 -1.23405,7.0091 -3.70844,9.5543 -1.73677,1.7864 -4.82178,3.4761 -7.68633,4.21 -2.06015,0.5278 -6.64665,0.3739 -7.82943,-0.2627 -2.79647,-1.5051 -5.09542,-2.9268 -5.47542,-3.3861 -0.24764,-0.2993 -0.83116,-1.045 -1.2967,-1.6571 -0.75009,-0.9864 -1.96307,-1.5243 -1.96307,-0.8705 0,0.5565 -3.82385,4.1348 -5.19404,4.8605 -3.03054,1.6052 -4.28257,1.9328 -6.33798,1.6587 z m 75.40322,-0.4353 c -0.86534,-0.2297 -2.17778,-0.8789 -2.91653,-1.4428 -0.73875,-0.5639 -1.48868,-1.0252 -1.66663,-1.0252 -0.17796,0 -0.24602,-0.078 -0.15128,-0.1723 0.0947,-0.095 -0.35039,-0.6446 -0.98933,-1.2218 -0.63893,-0.5772 -1.16159,-1.2101 -1.16159,-1.4066 0,-0.1964 -0.30058,-0.6441 -0.66784,-0.9948 -1.46288,-1.3969 -2.00336,-2.0275 -2.00336,-2.3373 0,-0.1783 -0.20644,-0.4955 -0.45874,-0.7049 -0.2523,-0.2093 -0.39385,-0.5496 -0.31459,-0.7562 0.21177,-0.552 -0.39352,-2.5223 -1.06531,-3.4675 -0.57689,-0.8116 -0.57706,-0.8334 -0.0146,-1.7808 0.46932,-0.7905 0.73109,-0.9463 1.48858,-0.8864 0.50555,0.04 1.40152,0.3573 1.99105,0.7051 0.91962,0.5426 1.39713,0.612 3.35865,0.4884 2.64349,-0.1667 3.86292,-0.6426 4.1036,-1.6017 0.0937,-0.3734 0.36537,-0.8407 0.60365,-1.0385 0.863,-0.7162 1.32371,-2.443 1.29653,-4.8588 -0.0638,-5.6684 0.49737,-28.33457 0.74597,-30.12535 0.0792,-0.57134 -0.0404,-4.42231 -0.26658,-8.55772 -0.22589,-4.13542 -0.38681,-11.0138 -0.35754,-15.28527 0.0292,-4.27148 -0.0567,-9.76975 -0.19199,-12.21836 -0.21168,-3.84191 -0.28268,-12.17449 -0.14034,-16.47248 0.024,-0.73457 -0.13992,-3.60613 -0.36495,-6.38122 -0.22511,-2.77509 -0.44186,-5.51308 -0.4817,-6.08442 -0.13201,-1.89281 -0.10306,-8.67904 0.0602,-14.09361 0.15687,-5.20658 0.0775,-6.1115 -0.86747,-9.92261 -0.44781,-1.80534 -2.43826,-3.8831 -3.71989,-3.8831 -1.1844,0 -4.21091,1.1222 -4.40745,1.63421 -0.25953,0.6764 -1.68736,1.09838 -2.57481,0.76094 -0.8668,-0.3295 -1.02581,-1.04019 -0.39799,-1.77818 0.39662,-0.46625 2.27261,-5.88986 2.27261,-6.57039 0,-0.19631 0.46743,-1.00759 1.03881,-1.80286 0.57128,-0.79525 1.03881,-1.57305 1.03881,-1.72843 0,-0.56615 3.73855,-4.05686 4.7488,-4.43394 0.57128,-0.21325 1.3059,-0.49773 1.63237,-0.63221 2.09389,-0.86242 5.05861,-0.44228 7.27165,1.03049 1.98228,1.31916 3.85845,3.06889 3.85845,3.59844 0,0.6754 0.61147,0.80321 1.58341,0.331 0.51665,-0.25098 1.40684,-0.67027 1.97815,-0.93172 0.57137,-0.26148 1.23912,-0.59138 1.48402,-0.73311 0.58515,-0.33864 4.46441,-1.38924 6.52963,-1.76836 4.40414,-0.80842 6.39835,-0.97927 12.66356,-1.08475 3.72735,-0.0627 8.98068,-0.20488 11.67418,-0.31577 2.6934,-0.11091 9.63857,-0.2445 15.43361,-0.29688 5.79504,-0.0523 12.47309,-0.1547 14.8401,-0.22741 2.3716,-0.0728 4.45115,-0.0109 4.63243,0.1381 0.18087,0.14866 1.38292,0.53872 2.67112,0.86684 3.72356,0.94822 9.16983,3.89649 10.75866,5.82394 0.83918,1.01816 1.9324,2.92538 1.9606,3.42055 0.0102,0.10878 0.33692,0.63818 0.73484,1.17649 1.13062,1.52921 1.2322,3.34884 0.5087,9.11178 -0.047,0.38031 -0.22573,0.781 -0.39557,0.8904 -0.16984,0.10937 -0.53517,0.64082 -0.81189,1.18097 -0.56807,1.10846 -3.81932,4.47609 -5.29002,5.47951 -0.53343,0.36388 -1.46989,1.04448 -2.08098,1.51245 -1.06328,0.81424 -1.14288,0.83006 -1.84921,0.36726 -1.03477,-0.67801 -1.21442,-1.72718 -0.57901,-3.38279 0.68559,-1.78663 0.57471,-3.23116 -0.4154,-5.41253 -1.38149,-3.04386 -1.79249,-3.14452 -13.99948,-3.42859 -2.20381,-0.0513 -5.34245,-0.18349 -6.97481,-0.29378 -4.93911,-0.33368 -9.01747,-0.28008 -14.98858,0.19705 -2.04051,0.16306 -6.1808,0.35401 -9.20069,0.42437 -6.38457,0.14869 -8.03656,0.27884 -8.79643,0.69299 -0.30412,0.1657 -1.31538,0.65674 -2.24745,1.09117 -2.70831,1.26236 -4.71223,4.33253 -4.17319,6.39363 0.0869,0.33028 -0.0542,1.09479 -0.31256,1.69886 -0.29325,0.68579 -0.52765,2.38029 -0.62395,4.51152 -0.35096,7.75849 -0.46795,12.61169 -0.42914,17.80809 0.0222,3.01995 0.0317,5.75794 0.021,6.08443 -0.25053,7.09959 -0.28977,10.11991 -0.15095,11.61629 l 0.16899,1.82182 1.51995,0.20727 c 0.83601,0.11396 2.85557,0.25815 4.48814,0.32038 1.63227,0.0623 4.30359,0.2038 5.93586,0.31454 5.37207,0.36444 16.83063,-0.12824 18.93665,-0.81419 1.70359,-0.55488 2.47072,-1.4378 2.8944,-3.33101 0.44186,-1.97418 0.18435,-2.4248 -1.96101,-3.4333 -1.53467,-0.72135 -2.08067,-1.5313 -1.61673,-2.39819 0.39496,-0.73776 0.96466,-0.74245 3.49118,-0.0288 2.79436,0.78943 3.50774,1.14485 5.93238,2.95548 1.4842,1.10838 2.31969,1.98145 2.75318,2.87725 0.34254,0.70734 0.88823,1.62377 1.21298,2.03655 0.71032,0.90303 1.26367,3.96729 1.04969,5.81224 -0.20509,1.76776 -0.85083,2.98536 -2.40911,4.5438 l -1.28584,1.28574 1.44352,1.61145 c 0.79391,0.88631 1.6153,1.94535 1.8252,2.35346 0.21,0.40811 0.61548,1.00094 0.9011,1.31739 0.28572,0.31644 0.51943,0.88407 0.51943,1.26141 0,0.37731 0.11629,0.68601 0.25844,0.68601 0.14224,0 0.34672,0.90154 0.45463,2.00342 0.22952,2.34211 -0.48887,4.99848 -1.93076,7.1381 -0.47293,0.70195 -0.86002,1.40315 -0.86002,1.5582 0,0.15508 -0.10117,0.28193 -0.2242,0.28193 -0.12345,0 -0.39282,0.36729 -0.59873,0.81621 -0.7844,1.71043 -1.52711,1.94998 -6.32601,2.03998 -4.8085,0.0902 -5.11875,-0.0105 -5.11875,-1.65652 0,-0.88364 0.33191,-1.32736 1.59752,-2.1359 1.01443,-0.64806 1.98921,-2.79919 1.56963,-3.4642 -0.47845,-0.75863 -3.50233,-1.53801 -6.7782,-1.74703 -4.10146,-0.26172 -25.64311,-0.26648 -26.60518,-0.006 -0.8207,0.22227 -1.28433,0.94018 -0.95319,1.47593 0.32058,0.51882 0.17353,5.27511 -0.17617,5.69648 -0.17838,0.21486 -0.30634,0.97499 -0.2845,1.68922 0.0222,0.71419 -0.0612,3.70262 -0.18524,6.64095 -0.12384,2.93834 -0.23935,10.776 -0.25686,17.4169 l -0.0317,12.0745 0.83061,0.8676 c 1.51578,1.5833 6.78302,3.9777 9.26069,4.2097 0.32649,0.031 6.60376,0.03 13.94962,0 7.34596,-0.031 13.62323,-0.047 13.94972,-0.036 5.96907,0.2041 15.09894,0.3842 20.4793,0.4039 7.83698,0.028 8.43284,-0.1019 9.93502,-2.1756 0.64931,-0.8962 0.87607,-1.4916 0.77214,-2.0262 -0.40038,-2.0588 -0.32946,-2.7627 0.30217,-2.9964 0.68201,-0.2524 3.23919,0.7169 2.98331,1.1309 -0.2287,0.3701 0.38536,3.0497 1.01821,4.4442 0.31413,0.692 0.57563,1.3598 0.58125,1.484 0.0102,0.1242 0.26815,0.7601 0.5835,1.4131 0.84245,1.7439 0.76243,2.677 -0.29675,3.4601 -0.4898,0.3621 -0.89324,0.8669 -0.89702,1.1219 -0.0409,2.9135 -7.80131,11.0404 -10.67824,11.1825 -0.40815,0.02 -2.61195,0.1275 -4.89721,0.2386 -6.00749,0.2919 -38.80087,0.4132 -41.25545,0.1526 -1.14267,-0.1213 -4.08102,-0.3857 -6.52957,-0.5874 -4.06978,-0.3353 -6.57392,-0.6948 -9.79445,-1.4061 -1.46919,-0.3246 -4.20199,-2.072 -5.19399,-3.3213 -0.40815,-0.514 -1.0759,-1.3563 -1.48404,-1.8719 -1.18939,-1.5027 -2.06582,-2.3336 -2.30271,-2.1832 -0.25265,0.1605 -1.0383,1.7029 -1.53231,3.0086 -0.18537,0.4897 -0.72567,1.3331 -1.20067,1.8742 -0.475,0.5412 -0.90534,1.0777 -0.9562,1.1923 -0.17684,0.3983 -3.06496,2.3505 -3.80259,2.5703 -0.40805,0.1215 -0.94234,0.3933 -1.18717,0.6039 -0.24489,0.2106 -1.24652,0.4729 -2.22604,0.5828 -0.97943,0.11 -1.98115,0.2372 -2.22596,0.2828 -0.2449,0.046 -1.15326,-0.1051 -2.01867,-0.3347 z m -135.25712,-0.528 c -0.48688,-0.2195 -1.53876,-0.5522 -2.33749,-0.7394 -1.6168,-0.3787 -3.43084,-1.5259 -4.78709,-3.0273 -1.12469,-1.245 -2.21951,-2.8112 -2.21951,-3.1752 0,-0.2673 -0.68462,-0.6374 -1.17924,-0.6374 -0.13226,0 -0.31693,0.3005 -0.41055,0.6678 -0.27794,1.0908 -3.72119,4.0647 -5.23663,4.523 -0.40804,0.1233 -0.87557,0.3247 -1.0388,0.4473 -0.43095,0.3238 -3.61629,1.3751 -5.34239,1.7632 -2.65509,0.5971 -6.82434,-0.6751 -8.618,-2.6296 -0.48378,-0.5272 -1.2121,-1.3157 -1.61844,-1.7521 -1.65983,-1.7829 -4.09362,-6.1164 -5.02021,-8.939 -0.55615,-1.6941 -0.57525,-1.951 -0.17744,-2.3905 0.24507,-0.2708 0.44558,-0.6283 0.44558,-0.7945 0,-0.4893 0.86549,-2.0807 1.35057,-2.4832 0.65493,-0.5435 1.78909,0.066 2.04843,1.1017 0.49842,1.9898 3.80536,3.6774 6.3293,3.2299 2.02195,-0.3585 4.02306,-1.5796 5.04655,-3.0795 0.5256,-0.7702 0.95568,-1.666 0.95568,-1.9907 0,-0.3246 0.26289,-0.7544 0.58419,-0.9551 0.81551,-0.5093 1.52337,-1.9678 2.05292,-4.2299 0.50736,-2.1672 0.59995,-13.8913 0.25445,-32.20297 -0.28388,-15.04281 -0.26072,-20.47928 0.0871,-20.47928 0.45976,0 0.49048,-39.84017 0.0344,-44.6686 -0.19276,-2.0405 -0.41873,-4.97003 -0.50211,-6.51004 -0.14535,-2.68204 -0.84476,-5.9556 -1.27236,-5.9556 -0.11185,0 -0.36743,-0.3673 -0.5681,-0.81621 -1.29877,-2.90643 -5.64786,-5.69544 -8.89912,-5.7069 -1.75398,-0.006 -1.89657,0.0483 -2.81963,1.07727 -2.94811,3.28633 -3.35263,3.52669 -4.51045,2.68003 -0.51011,-0.37302 -0.49892,-0.47085 0.24008,-2.08639 0.42639,-0.93226 0.77533,-1.77453 0.77533,-1.87173 0,-0.67115 1.78909,-4.01889 2.65544,-4.96884 3.56156,-3.90518 5.28757,-5.19894 8.42094,-6.3118 6.29927,-2.23738 5.27957,-2.14837 10.88691,-0.95038 1.58918,0.33951 3.85842,1.7513 3.85842,2.4005 0,0.17235 0.23036,0.48182 0.51201,0.68774 0.43714,0.31965 0.65029,0.23764 1.45788,-0.5609 1.11788,-1.1054 2.293,-1.98833 3.52093,-2.64551 4.34188,-2.32365 6.33508,-2.89019 10.16821,-2.89019 2.01867,0 2.35435,0.0937 4.20368,1.17379 1.48575,0.86777 2.3078,1.60653 3.1528,2.83339 0.6287,0.91277 1.17443,1.87376 1.2129,2.13552 0.0387,0.26173 0.24568,0.58742 0.46054,0.72368 0.21496,0.13627 0.27426,0.24981 0.13183,0.25231 -0.14242,0.002 -0.12658,0.1715 0.0354,0.37554 0.16186,0.20406 0.46286,1.10559 0.66887,2.00342 0.206,0.89782 0.49041,1.77944 0.63204,1.95915 0.14165,0.1797 0.33655,0.98108 0.43302,1.78081 0.0966,0.79972 0.3689,2.0714 0.60527,2.82594 0.23638,0.75455 0.47681,2.22371 0.53429,3.26481 0.0577,1.04111 0.20507,3.1151 0.32794,4.60884 l 0.2233,2.71589 -0.91799,0.47473 c -0.50494,0.2611 -1.04302,0.47471 -1.19575,0.47471 -0.42819,0 -2.40203,-2.11934 -2.90242,-3.11641 -0.55244,-1.10081 -1.90379,-2.19696 -3.30021,-2.67704 -0.90277,-0.31033 -1.30033,-0.28 -2.71983,0.20743 -1.80913,0.6212 -2.7013,1.42818 -2.7013,2.44313 0,0.35737 -0.1616,0.81127 -0.35891,1.00864 -0.37863,0.37861 -1.36117,4.4262 -1.56278,6.43787 -0.0654,0.65295 -0.22098,6.52963 -0.34575,13.05925 -0.22115,11.57598 -0.23458,16.88485 -0.098,38.88097 0.0362,5.87666 -0.008,12.82181 -0.0979,15.43366 -0.0904,2.61185 -0.0577,5.31933 0.0723,6.01663 0.13002,0.69728 0.14757,1.32265 0.0387,1.38968 -0.10852,0.0671 -0.0947,1.09927 0.03,2.29384 0.12529,1.19453 0.29679,3.57432 0.38121,5.28832 0.0843,1.714 0.22862,4.6449 0.32054,6.513 0.26469,5.3821 0.65311,8.0482 1.55898,10.7015 0.18424,0.5395 0.25324,0.8805 0.31253,1.5445 0.068,0.7595 3.03003,3.6842 4.07916,4.0275 1.63222,0.5342 4.00491,-0.1689 5.58763,-1.6557 0.74803,-0.7028 1.36012,-1.3878 1.36012,-1.5222 0,-0.4894 1.69934,-0.9746 2.29558,-0.6555 0.50839,0.2721 0.57413,0.6908 0.61932,3.9475 0.0499,3.577 -0.35574,6.5265 -1.21729,8.8571 -0.51682,1.3981 -2.34161,4.1483 -3.29721,4.9695 -0.42613,0.3662 -0.77481,0.788 -0.77481,0.9373 0,0.1494 -0.6008,0.6511 -1.33507,1.115 -0.73427,0.4639 -1.33534,0.9527 -1.3356,1.0863 0,0.1336 -1.23603,0.8159 -2.74597,1.5163 -3.13862,1.4558 -5.95867,1.9144 -7.49941,1.2197 z"
       id="path3069"
       inkscape:connector-curvature="0" />
  </g>
</svg>
