<?xml version="1.0" encoding="UTF-8" standalone="no"?>
<!-- Created with Inkscape (http://www.inkscape.org/) -->

<svg
   xmlns:dc="http://purl.org/dc/elements/1.1/"
   xmlns:cc="http://creativecommons.org/ns#"
   xmlns:rdf="http://www.w3.org/1999/02/22-rdf-syntax-ns#"
   xmlns:svg="http://www.w3.org/2000/svg"
   xmlns="http://www.w3.org/2000/svg"
   xmlns:xlink="http://www.w3.org/1999/xlink"
   xmlns:sodipodi="http://sodipodi.sourceforge.net/DTD/sodipodi-0.dtd"
   xmlns:inkscape="http://www.inkscape.org/namespaces/inkscape"
   width="300"
   height="300"
   id="svg3192"
   version="1.1"
   inkscape:version="0.48.3.1 r9886"
   sodipodi:docname="Nuovo documento 2">
  <defs
     id="defs3194">
    <linearGradient
       inkscape:collect="always"
       xlink:href="#linearGradient3707"
       id="linearGradient4958"
       gradientUnits="userSpaceOnUse"
       x1="737.08258"
       y1="802.53125"
       x2="737.08258"
       y2="592.37677" />
    <linearGradient
       id="linearGradient3707">
      <stop
         id="stop3709"
         offset="0"
         style="stop-color:#6791d3;stop-opacity:1;" />
      <stop
         id="stop3711"
         offset="1"
         style="stop-color:#2b4374;stop-opacity:1;" />
    </linearGradient>
    <linearGradient
       inkscape:collect="always"
       xlink:href="#linearGradient3648"
       id="linearGradient4960"
       gradientUnits="userSpaceOnUse"
       x1="824.69788"
       y1="413.20364"
       x2="768.01453"
       y2="575.01593" />
    <linearGradient
       id="linearGradient3648">
      <stop
         style="stop-color:#ffffff;stop-opacity:1;"
         offset="0"
         id="stop3650" />
      <stop
         style="stop-color:#ffffff;stop-opacity:0.64705884;"
         offset="1"
         id="stop3652" />
    </linearGradient>
    <clipPath
       clipPathUnits="userSpaceOnUse"
       id="clipPath3664">
      <path
         inkscape:connector-curvature="0"
         sodipodi:nodetypes="csccsccsccscc"
         id="path3666"
         d="m 704.55558,439.10629 c -15.90627,-0.002 -31.71526,6.72675 -42.96269,18.28553 -11.24743,11.55878 -17.79472,27.80538 -17.79299,44.15197 l 0,206.1875 c -0.002,16.34659 6.54556,32.59319 17.79299,44.15197 11.24743,11.55878 27.05642,18.28731 42.96269,18.28553 l 202.54939,0 c 15.90629,0.002 31.71517,-6.72678 42.96262,-18.28556 11.24745,-11.55878 17.79472,-27.80537 17.79296,-44.15194 l 0,-206.1875 c 0,-16.34657 -6.54551,-32.59316 -17.79296,-44.15194 -11.24745,-11.55878 -27.05633,-18.28731 -42.96262,-18.28556 l -202.54939,0 z"
         style="font-size:medium;font-style:normal;font-variant:normal;font-weight:normal;font-stretch:normal;text-indent:0;text-align:start;text-decoration:none;line-height:normal;letter-spacing:normal;word-spacing:normal;text-transform:none;direction:ltr;block-progression:tb;writing-mode:lr-tb;text-anchor:start;color:#000000;fill:url(#linearGradient3668);fill-opacity:1;fill-rule:nonzero;stroke:none;stroke-width:124.8489151;marker:none;visibility:visible;display:inline;overflow:visible;enable-background:accumulate;font-family:Bitstream Vera Sans;-inkscape-font-specification:Bitstream Vera Sans" />
    </clipPath>
  </defs>
  <sodipodi:namedview
     id="base"
     pagecolor="#ffffff"
     bordercolor="#666666"
     borderopacity="1.0"
     inkscape:pageopacity="0.0"
     inkscape:pageshadow="2"
     inkscape:zoom="0.35"
     inkscape:cx="375"
     inkscape:cy="62.857143"
     inkscape:document-units="px"
     inkscape:current-layer="layer1"
     showgrid="false"
     inkscape:window-width="1366"
     inkscape:window-height="744"
     inkscape:window-x="0"
     inkscape:window-y="24"
     inkscape:window-maximized="1" />
  <metadata
     id="metadata3197">
    <rdf:RDF>
      <cc:Work
         rdf:about="">
        <dc:format>image/svg+xml</dc:format>
        <dc:type
           rdf:resource="http://purl.org/dc/dcmitype/StillImage" />
        <dc:title></dc:title>
      </cc:Work>
    </rdf:RDF>
  </metadata>
  <g
     inkscape:label="Livello 1"
     inkscape:groupmode="layer"
     id="layer1"
     transform="translate(0,-752.36218)">
    <g
       id="g4937"
       transform="translate(-1234.8002,-936.32342)"
       inkscape:export-filename="/home/stanley/Pictures/inkscape/facebook_small.png"
       inkscape:export-xdpi="7.7497087"
       inkscape:export-ydpi="7.7497087">
      <g
         transform="matrix(0.8698961,0,0,0.8698961,745.04356,1288.8475)"
         id="g3808">
        <path
           inkscape:connector-curvature="0"
           style="font-size:medium;font-style:normal;font-variant:normal;font-weight:normal;font-stretch:normal;text-indent:0;text-align:start;text-decoration:none;line-height:normal;letter-spacing:normal;word-spacing:normal;text-transform:none;direction:ltr;block-progression:tb;writing-mode:lr-tb;text-anchor:start;color:#000000;fill:url(#linearGradient4958);fill-opacity:1;fill-rule:nonzero;stroke:none;stroke-width:124.8489151;marker:none;visibility:visible;display:inline;overflow:visible;enable-background:accumulate;font-family:Bitstream Vera Sans;-inkscape-font-specification:Bitstream Vera Sans"
           d="m 633.00447,471.46875 c -16.34659,-0.002 -32.59319,6.72675 -44.15197,18.28553 -11.55878,11.55878 -18.28731,27.80538 -18.28553,44.15197 l 0,206.1875 c -0.002,16.34659 6.72675,32.59319 18.28553,44.15197 11.55878,11.55878 27.80538,18.28731 44.15197,18.28553 l 208.1563,0 c 16.3466,0.002 32.5931,-6.72678 44.1519,-18.28556 11.5588,-11.55878 18.2873,-27.80537 18.2855,-44.15194 l 0,-206.1875 c 0,-16.34657 -6.7267,-32.59316 -18.2855,-44.15194 -11.5588,-11.55878 -27.8053,-18.28731 -44.1519,-18.28556 l -208.1563,0 z"
           id="rect2844"
           sodipodi:nodetypes="csccsccsccscc" />
        <path
           inkscape:connector-curvature="0"
           sodipodi:nodetypes="csccsccsccscc"
           id="path3622"
           d="m 641.80489,485.46547 c -14.96433,-0.002 -29.83719,6.15796 -40.41859,16.73937 -10.58141,10.58142 -16.741,25.45426 -16.73938,40.41865 l 0,188.75302 c -0.002,14.96439 6.15797,29.83723 16.73938,40.41865 10.5814,10.58141 25.45426,16.741 40.41859,16.73937 l 190.55536,0 c 14.96444,0.002 29.83715,-6.15798 40.41864,-16.73939 10.5814,-10.58142 16.74103,-25.45426 16.73936,-40.41863 l 0,-188.75302 c 0,-14.96437 -6.15796,-29.83721 -16.73936,-40.41863 -10.58149,-10.58141 -25.4542,-16.741 -40.41864,-16.73939 l -190.55536,0 z"
           style="font-size:medium;font-style:normal;font-variant:normal;font-weight:normal;font-stretch:normal;text-indent:0;text-align:start;text-decoration:none;line-height:normal;letter-spacing:normal;word-spacing:normal;text-transform:none;direction:ltr;block-progression:tb;writing-mode:lr-tb;text-anchor:start;opacity:0.46341463;color:#000000;fill:none;stroke:#ffffff;stroke-width:12.49501038;stroke-miterlimit:4;stroke-opacity:1;stroke-dasharray:none;marker:none;visibility:visible;display:inline;overflow:visible;enable-background:accumulate;font-family:Bitstream Vera Sans;-inkscape-font-specification:Bitstream Vera Sans" />
        <path
           sodipodi:type="arc"
           style="opacity:0.38500001;fill:url(#linearGradient4960);fill-opacity:1;stroke:none"
           id="path3638"
           sodipodi:cx="805.01617"
           sodipodi:cy="470.24246"
           sodipodi:rx="233.81876"
           sodipodi:ry="104.77346"
           d="m 1038.8349,470.24246 c 0,57.86479 -104.68419,104.77346 -233.81873,104.77346 -129.13453,0 -233.81875,-46.90867 -233.81875,-104.77346 0,-57.86478 104.68422,-104.77346 233.81875,-104.77346 129.13454,0 233.81873,46.90868 233.81873,104.77346 z"
           transform="matrix(1.0276817,0,0,1,-91.054409,32.362459)"
           clip-path="url(#clipPath3664)" />
      </g>
      <path
         inkscape:connector-curvature="0"
         sodipodi:nodetypes="csscccccscccccccccccc"
         id="path4921"
         d="m 1402.5618,1848.7002 -23.066,0 0.3494,-38.2178 22.5923,0 0.2857,-17.9423 c 0.2497,-15.6826 0.4614,-18.5703 1.689,-23.0607 4.1087,-15.0287 12.4726,-23.7753 26.8153,-28.0421 7.1488,-2.1267 14.3369,-2.7102 33.386,-2.7102 l 17.6409,0 -0.1747,18.9304 -0.1747,18.9304 -13.6164,0.3293 c -14.8939,0.3601 -15.3279,0.4735 -18.607,4.8608 -1.2487,1.6708 -1.3747,2.8953 -1.5707,15.2683 l -0.2131,13.4361 34.3363,0 -3.9504,38.2178 -30.2889,0 0,109.9492 -45.433,0 0,-109.9492 z"
         style="fill:#ffffff;fill-opacity:1" />
    </g>
  </g>
</svg>
