<?xml version="1.0" encoding="UTF-8" standalone="no"?>
<!-- Created with Inkscape (http://www.inkscape.org/) -->

<svg
   xmlns:dc="http://purl.org/dc/elements/1.1/"
   xmlns:cc="http://creativecommons.org/ns#"
   xmlns:rdf="http://www.w3.org/1999/02/22-rdf-syntax-ns#"
   xmlns:svg="http://www.w3.org/2000/svg"
   xmlns="http://www.w3.org/2000/svg"
   xmlns:sodipodi="http://sodipodi.sourceforge.net/DTD/sodipodi-0.dtd"
   xmlns:inkscape="http://www.inkscape.org/namespaces/inkscape"
   width="1052.3622"
   height="744.09448"
   id="svg2"
   version="1.1"
   inkscape:version="0.48.3.1 r9886"
   sodipodi:docname="logo.svg">
  <defs
     id="defs4" />
  <sodipodi:namedview
     id="base"
     pagecolor="#ffffff"
     bordercolor="#666666"
     borderopacity="1.0"
     inkscape:pageopacity="0.0"
     inkscape:pageshadow="2"
     inkscape:zoom="0.35"
     inkscape:cx="375"
     inkscape:cy="520"
     inkscape:document-units="px"
     inkscape:current-layer="layer1"
     showgrid="false"
     inkscape:window-width="1366"
     inkscape:window-height="744"
     inkscape:window-x="0"
     inkscape:window-y="24"
     inkscape:window-maximized="1" />
  <metadata
     id="metadata7">
    <rdf:RDF>
      <cc:Work
         rdf:about="">
        <dc:format>image/svg+xml</dc:format>
        <dc:type
           rdf:resource="http://purl.org/dc/dcmitype/StillImage" />
        <dc:title />
      </cc:Work>
    </rdf:RDF>
  </metadata>
  <g
     inkscape:label="Livello 1"
     inkscape:groupmode="layer"
     id="layer1"
     transform="translate(0,-308.2677)">
    <path
       style="fill:#800000"
       d="m 55.474831,736.21388 c -1.30938,-0.41782 -3.99193,-2.63626 -5.27189,-4.35982 -0.256323,-0.34518 -0.837752,-1.12302 -1.292078,-1.72857 -0.454294,-0.60553 -1.051475,-1.64058 -1.32703,-2.30006 -0.275555,-0.6595 -0.962307,-1.76911 -1.52612,-2.46582 -0.563814,-0.69669 -1.141703,-1.46307 -1.284185,-1.70305 -0.386285,-0.65068 -0.462839,-1.89386 -0.116668,-1.89386 0.371184,0 0.06345,-2.42411 -0.543617,-4.28286 -0.583201,-1.78549 -0.549615,-2.31202 0.198656,-3.11515 1.020191,-1.09508 2.012103,-0.86542 3.81409,0.88308 1.864186,1.80884 3.406461,2.4087 5.102318,1.98452 1.106527,-0.27681 1.152324,-0.34553 1.535848,-2.30482 0.639955,-3.26933 0.857977,-10.48192 0.449074,-14.85713 -0.202509,-2.16686 -0.425154,-8.41374 -0.494817,-13.88192 -0.06965,-5.46819 -0.156619,-11.41018 -0.193282,-13.20442 -0.03671,-1.79426 -0.03442,-13.71395 0.0049,-26.48823 0.06777,-21.98606 -0.04786,-27.26158 -0.597558,-27.26158 -0.130336,0 -0.242744,-1.71269 -0.249761,-3.80598 -0.01834,-5.45777 -0.33577,-11.94156 -0.673056,-13.74814 -0.874877,-4.68589 -1.351323,-6.86835 -1.56008,-7.14593 -0.128473,-0.17088 -0.334554,-0.86994 -0.45796,-1.55346 -0.411143,-2.27762 -0.999779,-3.19009 -3.018783,-4.67946 -2.305553,-1.70076 -3.14113,-2.06782 -4.13783,-1.81765 -0.818677,0.20546 -2.496477,2.40592 -2.200108,2.88544 0.341668,0.55282 -0.757034,2.73714 -1.561009,3.10344 -1.652673,0.75299 -3.498714,0.0264 -2.620726,-1.03162 0.206515,-0.24884 0.292675,-0.58644 0.191483,-0.7502 -0.101228,-0.16376 -0.03281,-0.34816 0.15208,-0.4098 0.184865,-0.0617 0.379077,-0.82937 0.431556,-1.70611 0.05251,-0.87675 0.16339,-1.71209 0.246405,-1.85633 0.08302,-0.14425 0.243803,-0.8215 0.357298,-1.50503 0.372114,-2.24126 0.920087,-4.19434 1.176749,-4.19434 0.138596,0 0.251969,-0.34953 0.251969,-0.77673 0,-0.4272 0.139811,-0.77673 0.310696,-0.77673 0.170879,0 0.31069,-0.20972 0.31069,-0.46603 0,-0.25633 0.148074,-0.46605 0.329025,-0.46605 0.180979,0 0.258899,-0.11343 0.173209,-0.25212 -0.231033,-0.3738 3.207805,-3.55622 5.2942,-4.89947 2.159965,-1.3906 4.421712,-2.30503 5.701272,-2.30503 0.906601,0 4.121207,0.94945 5.512706,1.62819 0.384483,0.18753 0.699056,0.51913 0.699056,0.7369 0,0.21776 0.260676,0.5786 0.579289,0.8019 0.627262,0.43959 1.906254,2.63715 1.906254,3.27529 0,0.21614 0.20971,0.39296 0.46604,0.39296 0.25632,0 0.46604,-0.1239 0.46604,-0.27537 0,-0.42568 2.85802,-3.32631 3.71397,-3.76935 3.36913,-1.74389 11.56275,-1.38575 14.61688,0.63891 0.4272,0.28318 1.30006,0.85077 1.93969,1.26128 0.74289,0.47679 1.16377,0.98518 1.16509,1.40744 0,0.36354 0.21186,0.83505 0.46818,1.04778 0.25633,0.21272 0.46604,0.57922 0.46604,0.81441 0,0.23518 0.51914,1.44141 1.15364,2.6805 1.08594,2.12067 1.4993,4.20856 0.94329,4.76456 -0.12052,0.12053 -0.90662,0.2852 -1.74693,0.36594 -1.33662,0.12844 -1.55309,0.0671 -1.73002,-0.49037 -0.36185,-1.14003 -5.1256,-2.98882 -5.15036,-1.99887 -0.01,0.38098 4.43368,61.43609 4.47394,61.47712 0.15696,0.16014 57.141384,0.68408 57.545224,0.52914 0.48222,-0.18504 0.50689,-1.2707 0.32418,-14.26848 -0.11047,-7.85866 -0.0776,-14.38491 0.0746,-14.78579 0.14978,-0.39471 0.32426,-4.80697 0.38775,-9.80505 0.0634,-4.99809 0.23925,-9.08757 0.39065,-9.08775 0.42542,0 0.0466,-9.42095 -0.38462,-9.56472 -0.19617,-0.0654 -0.35667,-0.31696 -0.35667,-0.55902 0,-0.24208 -0.13039,-0.44015 -0.28975,-0.44015 -0.15937,0 -0.36752,-0.24502 -0.46257,-0.54449 -0.31406,-0.98949 -1.46941,-1.4281 -3.65919,-1.38908 -2.25396,0.0401 -3.4475,0.499 -4.62661,1.77869 -1.04204,1.13092 -1.93563,1.43893 -3.04879,1.05088 -1.13703,-0.39636 -1.3303,-1.28061 -0.60325,-2.76016 0.29389,-0.59809 0.69014,-1.9962 0.88053,-3.10693 0.19041,-1.11072 0.61857,-2.61217 0.95148,-3.33655 0.33292,-0.72439 0.60531,-1.42486 0.60531,-1.55663 0,-0.13177 0.34952,-0.61655 0.77672,-1.07727 0.4272,-0.4607 0.77673,-0.91887 0.77673,-1.01814 0,-0.0993 0.62531,-0.78822 1.38955,-1.531 0.99229,-0.96438 2.19345,-1.67223 4.20125,-2.47584 2.48508,-0.99465 3.01257,-1.10179 4.54086,-0.92213 3.31506,0.3896 5.99501,1.82771 7.58515,4.07025 1.7141,2.41737 2.20039,2.5149 3.11038,0.62372 0.87004,-1.80817 2.77666,-3.11393 5.90621,-4.04488 4.04648,-1.20371 4.82474,-1.24457 7.93979,-0.41685 3.60112,0.95687 6.30967,2.20464 7.156,3.29663 0.19866,0.25632 0.64849,0.79428 0.9996,1.19548 0.35112,0.4012 0.86605,1.41483 1.14429,2.25252 0.5806,1.74802 1.38803,2.07221 1.38803,0.55726 0,-2.03221 4.81491,-7.11218 6.74108,-7.11218 0.3175,0 0.85305,-0.18779 1.19011,-0.41732 0.39379,-0.26817 1.44573,-0.40357 2.94304,-0.3788 2.02678,0.0335 2.66082,0.19692 4.8694,1.25491 1.97029,0.94386 2.70123,1.47934 3.26228,2.38995 0.39768,0.64546 0.82792,1.17731 0.95607,1.18191 0.12817,0.005 0.23303,0.21331 0.23303,0.46385 0,0.75998 1.02141,2.65142 1.43181,2.65142 0.21157,0 0.77987,-0.32511 1.2629,-0.72248 0.81495,-0.67041 3.25007,-2.2812 5.0726,-3.35542 1.00094,-0.58995 3.546,-1.35117 6.67988,-1.99787 1.36705,-0.28211 2.90497,-0.6295 3.41762,-0.77193 0.51264,-0.14244 2.05057,-0.40613 3.41762,-0.58598 1.36704,-0.1799 2.97487,-0.39744 3.57296,-0.48351 3.61696,-0.52047 7.69299,-0.80404 13.36663,-0.92991 3.54202,-0.0786 8.79934,-0.24513 11.68296,-0.37011 8.95665,-0.38831 11.04264,-0.26797 14.40835,0.83128 0.93984,0.30694 2.40787,0.72208 3.26226,0.92248 2.07112,0.48583 4.55445,2.09493 6.16975,3.99774 0.19515,0.22988 0.66188,0.75299 1.03716,1.16252 1.57753,1.72136 3.51008,4.97294 3.65923,6.15674 0.12355,0.98051 1.12591,3.29238 1.42748,3.29238 0.14547,0 0.43404,-0.5942 0.64125,-1.32045 0.20723,-0.72624 0.54956,-1.53015 0.76072,-1.78648 0.21118,-0.25632 0.72691,-1.23499 1.14605,-2.17485 1.28511,-2.88151 1.45314,-3.22591 2.12227,-4.34969 1.09713,-1.84255 2.12411,-2.70501 3.87794,-3.25665 1.46781,-0.46168 2.03411,-0.48331 4.40219,-0.1682 1.49472,0.19893 2.92754,0.5278 3.18404,0.73084 0.25648,0.20304 0.97056,0.62387 1.58684,0.93512 1.51725,0.76632 4.00591,3.38279 4.00591,4.21162 0,0.67324 0.92386,0.32899 1.37105,-0.5109 0.59143,-1.11078 4.48471,-4.8533 5.64854,-5.42978 0.49668,-0.24604 1.67204,-0.60796 2.61188,-0.8043 4.49846,-0.93972 4.61713,-0.94575 6.62001,-0.33663 2.16912,0.65966 3.35655,0.74191 3.833,0.26545 0.22547,-0.22546 0.86244,-0.12315 2.08788,0.33533 1.52991,0.57242 1.91252,0.89291 2.88956,2.42027 0.61939,0.96825 1.30345,2.53003 1.52012,3.47062 0.21668,0.94059 0.62241,2.40923 0.90164,3.26364 0.27921,0.85441 0.63648,1.97289 0.79387,2.48554 0.1574,0.51264 0.3825,2.86763 0.50024,5.23333 0.23487,4.71917 0.19248,4.85022 -1.57218,4.85942 -0.6089,0.004 -1.38352,-0.39169 -2.33021,-1.18787 -1.88018,-1.58121 -2.55851,-1.9143 -3.89866,-1.9143 -1.50117,0 -3.88865,1.25896 -3.88865,2.05051 0,0.12692 -0.24467,0.50127 -0.54372,0.83194 -0.49978,0.55259 -0.54797,1.77168 -0.59653,15.09303 -0.0291,7.97054 -0.0357,17.91726 -0.0148,22.10385 0.043,8.64442 -0.004,14.83015 -0.13459,17.55412 -0.049,1.02529 0.021,3.33218 0.15576,5.12643 0.13469,1.79424 0.30819,4.43404 0.38555,5.86618 0.0774,1.43214 0.2119,2.71921 0.299,2.86014 0.0871,0.14093 0.22903,5.68014 0.3154,12.30933 0.37767,28.98969 0.54895,34.16639 1.17428,35.49238 0.1968,0.41732 1.18576,1.2415 2.1977,1.83154 1.52381,0.88845 2.40445,1.14785 5.12643,1.50993 1.80759,0.24047 3.9157,0.37926 4.68466,0.30845 0.76897,-0.0708 4.31189,0.0642 7.87317,0.30006 3.92338,0.25987 8.57595,0.35905 11.80628,0.2517 2.93224,-0.0975 9.03633,-0.22978 13.56465,-0.29409 4.52833,-0.0643 8.85494,-0.25804 9.61471,-0.43047 0.75983,-0.17244 1.50036,-0.24001 1.64573,-0.15017 0.14538,0.0898 0.85201,-0.10846 1.5702,-0.44068 0.71818,-0.33225 1.68228,-0.69474 2.14239,-0.80553 0.96736,-0.23295 4.57173,-3.64063 5.30377,-5.01432 1.57569,-2.95684 2.61805,-5.94165 2.76567,-7.9194 0.057,-0.76716 0.30991,-1.64099 0.56154,-1.94184 0.58673,-0.70159 1.94674,-0.70331 2.57525,-0.004 0.69224,0.77102 2.09375,4.71476 2.09375,5.89154 0,0.40284 0.26128,0.71544 0.69903,0.83626 0.3845,0.1061 1.25832,0.96398 1.94185,1.90637 1.51483,2.08858 3.36886,3.55572 4.214,3.3347 0.33497,-0.0876 0.96742,-0.5851 1.40532,-1.10558 0.74298,-0.88294 0.79298,-1.14548 0.74726,-3.9241 -0.0272,-1.63782 0.10788,-6.05372 0.29958,-9.81309 0.19178,-3.75938 0.40291,-10.29238 0.46915,-14.51779 0.0665,-4.2254 0.2146,-7.83474 0.32961,-8.02078 0.24272,-0.39284 0.21255,-12.73869 -0.0346,-14.12315 -0.0915,-0.51264 -0.21562,-10.59995 -0.27574,-22.41627 -0.099,-19.44702 -0.2449,-27.77066 -0.63931,-36.45995 -0.12256,-2.69938 -0.2178,-3.62547 -0.65466,-6.36674 -0.0815,-0.51128 -0.34994,-1.04252 -0.59653,-1.18053 -0.24659,-0.13801 -0.44836,-0.52358 -0.44836,-0.85687 0,-0.33327 -0.14809,-0.60594 -0.32905,-0.60594 -0.18098,0 -0.243,-0.13918 -0.13784,-0.30933 0.18865,-0.30518 -0.9586,-1.5461 -2.18017,-2.35818 -0.34516,-0.22944 -1.43358,-0.51189 -2.4186,-0.62769 -1.54044,-0.18104 -1.88744,-0.12282 -2.4794,0.4161 -0.96519,0.87871 -1.91591,1.32563 -2.81995,1.32563 -1.01675,0 -1.1732,-0.77548 -0.45244,-2.24303 0.31215,-0.63559 0.77505,-1.96379 1.02864,-2.95158 0.47981,-1.86912 2.91363,-6.92239 3.334,-6.92239 0.13253,0 0.24096,-0.20971 0.24096,-0.46603 0,-0.25632 0.12282,-0.46604 0.27301,-0.46604 0.15013,0 0.44979,-0.4268 0.66581,-0.94845 0.23607,-0.56988 0.86452,-1.18909 1.57454,-1.55129 0.64992,-0.33153 1.29398,-0.78612 1.43128,-1.01012 0.41609,-0.6788 2.31745,-1.38641 4.28872,-1.5961 1.99274,-0.21195 5.63596,0.60303 6.64456,1.48643 0.27574,0.24152 0.81594,0.53497 1.20044,0.65213 0.38443,0.11717 0.69903,0.34344 0.69903,0.5028 0,0.64465 1.03298,0.21472 2.6516,-1.10364 2.33655,-1.90315 3.10766,-2.25547 6.43594,-2.94028 2.77294,-0.57054 2.96594,-0.57242 5.20711,-0.0504 2.9516,0.68746 5.80457,2.56222 7.31722,4.80843 0.58776,0.87279 1.06865,1.75339 1.06865,1.9569 0,0.2035 0.42872,0.70553 0.95275,1.11557 1.01417,0.79373 1.26233,1.48662 2.03051,5.66865 1.25954,6.85745 1.34085,8.50046 0.46004,9.29759 -0.90928,0.82287 -1.9854,0.51867 -2.36956,-0.66982 -0.9878,-3.056 -5.71679,-4.70845 -7.87788,-2.75273 -0.52525,0.47533 -1.27386,3.57119 -1.27386,5.26804 0,0.45022 -0.14856,0.81858 -0.33022,0.81858 -0.18159,0 -0.29707,0.24466 -0.25665,0.54371 0.0408,0.29904 -0.0313,2.43117 -0.16019,4.73806 -0.3756,6.73941 -0.64754,32.49188 -0.50848,48.15733 0.0313,3.50306 0.0686,8.32656 0.0832,10.71889 0.0143,2.39233 0.0401,5.88762 0.0557,7.76731 0.0164,1.87969 -0.0779,4.3963 -0.20882,5.59246 -0.29205,2.66861 -0.46317,8.65509 -0.67376,23.5701 -0.17927,12.6961 -0.25705,12.14683 1.88785,13.32796 1.413,0.7781 3.39323,1.09112 9.22572,1.45845 2.36433,0.14891 4.61297,0.34959 4.99692,0.44597 1.77074,0.44444 22.31023,0.7552 28.60888,0.43289 2.39231,-0.12245 6.39917,-0.1116 8.90412,0.0239 3.16016,0.17116 5.20508,0.13381 6.67989,-0.12198 2.89604,-0.50229 4.79977,-1.11402 4.98727,-1.60252 0.0859,-0.22395 0.33607,-0.4072 0.55583,-0.4072 0.21969,0 0.48001,-0.20971 0.57837,-0.46603 0.0984,-0.25633 0.35801,-0.46775 0.57695,-0.46989 0.79339,-0.007 2.43322,-2.98367 3.63399,-6.59498 0.38295,-1.15158 0.82511,-2.17348 0.98265,-2.27084 0.15761,-0.0974 0.28654,-0.44846 0.28654,-0.78012 0,-0.33167 0.13981,-0.60307 0.31065,-0.60307 0.17092,0 0.31535,-0.38447 0.32106,-0.8544 0.006,-0.46992 0.28898,-1.18902 0.62953,-1.59799 l 0.61921,-0.74357 1.10498,0.58823 c 1.37415,0.73156 1.33624,0.66712 1.86965,3.17332 1.09058,5.12441 1.50063,12.26321 0.83292,14.503 -0.20374,0.68353 -0.61615,2.29136 -0.91641,3.57297 -0.3002,1.2816 -0.72777,2.60599 -0.94997,2.94303 -0.22221,0.33706 -0.404,0.81292 -0.404,1.05743 0,0.40522 -1.04956,2.67631 -1.96182,4.24507 -0.20265,0.34846 -1.04352,1.41386 -1.86863,2.3675 -1.66027,1.91899 -4.67159,3.65642 -7.69194,4.43803 -1.51986,0.39333 -8.32432,1.20346 -9.60472,1.14356 -8.4051,-0.39328 -20.94974,-0.47359 -29.67113,-0.19002 -10.11864,0.32903 -20.20324,0.20177 -21.49375,-0.27121 -0.6527,-0.23926 -1.78262,-0.61445 -2.51072,-0.8338 -1.71251,-0.51584 -4.14715,-2.96334 -5.36708,-5.39542 -0.50651,-1.00984 -0.9241,-1.98852 -0.9279,-2.17484 -0.006,-0.18633 -0.25353,-0.65921 -0.55487,-1.05089 l -0.54802,-0.71215 -1.05254,2.57434 c -1.04997,2.56797 -3.34311,5.51306 -4.82825,6.20084 -0.34177,0.15827 -0.97088,0.48939 -1.39812,0.73587 -0.99141,0.57202 -2.49448,0.57854 -3.79539,0.0165 -0.56119,-0.24243 -1.6829,-0.73177 -2.49272,-1.08742 -0.80983,-0.35561 -1.58419,-0.64661 -1.7208,-0.64661 -0.54509,0 -2.73572,-1.29407 -4.32106,-2.55262 -1.76611,-1.40206 -3.06831,-3.17469 -4.0909,-5.56882 -0.33871,-0.79285 -0.74597,-1.52205 -0.90513,-1.62042 -0.15917,-0.0983 -0.47309,0.58709 -0.69767,1.52317 -0.22453,0.93608 -0.59523,1.85717 -0.82375,2.04681 -0.22853,0.18965 -0.41548,0.58038 -0.41548,0.86827 0,1.35446 -5.0506,6.31796 -7.63305,7.50144 -2.64434,1.21183 -5.36497,1.46663 -16.13495,1.5111 -5.1264,0.0211 -12.32671,0.11284 -16.00064,0.20371 -3.67393,0.0909 -7.09931,0.1742 -7.61195,0.1852 -4.77498,0.10216 -21.83927,-0.17212 -22.343,-0.35912 -0.35654,-0.13236 -1.48712,-0.49341 -2.51241,-0.80236 -2.58105,-0.7777 -5.18761,-2.42261 -6.28626,-3.96702 -0.90545,-1.27288 -2.25019,-4.12827 -2.79765,-5.9405 -0.32273,-1.06838 -1.01358,-1.43693 -1.01358,-0.5407 0,0.33983 -0.26653,1.15541 -0.59229,1.81236 -0.32576,0.65696 -0.81621,1.70725 -1.08988,2.33402 -0.27366,0.62672 -0.88095,1.47432 -1.34953,1.88351 -0.46858,0.40921 -0.99966,1.01491 -1.1802,1.34601 -0.18053,0.3311 -1.07942,0.98648 -1.99753,1.45641 -1.98617,1.01658 -4.1371,1.12179 -6.92754,0.33883 -1.69582,-0.47582 -1.95394,-0.6734 -3.34843,-2.56321 -0.83104,-1.1262 -1.86555,-2.74671 -2.29891,-3.60111 -1.96884,-3.88164 -3.45593,-6.49757 -3.74387,-6.58578 -0.17251,-0.0529 -0.91922,1.30248 -1.65934,3.01182 -0.74014,1.70937 -1.46946,3.10792 -1.62074,3.10792 -0.15129,0 -0.52339,0.48406 -0.8269,1.07565 -0.8622,1.68059 -4.33037,5.0567 -5.62622,5.47685 -0.62593,0.20295 -1.50144,0.62372 -1.94558,0.93503 -0.44414,0.31132 -2.05198,0.94628 -3.57297,1.41102 -2.66953,0.81565 -3.05097,0.84799 -10.99878,0.93241 -4.52834,0.0481 -12.84714,0.19621 -18.4862,0.32912 -13.08739,0.30851 -15.43574,0.30584 -19.41828,-0.022 -7.66466,-0.63111 -9.05945,-0.909 -10.79675,-2.15108 -0.76647,-0.54797 -1.69167,-1.2007 -2.05598,-1.45053 -1.08113,-0.74134 -4.33675,-3.37655 -5.08039,-4.11223 -0.78854,-0.78009 -0.71296,-0.82766 -1.47774,0.93011 -0.31941,0.73411 -0.82889,1.62086 -1.13217,1.97054 -0.30328,0.34972 -0.59372,0.72777 -0.64542,0.84012 -0.23948,0.52053 -2.49809,1.93661 -4.30822,2.70109 -5.17268,2.18467 -9.12364,0.8553 -11.95064,-4.02098 -0.645,-1.11256 -0.86352,-1.86775 -0.80912,-2.79624 0.0881,-1.50353 -0.2583,-1.24963 -1.01978,0.74744 -0.94158,2.46951 -2.83725,5.02539 -4.28634,5.77916 -1.27159,0.66147 -5.00812,1.36677 -7.24069,1.36677 -2.35469,0 -4.67456,-0.45867 -6.5776,-1.30047 -1.50925,-0.66761 -5.23071,-4.19126 -6.919,-6.55123 -0.58332,-0.81538 -1.20225,-1.4353 -1.3754,-1.37757 -0.17315,0.0577 -0.81138,1.02485 -1.41829,2.14918 -2.35376,4.36054 -5.2586,6.387 -9.57994,6.6832 -3.40291,0.23324 -5.87285,-0.61292 -8.0881,-2.77087 -0.88601,-0.8631 -1.61094,-1.67143 -1.61094,-1.79626 0,-0.12487 -0.31457,-0.57886 -0.69905,-1.00889 -1.15632,-1.29335 -1.7207,-2.02301 -2.07106,-2.67767 -0.18301,-0.34195 -0.50842,-0.8074 -0.72314,-1.03433 -1.48214,-1.56639 -2.27915,-6.85446 -1.22116,-8.10223 0.65861,-0.77673 1.99392,-0.67853 2.82667,0.20791 0.9322,0.99225 3.54553,2.09525 5.37108,2.26694 1.18986,0.11188 1.75809,-0.027 3.03603,-0.74141 1.57036,-0.87801 2.13331,-1.84529 2.31983,-3.98596 0.0298,-0.34177 0.15933,-0.93473 0.2879,-1.31764 0.12859,-0.38297 0.13162,-0.86159 0.006,-1.06364 -0.31974,-0.51733 -0.35669,-2.11612 -0.0734,-3.17319 0.13216,-0.49308 0.10604,-1.14376 -0.0582,-1.45072 -0.2022,-0.37784 -0.18551,-0.59411 0.0519,-0.67327 0.259,-0.0864 0.25292,-2.69463 -0.0234,-10.04487 -0.20528,-5.46058 -0.43679,-10.12249 -0.51448,-10.35982 -0.0777,-0.23734 -0.22277,-4.01225 -0.32243,-8.3887 -0.0996,-4.37644 -0.20751,-7.98657 -0.23971,-8.02248 -0.20075,-0.22392 -53.645174,-0.68347 -54.402704,-0.46778 -0.93183,0.26533 -0.93208,0.26604 -1.01274,2.88478 -0.0443,1.44067 -0.21461,2.89901 -0.37835,3.24077 -0.42683,0.89094 -0.80905,29.4067 -0.44141,32.9334 0.88073,8.44866 1.3971,9.43793 5.35736,10.2637 2.49833,0.52089 5.12332,0.2779 6.89501,-0.63826 1.11983,-0.5791 3.0182,-0.40096 3.29054,0.30877 0.0895,0.23307 -0.0769,0.78944 -0.36975,1.23631 -0.29281,0.44689 -0.58327,1.47181 -0.64549,2.27761 -0.0622,0.80582 -0.2429,1.74473 -0.40155,2.0865 -0.56975,1.22735 -2.36162,4.89454 -2.86334,5.86 -0.75638,1.4555 -3.42628,4.09067 -4.97188,4.90716 -2.54033,1.34203 -4.32397,1.77391 -7.40999,1.79416 -3.28662,0.0215 -3.50252,-0.0638 -6.49903,-2.57077 -1.47622,-1.23506 -2.66387,-2.74487 -4.61894,-5.87192 -0.29313,-0.46884 -0.68607,-0.85333 -0.87317,-0.85441 -0.41984,-0.004 -1.15145,0.81408 -1.71809,1.91741 -1.03511,2.01552 -4.74057,5.8389 -6.48574,6.69216 -1.44015,0.70409 -5.305449,0.83762 -7.155806,0.24719 z M 177.44702,720.56287 c 0.54165,-0.49139 2.76947,-0.86997 3.67952,-0.62527 1.49012,0.40065 2.98026,-0.66796 4.38702,-3.14597 0.69801,-1.22958 0.7126,-2.85155 0.33828,-37.59378 -0.21026,-19.51619 -0.22204,-30.8821 -0.0341,-32.93341 0.12521,-1.36674 0.14404,-5.57556 0.0896,-20.03966 -0.0148,-3.93027 0.003,-12.7384 0.0384,-19.57363 0.0806,-15.33547 0.006,-16.64995 -1.0904,-19.44659 -1.81884,-4.63592 -5.60679,-5.85931 -7.09722,-2.29216 -0.27499,0.65811 -0.72462,1.12676 -1.19415,1.2446 -1.09428,0.27466 -2.94351,-0.58432 -3.06879,-1.42541 -0.0566,-0.37937 -0.39333,-0.88169 -0.74852,-1.11627 -0.57632,-0.38062 -0.76456,-0.33433 -1.75007,0.43043 -0.99431,0.77158 -1.8942,2.32958 -1.71283,2.96544 0.0384,0.13441 -0.11086,0.35594 -0.33153,0.49233 -0.27114,0.16755 -0.44,1.26967 -0.52076,3.39882 -0.0658,1.73294 -0.22171,3.31616 -0.34662,3.51827 -0.1249,0.20209 -0.2725,1.84826 -0.32798,3.6581 -0.0555,1.80987 -0.24333,5.73737 -0.41741,8.72779 -0.17408,2.99041 -0.3167,10.0509 -0.31695,15.68996 -2.4e-4,5.63907 -0.0331,10.46257 -0.0729,10.7189 -0.0399,0.25631 0.0402,1.97768 0.17801,3.82524 0.18023,2.41654 0.14966,3.48075 -0.10897,3.79237 -0.19773,0.23824 -0.24965,0.61095 -0.11535,0.82821 0.13428,0.21727 0.27577,3.26429 0.31443,6.77118 0.0387,3.50687 0.14572,10.69648 0.23791,15.97695 0.0922,5.28044 0.088,9.72968 -0.009,9.88714 -0.25231,0.40825 -0.12511,8.7344 0.13646,8.93178 0.36257,0.27357 0.38408,0.9236 0.50418,15.23254 0.10926,13.01779 0.24713,15.87592 0.80186,16.62205 0.12704,0.17088 0.32823,0.98237 0.44709,1.80328 0.22837,1.57745 1.21387,2.76946 2.91385,3.5245 0.97233,0.43186 4.7666,0.54304 5.19732,0.15227 z m -19.83303,-6.15398 c 1.44099,-0.68377 2.80387,-2.61354 3.06214,-4.33584 0.54863,-3.65852 -2.87007,-7.08043 -6.50078,-6.50685 -4.55307,0.71928 -6.49565,6.26693 -3.36598,9.61263 0.45906,0.49074 1.25408,1.07947 1.76672,1.30829 1.29536,0.57817 3.73442,0.54033 5.0379,-0.0782 z m 110.62642,-0.35704 c 3.72938,-0.61654 8.90144,-2.7524 9.5286,-3.93499 0.95656,-1.80366 2.12844,-3.26739 2.61592,-3.26739 0.30274,0 0.85434,0.34953 1.22579,0.77672 0.37145,0.42721 0.886,0.77674 1.14345,0.77674 0.25745,0 0.4681,0.14187 0.4681,0.31525 0,0.63963 2.01623,1.54661 3.41761,1.53741 2.65706,-0.0174 3.48791,-1.42568 4.02591,-6.82374 0.19585,-1.96513 0.47396,-4.09807 0.61802,-4.73986 0.14405,-0.64183 0.16974,-1.22391 0.057,-1.29354 -0.11266,-0.0696 -0.10299,-1.64167 0.0215,-3.49345 0.12447,-1.8518 0.15451,-4.55528 0.0668,-6.00777 -0.0877,-1.4525 -0.21364,-3.54966 -0.27974,-4.66039 -0.13794,-2.31811 -0.52058,-22.98443 -0.57524,-31.06924 -0.028,-4.12899 0.24416,-17.14122 0.48724,-23.30195 0.0102,-0.25631 -0.0935,-2.00395 -0.23031,-3.88364 -0.13679,-1.87969 -0.23502,-3.76715 -0.21832,-4.19436 0.0167,-0.4272 0.18471,-4.0623 0.37333,-8.078 0.32653,-6.95136 0.27262,-11.8928 -0.17454,-16.00066 -0.829,-7.61565 -7.72236,-9.16801 -12.51621,-2.8186 -0.71888,0.95215 -1.43292,1.73118 -1.58676,1.73118 -0.15382,0 -0.36169,0.2584 -0.46193,0.57425 -0.24327,0.76643 -1.40644,1.2657 -2.23481,0.95927 -0.46521,-0.17213 -0.86607,-0.84665 -1.32788,-2.23441 -0.94396,-2.83656 -2.62903,-4.25885 -6.73495,-5.68458 -3.39559,-1.17909 -10.33303,-1.74827 -15.19411,-1.24659 -0.8544,0.0882 -4.24948,0.29814 -7.54462,0.46662 -3.29512,0.16846 -6.13316,0.39405 -6.30675,0.50133 -0.17359,0.10728 -1.81173,0.2443 -3.64032,0.30448 -12.39237,0.40772 -14.32019,0.53358 -16.56974,1.0818 -2.15024,0.52399 -5.20632,2.10043 -6.42847,3.31602 -0.22579,0.22461 -0.58412,0.40835 -0.79626,0.40835 -0.21215,0 -0.79629,0.42853 -1.29811,0.95233 -0.87951,0.91804 -0.91268,1.06071 -0.92048,3.96132 -0.005,2.28786 0.12798,3.29285 0.55971,4.19336 0.43193,0.90098 0.51589,1.53069 0.35079,2.63159 -0.11937,0.79598 -0.25226,3.89811 -0.29531,6.89366 -0.0431,2.9955 -0.22004,6.91442 -0.39331,8.70868 -0.43577,4.51267 -0.47718,21.64519 -0.0529,21.90737 0.34375,0.21247 2.24446,0.53845 7.14015,1.22455 5.9262,0.83052 19.85635,0.0184 24.54469,-1.43133 2.73211,-0.84469 3.05372,-1.12677 3.27147,-2.86962 0.27289,-2.1842 -0.27442,-4.16745 -1.25273,-4.5394 -0.41041,-0.15606 -0.96511,-0.70705 -1.23268,-1.22447 -1.07277,-2.07449 1.23086,-2.95671 3.71899,-1.42426 0.73722,0.45408 1.72595,0.7694 2.43058,0.77515 0.99352,0.008 1.50857,0.29309 3.14891,1.74215 2.66682,2.35589 4.24545,4.59066 5.55532,7.86434 0.65653,1.64086 0.20849,6.10394 -0.90269,8.99185 -1.35097,3.51107 -1.8145,4.54971 -2.12824,4.76894 -0.18161,0.12691 0.0466,0.99371 0.57271,2.17484 1.56033,3.50337 1.69239,4.03733 1.52299,6.15821 -0.16873,2.11258 -0.92702,4.66039 -1.38706,4.66039 -0.14767,0 -0.26848,0.30137 -0.26848,0.66973 0,1.17826 -2.93658,4.67962 -5.12642,6.11231 -2.58604,1.69191 -5.28978,2.331 -6.1638,1.45698 -0.68228,-0.68227 -0.65369,-1.76644 0.0709,-2.68754 0.93587,-1.1898 1.58499,-3.02614 1.53357,-4.33851 -0.0261,-0.66712 -0.17267,-1.21297 -0.32563,-1.21297 -0.15294,0 -0.19169,-0.13981 -0.0861,-0.31069 0.10562,-0.17088 0.0439,-0.31069 -0.137,-0.31069 -0.18098,0 -0.32905,-0.14653 -0.32905,-0.32562 0,-0.40389 -1.43019,-1.71129 -2.53148,-2.31413 -1.70933,-0.93568 -3.90023,-1.19983 -10.36225,-1.24935 -3.58851,-0.0273 -9.51975,-0.0762 -13.18056,-0.10831 -3.66081,-0.0321 -6.7749,0.0606 -6.92018,0.2059 -0.14529,0.14528 -0.34784,0.60343 -0.45012,1.01807 -0.20078,0.81402 -0.19136,12.1175 0.02,23.97502 0.0769,4.31624 0.0128,7.44913 -0.15469,7.55262 -0.37125,0.22945 -0.37393,8.0594 -0.004,8.76613 0.15573,0.29671 0.5244,1.23855 0.81925,2.09294 0.56352,1.63288 1.169,2.50444 2.07779,2.99079 0.30043,0.16079 2.39918,0.36098 4.66387,0.4448 2.26468,0.0839 4.66221,0.22388 5.32785,0.31116 0.66563,0.0874 2.6929,0.23395 4.50504,0.32591 1.81214,0.092 3.78414,0.30057 4.38222,0.46352 0.59808,0.16296 2.97488,0.38098 5.28178,0.48447 2.30688,0.10351 4.22147,0.20844 4.25466,0.23319 0.29898,0.22308 27.42844,-0.13492 28.9208,-0.38164 z m -196.9989,-1.5071 c 1.44099,-0.68379 2.80387,-2.61355 3.06212,-4.33585 0.57985,-3.86662 -3.20924,-7.37183 -6.90135,-6.38435 -2.73048,0.73028 -4.46095,2.9032 -4.46095,5.60144 0,2.1518 1.54426,4.5412 3.41777,5.28829 1.21729,0.4854 3.68264,0.39981 4.88241,-0.16953 z m 85.92342,-22.36999 c 2.27785,-1.15323 3.5274,-4.59576 2.57416,-7.0918 -1.69792,-4.44592 -7.63424,-5.10527 -10.15648,-1.12813 -1.00748,1.58866 -1.19016,3.69091 -0.47043,5.41354 0.5182,1.24018 2.40864,2.94154 3.54728,3.19243 0.46679,0.10287 0.98851,0.23336 1.1594,0.28997 0.52026,0.17237 2.43403,-0.2143 3.34607,-0.67601 z m -86.41562,-4.3226 c 1.71739,-0.87855 3.07169,-3.27542 3.05771,-5.41155 -0.0142,-2.17864 -2.09354,-4.67654 -4.41251,-5.30098 -3.48965,-0.93965 -7.07456,1.88003 -7.07456,5.56442 0,4.32891 4.57211,7.12128 8.42936,5.14811 z m 85.77846,-21.89193 c 4.22281,-1.1728 5.58333,-6.52507 2.45407,-9.65433 -2.68646,-2.68646 -6.99134,-2.1461 -8.90402,1.11766 -1.46124,2.49343 -0.68204,6.22879 1.5926,7.63459 1.90405,1.17677 3.08116,1.39537 4.85735,0.90208 z M 69.6142,663.31666 c 3.56177,-0.9888 5.24265,-5.63337 3.15812,-8.72657 -2.00801,-2.97969 -5.78124,-3.46623 -8.48323,-1.09382 -3.34595,2.93779 -2.28561,8.19933 1.95716,9.71184 1.48194,0.5283 1.81716,0.53911 3.36795,0.10855 z m 27.882,0.0221 c 4.22282,-1.17277 5.58333,-6.52508 2.45407,-9.65434 -3.5697,-3.5697 -9.66802,-1.0288 -9.66802,4.02828 0,2.49306 1.53631,4.64331 3.9263,5.49532 1.46933,0.52379 1.8219,0.5378 3.28765,0.13074 z m 29.28541,-0.0221 c 2.29856,-0.63812 4.20954,-3.31231 4.19279,-5.86729 -0.008,-1.20452 -1.04294,-3.20143 -2.1362,-4.12136 -3.6874,-3.10274 -9.35085,-0.41842 -9.35085,4.43205 0,2.5514 1.73206,4.83232 4.24046,5.5842 1.23067,0.36888 1.63904,0.36519 3.0538,-0.0276 z M 68.37143,637.21851 c 3.56177,-0.98881 5.24264,-5.63339 3.15812,-8.72658 -2.00801,-2.97969 -5.78124,-3.46624 -8.48324,-1.09383 -3.345937,2.93779 -2.28561,8.19933 1.95718,9.71185 1.48193,0.5283 1.81714,0.53912 3.36794,0.10856 z m 86.91357,0.022 c 4.22281,-1.17277 5.58333,-6.52508 2.45407,-9.65433 -3.66351,-3.66351 -9.67191,-1.02101 -9.66643,4.25132 0.003,2.46662 1.67704,4.68151 4.05549,5.36436 1.43031,0.4106 1.80124,0.41514 3.15687,0.0386 z M 67.04837,610.52096 c 3.97342,-1.10351 5.50747,-6.13207 2.83837,-9.30412 -1.12994,-1.34284 -2.47914,-1.9559 -4.30453,-1.9559 -5.24728,0 -7.744536,6.28187 -3.92892,9.88319 1.61327,1.52267 3.31043,1.95581 5.39508,1.37683 z m 89.49753,-2.49054 c 2.65531,-0.73736 4.53533,-3.61043 4.13023,-6.31183 -0.26638,-1.77639 -1.75109,-3.82935 -3.2259,-4.46053 -5.29359,-2.26557 -10.31087,3.51232 -7.24624,8.34473 0.78722,1.24131 1.67751,1.89483 3.45953,2.53938 0.74906,0.27093 1.62689,0.23692 2.88238,-0.11175 z m 380.66744,123.49463 c -1.0253,-0.21941 -3.47196,-0.54215 -5.43712,-0.7172 -1.96515,-0.17505 -4.0623,-0.48857 -4.66038,-0.6967 -2.26936,-0.78978 -5.1781,-1.87099 -6.52451,-2.42521 -0.769,-0.31652 -2.02732,-0.83438 -2.79625,-1.15083 -1.66007,-0.68312 -3.72834,-1.98243 -3.72834,-2.34222 0,-0.14053 -0.18838,-0.25551 -0.41874,-0.25551 -0.73564,0 -5.68998,-5.55624 -6.7398,-7.55871 -0.55291,-1.05455 -1.33848,-2.36639 -1.74573,-2.91514 -2.05116,-2.76385 -4.47059,-10.42084 -4.59334,-14.53689 -0.036,-1.19617 -0.1593,-5.74004 -0.27465,-10.09751 -0.386,-14.5793 -0.81648,-18.54527 -2.34048,-21.56174 -1.32448,-2.62166 -2.56697,-3.81844 -4.56806,-4.40019 -0.92491,-0.26887 -1.80402,-0.70756 -1.95361,-0.97482 -0.41466,-0.74101 0.28913,-2.23286 1.36803,-2.8996 0.83951,-0.5189 1.20281,-0.55171 3.10819,-0.28087 6.60338,0.93866 9.42952,1.63604 12.96331,3.19886 2.96234,1.3101 7.36974,4.55916 7.36974,5.43288 0,0.17096 0.49407,0.95809 1.09799,1.74921 1.06444,1.39455 2.29083,4.15377 2.46283,5.54114 0.0462,0.37401 0.29822,1.44898 0.5597,2.38882 0.59366,2.13371 1.04806,5.71162 1.44819,11.40273 0.17057,2.42666 0.43836,4.66364 0.59508,4.97107 0.15673,0.30741 0.49857,1.04827 0.75969,1.64637 1.33013,3.0463 4.07189,5.35102 8.01354,6.73615 1.5469,0.54358 2.9817,1.12871 3.18835,1.30024 0.20672,0.17157 0.95982,0.38231 1.67346,0.46834 0.7137,0.0861 1.5492,0.28643 1.85665,0.44532 0.65766,0.33992 2.07671,0.61197 5.15515,0.98838 1.23154,0.15056 2.58864,0.35822 3.01587,0.46147 1.71529,0.41449 8.13044,0.75379 11.49563,0.60799 5.89858,-0.25557 12.60203,-2.13856 15.33014,-4.30622 1.64411,-1.30632 3.00242,-3.40299 2.99311,-4.62007 -0.0211,-2.76737 -1.30492,-5.30532 -3.81679,-7.54538 -4.31549,-3.84855 -4.32099,-3.85244 -8.91405,-6.26151 -1.96509,-1.03073 -4.34192,-2.31494 -5.28176,-2.85385 -0.93985,-0.53884 -2.12249,-1.14908 -2.62819,-1.35601 -1.09731,-0.44897 -8.42404,-4.14541 -12.67621,-6.39519 -1.66762,-0.88234 -3.76476,-1.89237 -4.66039,-2.24451 -0.89556,-0.35217 -2.04776,-0.94664 -2.56038,-1.32113 -0.51268,-0.37447 -1.28162,-0.83696 -1.70884,-1.0278 -3.07586,-1.37388 -7.82041,-3.77007 -8.85475,-4.47195 -0.68347,-0.46383 -2.01169,-1.32343 -2.95154,-1.9102 -0.93984,-0.58677 -2.30006,-1.44205 -3.0226,-1.90062 -0.7226,-0.4586 -1.38969,-0.83379 -1.48241,-0.83379 -0.0928,0 -0.69,-0.32615 -1.32714,-0.72477 -2.22079,-1.38949 -4.90073,-2.94283 -6.90623,-4.00294 -2.6434,-1.39733 -4.65957,-2.67944 -4.66378,-2.96581 0,-0.12601 -0.53015,-0.78838 -1.17415,-1.4719 -1.51822,-1.61154 -3.48284,-4.04453 -3.48284,-4.31316 0,-0.11558 -0.56397,-0.92357 -1.25322,-1.79552 -2.97646,-3.76553 -5.00412,-10.24306 -5.4793,-17.50395 -0.13418,-2.05057 -0.22126,-4.07783 -0.19355,-4.50504 0.0985,-1.51575 0.73251,-6.31724 1.00045,-7.57644 0.14959,-0.70308 0.36927,-2.24535 0.48823,-3.42729 0.11888,-1.18197 0.32587,-2.44027 0.45997,-2.79623 0.1341,-0.35599 0.49428,-1.76573 0.80038,-3.13278 0.30611,-1.36704 0.79543,-2.97488 1.08733,-3.57296 0.29184,-0.59807 1.12898,-2.55544 1.86027,-4.3497 0.73129,-1.79425 1.63765,-3.6817 2.01413,-4.19434 0.37642,-0.51264 1.14201,-1.87581 1.70131,-3.02925 0.55929,-1.15344 1.12123,-2.09718 1.24867,-2.09718 0.12751,0 0.31581,-0.24467 0.41852,-0.54371 0.35577,-1.03629 1.602,-2.86284 3.14807,-4.61417 0.85439,-0.96782 1.67971,-2.02079 1.83392,-2.33991 0.15434,-0.3191 0.39393,-0.58021 0.53259,-0.58021 0.13865,0 1.34024,-0.97869 2.67016,-2.17485 1.32998,-1.19616 2.57804,-2.17485 2.77356,-2.17485 0.1955,0 0.9914,-0.52429 1.76861,-1.1651 1.40791,-1.16078 1.9356,-1.46786 5.17905,-3.0135 0.93985,-0.44785 2.25469,-1.10031 2.92199,-1.44984 1.53406,-0.80367 8.50217,-3.02719 10.71106,-3.41793 0.91935,-0.16262 1.93786,-0.43823 2.26345,-0.61246 1.43304,-0.76695 6.84986,-1.49055 11.3491,-1.51605 18.05602,-0.10238 27.1774,0.40852 30.54318,1.71078 0.59809,0.23141 1.57679,0.51025 2.17487,0.61968 0.59808,0.10943 1.97548,0.46629 3.06084,0.79305 1.08542,0.32672 2.27378,0.64988 2.64088,0.71807 3.213,0.5969 7.02362,2.01906 9.9882,3.72772 0.85446,0.49244 2.47119,1.42601 3.59276,2.07459 2.27642,1.3164 6.14878,4.77929 7.39725,6.61513 4.1519,6.10542 4.79883,7.54175 5.33603,11.8486 0.14926,1.19617 0.36501,2.52438 0.47947,2.95158 0.11447,0.42721 0.18838,2.52438 0.1642,4.66039 -0.0401,3.55379 -0.47234,6.22243 -1.25751,7.76731 -0.13029,0.25632 -0.41445,1.20925 -0.63149,2.11761 -0.55604,2.32744 -2.2693,6.33378 -3.65321,8.54274 -1.26804,2.02408 -2.93605,3.82401 -5.81273,6.27239 -1.00391,0.8544 -2.17397,1.86803 -2.60026,2.25252 -0.42627,0.38449 -0.88652,0.69906 -1.0228,0.69906 -0.13626,0 -0.48965,0.40946 -0.78522,0.90995 -0.66289,1.12209 -1.52068,1.37867 -2.48879,0.74439 -0.91879,-0.60206 -0.94962,-1.68014 -0.0704,-2.46058 0.83252,-0.73893 2.58443,-3.43922 2.90378,-4.47554 0.13159,-0.4272 0.49645,-1.14204 0.81071,-1.58853 0.31425,-0.44647 0.48239,-0.90086 0.37349,-1.00976 -0.1089,-0.10886 -0.0265,-0.19793 0.18288,-0.19793 0.20943,0 0.30176,-0.12789 0.20516,-0.28416 -0.0966,-0.15629 -0.0116,-0.33882 0.18885,-0.40565 0.2345,-0.0782 0.49339,-1.77716 0.726,-4.76459 0.28999,-3.72524 0.27953,-5.28802 -0.053,-7.90538 -0.61303,-4.82351 -1.21464,-6.61642 -3.4179,-10.18556 -0.9393,-1.52162 -3.32598,-3.81328 -5.38285,-5.16868 -3.07048,-2.02325 -2.87571,-1.92981 -10.11087,-4.8513 -1.20358,-0.48596 -3.65029,-1.18673 -5.43713,-1.55726 -2.89149,-0.59957 -3.8812,-0.65456 -8.99672,-0.4999 -3.16132,0.0956 -6.23622,0.32029 -6.83321,0.49937 -0.59693,0.17905 -1.78534,0.32661 -2.64088,0.32791 -2.86174,0.004 -8.71406,1.1239 -11.82388,2.26196 -2.01366,0.73694 -7.23979,3.55867 -9.44134,5.09766 -2.85481,1.99563 -7.76817,5.94474 -8.87398,7.13238 -1.52617,1.63911 -3.5115,4.5709 -3.7566,5.54745 -0.12581,0.50129 -0.49496,1.36262 -0.82035,1.91408 -0.42017,0.71219 -0.69142,2.11 -0.93646,4.82574 -0.30305,3.35926 -0.27566,4.19055 0.2252,6.8516 0.3135,1.66565 0.69618,3.02847 0.85031,3.02847 0.15408,0 0.19484,0.1382 0.0905,0.30713 -0.61248,0.99107 4.10993,8.12348 6.57397,9.92882 0.59577,0.4365 1.59683,1.27155 2.22459,1.85564 1.20023,1.11673 7.27967,5.1822 9.57226,6.40117 0.73965,0.39327 2.29102,1.33657 3.44751,2.09625 1.15655,0.75963 3.08149,1.90523 4.27765,2.54571 1.19615,0.6405 3.92249,2.31662 6.0585,3.72471 2.13601,1.40812 4.72247,3.02916 5.74778,3.60232 1.0253,0.57317 2.84284,1.69467 4.03899,2.49219 1.19616,0.79756 2.73409,1.75119 3.41764,2.11921 0.68353,0.36801 2.10754,1.29474 3.16443,2.05938 1.05697,0.76465 2.90418,1.88337 4.10503,2.48602 1.20085,0.60267 2.29348,1.29236 2.42805,1.53261 0.31345,0.55969 2.14945,1.88367 4.905,3.53705 1.19616,0.71773 3.06275,1.86179 4.1479,2.54239 1.08516,0.68058 2.03452,1.23743 2.10979,1.23743 0.0751,0 0.51554,0.25775 0.9785,0.5728 0.46302,0.31501 1.47101,0.97883 2.23995,1.47517 3.86046,2.49165 6.8497,4.73153 8.41453,6.30515 0.95405,0.95942 2.73783,2.71589 3.964,3.90326 3.76089,3.64203 7.27973,9.59735 8.63758,14.61851 0.94515,3.49508 0.69426,13.64712 -0.38926,15.75224 -0.2375,0.46141 -0.43416,1.16047 -0.43694,1.55346 0,0.39296 -0.34095,1.27372 -0.7514,1.95724 -0.41046,0.68352 -1.12334,2.0022 -1.5842,2.93043 -1.21144,2.43998 -5.88439,6.85158 -7.26145,6.85523 -0.24014,0 -0.8694,0.33123 -1.39833,0.73463 -1.1412,0.87048 -8.53281,3.43987 -11.28531,3.92297 -4.13606,0.7259 -8.63008,1.02677 -16.3954,1.0977 -4.44292,0.0406 -9.61593,0.21267 -11.49562,0.38243 -5.11831,0.46225 -24.11445,0.38861 -26.40887,-0.10237 z m 23.83383,-7.3513 c 2.16576,-1.21722 3.36728,-4.08495 2.71948,-6.49064 -1.18625,-4.4053 -7.07606,-5.65554 -10.0414,-2.13145 -3.0999,3.68401 -0.43143,9.31158 4.41753,9.31622 1.15247,0 2.04831,-0.21302 2.90439,-0.69413 z m -22.99125,-1.24276 c 2.16576,-1.21723 3.36728,-4.08496 2.71955,-6.49066 -1.18632,-4.4053 -7.07614,-5.65553 -10.04147,-2.13144 -3.0999,3.68401 -0.43143,9.31158 4.41752,9.31621 1.15255,0 2.04838,-0.213 2.9044,-0.69411 z m 47.22526,-1.86416 c 2.13349,-1.19912 3.36742,-4.08451 2.74122,-6.41008 -1.16261,-4.31732 -6.50856,-5.73256 -9.67884,-2.56222 -3.61673,3.61667 -1.10282,9.66801 4.01638,9.66801 1.16762,0 2.06257,-0.21314 2.92124,-0.69571 z m -66.34782,-10.65797 c 2.9582,-1.73364 3.66992,-5.89821 1.45742,-8.52766 -2.64849,-3.14757 -7.76225,-2.59823 -9.64147,1.03572 -0.72783,1.40747 -0.66078,3.82752 0.14925,5.38828 1.44235,2.77905 5.20248,3.76354 8.0348,2.10366 z m 82.50383,-1.14834 c 3.24956,-1.82638 3.8583,-6.32747 1.21347,-8.9723 -3.17883,-3.17886 -8.51643,-1.7547 -9.68467,2.58399 -0.40678,1.51054 0.008,3.588 0.99222,4.97024 1.48494,2.08543 5.07905,2.76688 7.47898,1.41807 z m -87.7413,-19.73115 c 2.20367,-1.0232 3.52971,-4.10281 2.8514,-6.62201 -0.73211,-2.7189 -3.75266,-4.64319 -6.54727,-4.17104 -4.61929,0.78043 -6.39036,6.47098 -3.05269,9.80862 1.79695,1.79692 4.23335,2.15232 6.74856,0.98443 z m 74.67785,-1.35943 c 2.16882,-1.08448 3.41729,-3.9892 2.76146,-6.42482 -1.1683,-4.33869 -6.5059,-5.76284 -9.68474,-2.58399 -2.29354,2.29352 -2.26997,5.80802 0.0544,8.13254 1.83635,1.83634 4.31609,2.15269 6.86874,0.87627 z M 568.37778,674.0018 c 1.34364,-0.63307 2.41201,-2.07021 2.85786,-3.84407 1.456,-5.79292 -6.17909,-9.5431 -10.05383,-4.93824 -1.89634,2.25373 -1.71319,5.63024 0.42125,7.76467 1.82929,1.82932 4.27296,2.19642 6.77472,1.01764 z m -23.61264,-13.67047 c 1.98813,-0.93677 3.41689,-3.8756 2.99014,-6.15053 -0.25605,-1.36465 -1.71789,-3.40901 -2.84619,-3.98021 -4.53423,-2.29556 -9.67741,1.50452 -8.47881,6.26468 0.9923,3.94088 4.61236,5.61999 8.33486,3.86606 z m -20.91855,-12.54946 c 2.79257,-0.77527 4.60596,-3.92927 3.89213,-6.76948 -0.85888,-3.41713 -3.72244,-5.17049 -7.06846,-4.32795 -3.9299,0.98958 -5.55118,5.83669 -3.04936,9.11677 1.52868,2.00412 3.67802,2.68796 6.22569,1.98066 z M 510.79748,626.0334 c 1.64709,-0.45728 3.42618,-2.27812 3.88282,-3.97407 0.82151,-3.05088 -1.102,-6.3659 -4.13717,-7.13017 -5.31789,-1.33905 -9.30492,4.75292 -5.97127,9.12358 1.52862,2.00413 3.67801,2.68796 6.22562,1.98066 z m 6.83524,-24.23402 c 0.67967,-0.18867 1.74975,-0.85706 2.37805,-1.48528 3.62842,-3.62845 1.07734,-9.73549 -4.06679,-9.73549 -6.41793,0 -8.01815,8.9628 -1.98437,11.11416 1.47454,0.52572 2.09836,0.54383 3.67311,0.10661 z m 16.15601,-15.53461 c 1.65205,-0.45864 3.42611,-2.27781 3.88568,-3.98454 0.68597,-2.54771 -0.53123,-5.39017 -2.80508,-6.55018 -3.91543,-1.9975 -8.5481,0.80178 -8.4856,5.12736 0.0367,2.55029 1.38386,4.46351 3.73189,5.30073 1.47454,0.52572 2.09836,0.54383 3.67311,0.10663 z m 47.22526,-5.59247 c 2.52105,-0.69989 4.54483,-3.85349 4.0312,-6.28167 -0.87321,-4.12804 -5.17946,-6.16122 -8.6909,-4.1034 -1.53603,0.90016 -2.17398,1.78308 -2.64768,3.66438 -0.67898,2.69655 0.93224,5.66217 3.58603,6.60055 1.52604,0.53954 2.13934,0.55936 3.72135,0.12014 z m -23.61263,-1.24276 c 2.52105,-0.69991 4.54483,-3.8535 4.03119,-6.28168 -0.87321,-4.12805 -5.17945,-6.16122 -8.6909,-4.10341 -1.53601,0.90017 -2.17397,1.7831 -2.64767,3.6644 -0.67899,2.69653 0.93225,5.66215 3.5861,6.60054 1.52597,0.53955 2.13927,0.55937 3.72128,0.12015 z m 66.49517,149.72462 c -2.85114,-1.19969 -5.79798,-5.94958 -7.66987,-12.3627 -0.17451,-0.59809 -0.42247,-1.22724 -0.55086,-1.39812 -0.53164,-0.70727 -0.5379,-1.79288 -0.0225,-3.77613 0.66445,-2.55376 1.4293,-3.26627 2.64855,-2.46735 0.42811,0.28048 0.77838,0.65372 0.77838,0.82938 0,0.51286 2.04008,1.22065 3.48535,1.20921 1.90836,-0.0153 3.64879,-0.92834 4.19728,-2.20236 1.25961,-2.92576 1.63677,-8.58251 1.41639,-21.24438 -0.19985,-11.48515 -0.2222,-13.90738 -0.13735,-14.91323 0.0291,-0.34177 0.0625,-5.09536 0.0754,-10.56355 0.013,-5.46819 0.0825,-11.20047 0.1553,-12.73839 0.25135,-5.31098 0.38647,-12.1743 0.54699,-27.78516 0.12616,-12.26932 0.0665,-16.52269 -0.27608,-19.60724 -0.24041,-2.1665 -0.50486,-5.69149 -0.58761,-7.8333 -0.15999,-4.14048 -0.59386,-6.51219 -1.29819,-7.09679 -0.23737,-0.19697 -0.43152,-0.55617 -0.43152,-0.79826 0,-0.53116 -1.73397,-2.25625 -4.129,-4.10782 -2.21645,-1.71369 -3.17409,-2.2112 -4.25605,-2.2112 -1.11654,0 -3.48881,0.83241 -3.89159,1.36553 -0.1733,0.22941 -0.76234,0.51532 -1.309,0.63536 -0.89582,0.19677 -1.0143,0.13655 -1.2018,-0.61039 -0.11561,-0.4606 0.0251,-1.81593 0.31705,-3.05143 0.28872,-1.22247 0.65066,-2.80676 0.80425,-3.52058 0.1536,-0.71384 0.48328,-1.78601 0.73253,-2.38261 0.50928,-1.2189 3.40192,-3.68248 5.32177,-4.53244 2.5722,-1.13872 9.47999,-1.61591 11.80778,-0.81566 0.66797,0.22966 2.01956,1.06176 3.00357,1.84916 0.984,0.78737 1.8856,1.4316 2.00361,1.4316 0.11793,0 0.64713,-0.32269 1.1759,-0.71705 0.52873,-0.3944 1.49968,-0.98859 2.15761,-1.32044 0.65793,-0.33188 1.63664,-0.84416 2.17487,-1.13844 1.11443,-0.6093 6.02507,-2.25699 8.62581,-2.89425 1.98988,-0.4876 1.89518,-0.48506 20.47047,-0.54487 l 13.82579,-0.0445 3.03312,0.84425 c 1.66829,0.4643 3.37883,0.84422 3.8013,0.84422 1.2393,0 7.51778,1.88991 10.15994,3.05827 0.7351,0.32504 2.40855,1.04209 3.71891,1.59345 1.31028,0.55132 2.65922,1.26035 2.99759,1.57558 0.33837,0.31523 1.09317,0.77288 1.67746,1.017 0.58429,0.2441 2.08336,1.5601 3.33135,2.92441 3.2234,3.52391 5.3789,7.4721 6.88117,12.60448 0.49007,1.67433 1.08854,3.6317 1.32992,4.3497 0.24129,0.71801 0.52145,1.90955 0.62252,2.64785 0.10103,0.73832 0.31603,1.85682 0.4777,2.48553 0.27799,1.0813 1.10425,6.8838 1.91021,13.41552 0.77341,6.26762 -0.58443,19.27942 -2.52737,24.21924 -1.84566,4.69252 -5.15276,10.27122 -7.65227,12.9085 -2.26738,2.39244 -5.73997,5.29352 -7.95205,6.64348 -2.27894,1.39075 -7.38313,3.22092 -10.46924,3.75385 -4.87539,0.84188 -6.07786,0.97604 -9.94215,1.10908 -2.30685,0.0794 -4.54387,0.21124 -4.97103,0.29298 -0.42723,0.0817 -2.72321,0.2282 -5.10222,0.32549 -2.379,0.0973 -4.45202,0.25507 -4.60671,0.35067 -0.15469,0.0956 -3.73079,0.21627 -7.94689,0.26816 -4.2161,0.0519 -7.90763,0.19071 -8.20334,0.30845 -0.29572,0.11779 -0.55073,0.51479 -0.56669,0.88225 -0.161,3.70476 -0.36678,14.36797 -0.34863,18.06692 0.0591,12.05005 0.0258,18.19359 -0.10795,20.13449 -0.17031,2.46299 0.5061,6.22842 1.48908,8.28998 0.65963,1.38337 2.43178,3.42151 2.97505,3.42151 0.1557,0 0.44237,0.19201 0.63713,0.42667 0.80297,0.9675 5.88629,1.33958 6.42364,0.4702 0.29293,-0.47402 1.25642,-0.30153 1.82495,0.32667 0.50624,0.55934 0.5116,0.74161 0.0756,2.56321 -0.25822,1.0786 -0.55788,2.48489 -0.66602,3.12512 -0.10815,0.64025 -0.53986,1.53449 -0.95948,1.98719 -0.41954,0.45275 -0.76533,0.97751 -0.76845,1.16613 -0.006,0.35003 -1.1647,2.20613 -2.6936,4.314 -1.00119,1.38024 -3.12279,2.70693 -4.71581,2.94896 -0.62098,0.0943 -2.80671,0.22846 -4.85732,0.29809 -3.46246,0.11756 -5.50166,-0.15335 -6.52452,-0.86678 -0.17085,-0.11918 -0.66024,-0.32243 -1.0874,-0.45166 -0.82973,-0.25094 -4.93748,-2.63733 -4.5398,-2.63733 0.1303,0 -0.32954,-0.5942 -1.02178,-1.32044 l -1.25851,-1.32046 -0.99855,1.24278 c -1.76448,2.19607 -3.70674,3.85174 -5.46008,4.65441 -2.20774,1.01076 -5.11887,1.04872 -7.38238,0.0963 z m 52.9731,-92.68168 c 9.62436,-0.077 10.9964,-0.15227 13.43701,-0.73658 2.6957,-0.64538 5.43617,-1.93708 6.61243,-3.11678 2.58232,-2.58969 4.80596,-5.93662 4.80596,-7.23361 0,-0.40998 0.15815,-0.90361 0.35148,-1.09692 0.59318,-0.59321 0.18927,-6.83704 -0.53143,-8.21509 -0.6938,-1.32656 -2.59123,-2.92681 -3.7975,-3.20283 -0.97151,-0.2223 -2.00368,-1.00988 -2.47324,-1.88721 -0.44583,-0.83313 0.26475,-2.49207 1.19379,-2.78691 1.03244,-0.32769 3.58881,-3.00666 4.50135,-4.71724 0.71282,-1.33626 0.77634,-1.72736 0.61989,-3.81891 -0.16963,-2.26896 -1.09324,-5.24775 -1.93439,-6.23905 -0.22927,-0.2702 -0.35433,-0.55383 -0.27784,-0.6303 0.0765,-0.0765 -0.27234,-0.41465 -0.77517,-0.75151 -0.50278,-0.33687 -0.91459,-0.75548 -0.91506,-0.93021 0,-0.33884 -0.98033,-0.87829 -3.72923,-2.05411 -1.64777,-0.70484 -1.96481,-0.72851 -8.88253,-0.66379 -3.94546,0.0369 -7.49888,0.18747 -7.89642,0.33453 -0.40583,0.15011 -1.37951,0.148 -2.22045,-0.005 -1.59491,-0.28988 -13.31486,-0.0911 -17.56961,0.29805 -1.40151,0.12819 -2.6735,0.37286 -2.82668,0.54374 -0.77844,0.86869 -0.95988,5.23753 -0.86444,20.81639 0.0544,8.88581 0.20773,18.16398 0.34061,20.61818 l 0.24164,4.46219 1.11973,0.48223 c 1.50906,0.64993 4.89978,0.97536 8.11027,0.7784 1.45254,-0.0891 7.46444,-0.2006 13.35983,-0.24779 z m 155.08078,92.9896 c -2.70444,-0.36075 -4.22195,-1.19278 -6.44159,-3.5317 -1.04025,-1.09616 -1.81752,-1.993 -1.72713,-1.993 0.0903,0 -0.0574,-0.17476 -0.32681,-0.38836 -0.27018,-0.21361 -0.94396,-1.22724 -1.49744,-2.25252 -0.55339,-1.0253 -1.19798,-2.08488 -1.43236,-2.35465 -0.23445,-0.26977 -0.42621,-0.63278 -0.42621,-0.80667 0,-0.17391 -0.22642,-0.77004 -0.50324,-1.32477 -0.42334,-0.84863 -0.44818,-1.28202 -0.15685,-2.73255 0.19037,-0.94816 0.50381,-1.9139 0.69656,-2.14608 0.61534,-0.74145 1.70287,-0.47569 2.66568,0.6515 1.33427,1.56213 3.07722,1.90333 5.53115,1.08279 1.02525,-0.34285 2.07582,-0.79353 2.33445,-1.00152 0.93969,-0.75554 1.67542,-2.28494 2.05017,-4.2618 0.21061,-1.11072 0.62173,-3.20789 0.91363,-4.66038 0.42728,-2.12569 0.523,-4.21678 0.49054,-10.71889 -0.0672,-13.50506 -0.0254,-16.3097 0.26773,-17.85463 0.28796,-1.51838 0.15373,-38.22989 -0.14604,-39.93417 -0.27361,-1.55609 -0.46054,-8.90146 -0.42694,-16.77739 0.0721,-16.96589 -0.12022,-24.50633 -0.64247,-25.13555 -0.2606,-0.31398 -1.02181,-0.38125 -3.06002,-0.27048 -1.49218,0.0811 -3.92784,0.0106 -5.41257,-0.15644 -1.48465,-0.16716 -3.238,-0.2054 -3.89629,-0.0851 -0.65837,0.12039 -2.37968,0.0897 -3.82516,-0.0682 -3.26873,-0.35705 -7.63861,0.10838 -11.91497,1.26903 -3.22793,0.87615 -4.18499,1.52549 -6.49765,4.40837 -0.78038,0.97285 -0.85643,1.27099 -0.72966,2.8599 0.26944,3.37623 -1.57725,3.17784 -3.23112,-0.34717 -1.04836,-2.23461 -1.60945,-5.96907 -0.95723,-6.37217 0.19372,-0.11969 0.35229,-0.73364 0.35254,-1.36434 0,-5.14649 3.42132,-13.72982 5.4696,-13.72982 0.58331,0 0.55028,-1.0812 -0.0516,-1.68298 -0.83603,-0.83602 -2.53014,-3.50307 -2.70994,-4.26628 -0.0946,-0.40184 -0.37982,-1.28987 -0.6337,-1.97339 -0.49135,-1.32308 -0.92634,-4.76507 -0.86709,-6.85984 0.0197,-0.69704 0.38532,-2.43437 0.81219,-3.86073 0.42694,-1.42636 0.77621,-2.97267 0.77621,-3.43626 0,-0.46361 0.26936,-1.17298 0.59846,-1.57639 l 0.59847,-0.73347 1.06262,1.0244 c 0.58445,0.56345 1.36525,1.6304 1.73516,2.37103 0.42744,0.85588 1.47556,1.99088 2.87628,3.11471 1.88349,1.51111 2.47811,1.81234 4.09059,2.07202 1.03771,0.16711 2.02248,0.38773 2.18843,0.4903 0.31229,0.193 4.14835,0.44208 6.18779,0.40178 0.63936,-0.0128 1.45614,0.13425 1.81506,0.32639 0.43851,0.23462 3.16892,0.33744 8.31394,0.31305 4.21351,-0.0199 7.94058,-0.0367 8.28238,-0.0373 2.27414,-0.004 31.90869,0.36158 35.50579,0.43766 2.46908,0.0523 7.0848,-0.139 10.40812,-0.43123 6.68685,-0.588 8.7667,-1.13857 11.85887,-3.13921 1.01662,-0.65768 2.00181,-1.1958 2.1894,-1.1958 0.92808,0 3.26367,-2.29001 3.26367,-3.19997 0,-0.90663 0.89245,-1.77111 1.82848,-1.77111 0.88541,0 1.69735,1.78857 2.19908,4.84442 0.32274,1.96591 0.29569,2.40146 -0.25091,4.039 -0.33689,1.00953 -0.85169,2.81416 -1.14399,4.01032 -0.29231,1.19617 -0.6991,2.38457 -0.90396,2.64089 -0.20495,0.25632 -0.97907,1.48915 -1.72038,2.7396 -0.92406,1.5588 -1.96608,2.7797 -3.31485,3.88364 -1.08177,0.88558 -1.96882,1.76428 -1.97102,1.95267 0,0.18844 0.8675,1.16095 1.93283,2.16119 1.06532,1.00021 2.27885,2.31406 2.6967,2.9197 0.90689,1.3142 2.81376,5.55238 2.81915,6.26571 0,0.27732 0.2828,1.13505 0.6239,1.90609 0.52786,1.19324 0.57446,1.64223 0.31377,3.0168 -0.1684,0.88817 -0.59465,2.19752 -0.94717,2.90963 -0.35261,0.7121 -0.93722,1.88891 -1.29915,2.61516 -0.48565,0.97442 -0.84356,1.32044 -1.36585,1.32044 -0.78956,0 -2.29284,-1.72667 -2.29284,-2.63353 0,-1.41364 -2.11365,-4.00815 -3.91425,-4.8046 -2.48216,-1.09799 -5.09773,-1.26704 -18.17413,-1.17467 -14.15992,0.10002 -13.95579,0.0674 -14.54114,2.32044 -0.16669,0.64127 -0.3128,3.1932 -0.32476,5.67098 -0.0115,2.47777 -0.10998,5.85696 -0.21798,7.50927 -0.10785,1.65233 -0.0369,5.91659 0.15865,9.47613 0.19512,3.55954 0.40572,11.575 0.468,17.81215 0.0623,6.23716 0.2229,15.81425 0.35721,21.28244 0.13431,5.46818 0.28739,13.22773 0.34025,17.24343 0.3845,29.2235 0.50939,31.32637 2.00395,33.74462 1.19136,1.92759 3.73977,3.22778 6.3267,3.22778 1.31904,0 2.21661,-0.40657 3.19097,-1.44538 0.83799,-0.89345 1.67821,-0.93074 2.42311,-0.10756 0.51423,0.56811 0.53308,0.87057 0.2179,3.4953 -0.69696,5.8046 -1.29182,7.3371 -3.88211,10.0014 -1.81801,1.87003 -5.04734,3.63884 -8.04597,4.40705 -2.15662,0.5525 -6.95769,0.39144 -8.19585,-0.27496 -2.92742,-1.57555 -5.33398,-3.06383 -5.73176,-3.5446 -0.25928,-0.31327 -0.87004,-1.09388 -1.3573,-1.73469 -0.78522,-1.03252 -2.055,-1.59559 -2.055,-0.91123 0,0.58252 -4.00291,4.32836 -5.43717,5.08803 -3.17235,1.68025 -4.48303,2.02325 -6.63465,1.73628 z m 78.93238,-0.45563 c -0.90587,-0.24038 -2.27977,-0.92003 -3.05306,-1.51028 -0.77329,-0.59028 -1.55837,-1.07322 -1.74469,-1.07322 -0.18621,0 -0.25749,-0.0811 -0.15835,-0.18037 0.0992,-0.0992 -0.36677,-0.67469 -1.03553,-1.27889 -0.66885,-0.60423 -1.21609,-1.26682 -1.21609,-1.47244 0,-0.20562 -0.31451,-0.67425 -0.69901,-1.04141 -1.53133,-1.4623 -2.0972,-2.12243 -2.0972,-2.44664 0,-0.18666 -0.2161,-0.51873 -0.48008,-0.73793 -0.26416,-0.21916 -0.41228,-0.57537 -0.3294,-0.79157 0.22176,-0.5779 -0.41182,-2.64033 -1.11521,-3.62979 -0.60389,-0.84962 -0.60398,-0.87242 -0.0146,-1.86416 0.49122,-0.82746 0.76516,-0.99061 1.55819,-0.92792 0.52923,0.0419 1.46709,0.37401 2.08432,0.73815 0.96262,0.56794 1.46252,0.64062 3.51578,0.51118 2.76724,-0.17442 4.04373,-0.67265 4.29574,-1.67662 0.098,-0.39091 0.3824,-0.8801 0.63185,-1.08711 0.90331,-0.74973 1.38568,-2.55735 1.35726,-5.08623 -0.0676,-5.93369 0.52055,-29.66069 0.78088,-31.53527 0.0831,-0.59809 -0.043,-4.62929 -0.27915,-8.95827 -0.23638,-4.32897 -0.40478,-11.52926 -0.37417,-16.00066 0.0301,-4.47138 -0.0603,-10.227 -0.20103,-12.79021 -0.22158,-4.02174 -0.29586,-12.74429 -0.14692,-17.24343 0.0265,-0.76896 -0.14648,-3.77491 -0.38213,-6.67989 -0.23547,-2.90497 -0.46244,-5.77111 -0.50411,-6.3692 -0.13815,-1.98137 -0.10791,-9.08522 0.063,-14.75322 0.1642,-5.45027 0.0813,-6.39754 -0.90816,-10.38702 -0.46875,-1.88984 -2.55224,-4.06485 -3.89397,-4.06485 -1.23976,0 -4.40795,1.17473 -4.61363,1.7107 -0.27175,0.70808 -1.76643,1.14979 -2.69534,0.79656 -0.90734,-0.34493 -1.07391,-1.08889 -0.41666,-1.86139 0.4152,-0.48809 2.37891,-6.16554 2.37891,-6.87792 0,-0.20549 0.4894,-1.05474 1.08753,-1.88724 0.59804,-0.83248 1.08734,-1.64668 1.08734,-1.80932 0,-0.59264 3.91353,-4.24673 4.97108,-4.64147 0.59804,-0.22323 1.36704,-0.52103 1.70878,-0.66181 2.19187,-0.90277 5.29537,-0.46295 7.61196,1.07873 2.07518,1.3809 4.03907,3.21253 4.03907,3.76686 0,0.70702 0.64016,0.84081 1.65761,0.34649 0.54093,-0.26271 1.47276,-0.70163 2.07079,-0.97532 0.59804,-0.27372 1.29705,-0.61906 1.55335,-0.76742 0.61257,-0.3545 4.67339,-1.45425 6.83529,-1.85113 4.61025,-0.84626 6.69786,-1.02509 13.25628,-1.13551 3.90174,-0.0657 9.40096,-0.21448 12.22047,-0.33055 2.81949,-0.11611 10.08979,-0.25596 16.15609,-0.31078 6.0662,-0.0548 13.0568,-0.16194 15.5345,-0.23807 2.4828,-0.0762 4.6596,-0.0115 4.8493,0.14458 0.1894,0.15562 1.4478,0.56393 2.7963,0.90741 3.89783,0.99259 9.59883,4.07886 11.26213,6.09653 0.8785,1.06579 2.0228,3.06227 2.0523,3.58063 0.01,0.11387 0.3527,0.66805 0.7693,1.23155 1.1835,1.60078 1.2898,3.50558 0.5324,9.53823 -0.05,0.39813 -0.2363,0.81756 -0.4139,0.93209 -0.1778,0.11448 -0.5603,0.67081 -0.8499,1.23623 -0.5948,1.16036 -3.9982,4.68559 -5.5377,5.73597 -0.5585,0.38092 -1.5387,1.09336 -2.1784,1.58323 -1.1131,0.85236 -1.1963,0.86892 -1.9357,0.38445 -1.0832,-0.70974 -1.2712,-1.80801 -0.6062,-3.54111 0.7177,-1.87025 0.6017,-3.38239 -0.4348,-5.66585 -1.44613,-3.18631 -1.87643,-3.29169 -14.65463,-3.58906 -2.307,-0.0537 -5.5925,-0.19207 -7.3013,-0.30753 -5.1704,-0.34931 -9.4395,-0.29319 -15.69,0.20627 -2.136,0.1707 -6.4702,0.37059 -9.63154,0.44423 -6.68315,0.15567 -8.41257,0.2919 -9.20807,0.72544 -0.31825,0.17346 -1.377,0.68747 -2.35259,1.14223 -2.83505,1.32144 -4.93271,4.5353 -4.36857,6.69288 0.0905,0.34573 -0.0576,1.14602 -0.32721,1.77837 -0.30683,0.71788 -0.55226,2.49169 -0.65314,4.72268 -0.36732,8.12159 -0.48976,13.20194 -0.4491,18.64155 0.0238,3.16128 0.0338,6.02743 0.021,6.36919 -0.26233,7.43189 -0.30336,10.59355 -0.15808,12.15998 l 0.1769,1.90709 1.59127,0.21696 c 0.87508,0.1193 2.98919,0.27023 4.69806,0.33539 1.70878,0.0651 4.50499,0.21331 6.21385,0.32924 5.6234,0.38149 17.6183,-0.13422 19.8229,-0.8523 1.7833,-0.58084 2.5863,-1.50508 3.0298,-3.4869 0.4626,-2.06657 0.1931,-2.5383 -2.0528,-3.59399 -1.6064,-0.7551 -2.178,-1.60297 -1.6924,-2.51043 0.4134,-0.77228 1.0099,-0.7772 3.6546,-0.0302 2.9251,0.82639 3.6719,1.19844 6.21,3.09382 1.5537,1.16025 2.4282,2.07419 2.8822,3.01191 0.3584,0.74044 0.9297,1.69977 1.2696,2.13185 0.7436,0.94531 1.3228,4.153 1.0987,6.08429 -0.2145,1.85049 -0.8904,3.12508 -2.5218,4.75645 l -1.3459,1.34593 1.5111,1.68686 c 0.831,0.92779 1.6909,2.0364 1.9106,2.46362 0.2197,0.4272 0.6443,1.04777 0.9433,1.37903 0.299,0.33127 0.5436,0.92546 0.5436,1.32044 0,0.39498 0.1218,0.71814 0.2707,0.71814 0.1486,0 0.363,0.94374 0.4758,2.09718 0.2403,2.45173 -0.5118,5.23243 -2.021,7.47218 -0.4952,0.73481 -0.9003,1.46882 -0.9003,1.63113 0,0.16234 -0.1057,0.29513 -0.2349,0.29513 -0.1291,0 -0.4111,0.38449 -0.6266,0.8544 -0.8211,1.79049 -1.5987,2.04125 -6.6221,2.13546 -5.0336,0.0944 -5.3584,-0.0106 -5.3584,-1.73404 0,-0.925 0.3475,-1.38947 1.6724,-2.23588 1.0619,-0.67838 2.0823,-2.93019 1.6431,-3.62633 -0.501,-0.79413 -3.6663,-1.60998 -7.0956,-1.8288 -4.2933,-0.27396 -26.84315,-0.27894 -27.85036,-0.005 -0.8591,0.23267 -1.34438,0.98417 -0.9978,1.54501 0.33561,0.54308 0.18174,5.522 -0.18439,5.96308 -0.18668,0.22492 -0.32063,1.02063 -0.29779,1.76829 0.0228,0.74762 -0.0649,3.87591 -0.19389,6.95178 -0.12957,3.07585 -0.25064,11.2803 -0.26891,18.23208 l -0.0338,12.63963 0.86951,0.90817 c 1.58661,1.65742 7.10045,4.1639 9.69408,4.40674 0.34174,0.032 6.91286,0.0316 14.60246,0 7.6898,-0.0323 14.2609,-0.0494 14.6026,-0.0377 6.2484,0.2137 15.8057,0.40217 21.4378,0.42277 8.20384,0.0298 8.82754,-0.10663 10.40004,-2.27735 0.6796,-0.93819 0.9171,-1.56144 0.8082,-2.1211 -0.4189,-2.15512 -0.3447,-2.89192 0.3165,-3.13663 0.7139,-0.26423 3.3908,0.75051 3.1229,1.1839 -0.2395,0.38737 0.4033,3.19236 1.0659,4.65215 0.3288,0.72438 0.6026,1.42345 0.6084,1.55347 0.01,0.13002 0.2807,0.79564 0.6108,1.47916 0.8818,1.82561 0.7982,2.80239 -0.3107,3.62212 -0.5126,0.37902 -0.9351,0.90748 -0.9388,1.17439 -0.043,3.04989 -8.1665,11.55708 -11.1782,11.70586 -0.4272,0.0211 -2.73404,0.13351 -5.12634,0.24974 -6.2888,0.3056 -40.61685,0.43261 -43.18627,0.15979 -1.19626,-0.127 -4.27208,-0.40371 -6.83529,-0.61485 -4.26028,-0.35099 -6.88161,-0.72734 -10.25292,-1.472 -1.538,-0.33975 -4.39863,-2.16894 -5.43709,-3.47671 -0.42717,-0.538 -1.12627,-1.41975 -1.55344,-1.95948 -1.24515,-1.57307 -2.16254,-2.44285 -2.41052,-2.28536 -0.26444,0.168 -1.0868,1.78256 -1.60407,3.14936 -0.19398,0.51265 -0.75958,1.39553 -1.25684,1.96196 -0.49716,0.56646 -0.94763,1.1281 -1.001,1.24812 -0.18503,0.41695 -3.2083,2.46046 -3.9805,2.69052 -0.42717,0.12727 -0.98637,0.41178 -1.24277,0.63221 -0.25639,0.22041 -1.3049,0.49496 -2.33011,0.61007 -1.0254,0.11511 -2.07391,0.24834 -2.3303,0.29603 -0.2563,0.0477 -1.20723,-0.10996 -2.1131,-0.35034 z m -141.58763,-0.55266 c -0.50964,-0.22982 -1.61075,-0.57807 -2.44686,-0.77396 -1.69248,-0.39649 -3.5914,-1.59737 -5.01119,-3.16904 -1.17727,-1.30326 -2.3233,-2.94281 -2.3233,-3.32379 0,-0.27986 -0.71669,-0.66721 -1.23447,-0.66721 -0.13844,0 -0.33178,0.31459 -0.4298,0.69906 -0.2909,1.14176 -3.89533,4.25493 -5.48163,4.73461 -0.42722,0.12915 -0.91655,0.3399 -1.08746,0.46827 -0.45114,0.33891 -3.78555,1.43941 -5.59241,1.84573 -2.77934,0.625 -7.14374,-0.70673 -9.02133,-2.7527 -0.5065,-0.55191 -1.26884,-1.37723 -1.69423,-1.83411 -1.73752,-1.86632 -4.28519,-6.40266 -5.25514,-9.35731 -0.58218,-1.7734 -0.60215,-2.04236 -0.18579,-2.50245 0.25658,-0.2835 0.46649,-0.65773 0.46649,-0.83162 0,-0.51218 0.90602,-2.17808 1.41375,-2.59947 0.6855,-0.56894 1.87283,0.0696 2.14429,1.15323 0.52172,2.08294 3.98343,3.84951 6.62553,3.38107 2.11659,-0.37524 4.21143,-1.6535 5.28279,-3.22356 0.55019,-0.80624 1.0003,-1.74398 1.0003,-2.08384 0,-0.33984 0.27526,-0.78978 0.6116,-0.99986 0.85365,-0.5331 1.59465,-2.05993 2.14899,-4.4279 0.5311,-2.26862 0.6281,-14.54138 0.26636,-33.71013 -0.29715,-15.74686 -0.27296,-21.43779 0.0912,-21.43779 0.48125,0 0.51337,-41.70481 0.036,-46.75921 -0.20176,-2.13601 -0.43824,-5.20264 -0.5256,-6.81473 -0.15217,-2.80757 -0.88427,-6.23435 -1.33188,-6.23435 -0.11712,0 -0.38464,-0.38449 -0.59469,-0.8544 -1.35953,-3.04247 -5.91218,-5.96201 -9.31566,-5.974 -1.83602,-0.006 -1.98527,0.0505 -2.95154,1.12768 -3.08611,3.44014 -3.50954,3.69175 -4.72159,2.80547 -0.53401,-0.39047 -0.5222,-0.49289 0.25135,-2.18405 0.44639,-0.97588 0.81159,-1.85756 0.81159,-1.95932 0,-0.70257 1.87284,-4.207 2.77974,-5.20139 3.72827,-4.08796 5.53507,-5.44228 8.81501,-6.60722 6.59421,-2.34209 5.52665,-2.24891 11.39651,-0.99487 1.66353,0.3554 4.039,1.83327 4.039,2.51285 0,0.18042 0.24115,0.50438 0.53599,0.71994 0.45758,0.33462 0.68068,0.24877 1.52603,-0.58715 1.17021,-1.15714 2.40033,-2.08139 3.68576,-2.76932 4.54516,-2.43242 6.63158,-3.02547 10.64409,-3.02547 2.11318,0 2.46459,0.0981 4.40047,1.22873 1.55532,0.90837 2.41582,1.68172 3.30037,2.96599 0.65806,0.95551 1.22937,1.96147 1.26966,2.23547 0.0401,0.27399 0.25712,0.61492 0.48211,0.75756 0.225,0.14264 0.28702,0.26151 0.13798,0.26413 -0.14911,0.004 -0.13247,0.17951 0.0367,0.3931 0.16943,0.21361 0.48449,1.15734 0.70011,2.09718 0.21569,0.93985 0.51338,1.86273 0.66167,2.05085 0.1483,0.18812 0.3523,1.027 0.45332,1.86416 0.10108,0.83716 0.38619,2.16835 0.6336,2.95819 0.24741,0.78987 0.4991,2.32781 0.55929,3.41762 0.0605,1.08985 0.21467,3.2609 0.34326,4.82456 l 0.23375,2.84299 -0.96096,0.49694 c -0.52852,0.27333 -1.09182,0.49694 -1.25166,0.49694 -0.44829,0 -2.51453,-2.21854 -3.03829,-3.26228 -0.57831,-1.15232 -1.99287,-2.29977 -3.45471,-2.80232 -0.94494,-0.32486 -1.36117,-0.29311 -2.84713,0.21714 -1.89375,0.65029 -2.82776,1.49503 -2.82776,2.55746 0,0.37411 -0.16909,0.84926 -0.37566,1.05586 -0.39633,0.39633 -1.42483,4.63336 -1.63589,6.73918 -0.0685,0.68351 -0.23138,6.83523 -0.36195,13.67047 -0.23151,12.11778 -0.2455,17.6751 -0.10258,40.70071 0.038,6.15171 -0.008,13.42191 -0.10257,16.156 -0.0946,2.73409 -0.0605,5.56829 0.0754,6.29824 0.13607,0.72991 0.15455,1.38453 0.0408,1.45473 -0.11357,0.0702 -0.0992,1.1507 0.032,2.40118 0.13112,1.25045 0.31073,3.74157 0.39904,5.53583 0.0884,1.79424 0.23933,4.86227 0.33552,6.8178 0.27717,5.63406 0.68367,8.42488 1.63202,11.20235 0.19279,0.56481 0.26507,0.9217 0.32716,1.61681 0.0711,0.79507 3.17184,3.8566 4.27011,4.21601 1.7085,0.55919 4.19233,-0.17682 5.84906,-1.73324 0.78307,-0.73564 1.4238,-1.45269 1.4238,-1.59344 0,-0.5123 1.77889,-1.02016 2.40305,-0.6861 0.53219,0.28482 0.60094,0.72313 0.64829,4.13224 0.0516,3.74441 -0.37234,6.832 -1.27429,9.27165 -0.54102,1.46355 -2.45114,4.34243 -3.45145,5.20205 -0.44618,0.38337 -0.81118,0.8249 -0.81118,0.98124 0,0.1563 -0.62885,0.68153 -1.39751,1.16714 -0.76867,0.48561 -1.39785,0.99732 -1.39812,1.13716 0,0.13981 -1.29385,0.85406 -2.87451,1.58721 -3.28549,1.52392 -6.23756,2.00406 -7.85042,1.27682 z"
       id="path3069"
       inkscape:connector-curvature="0" />
  </g>
</svg>
