<?xml version="1.0" encoding="UTF-8" standalone="no"?>
<!-- Created with Inkscape (http://www.inkscape.org/) -->

<svg
   xmlns:dc="http://purl.org/dc/elements/1.1/"
   xmlns:cc="http://creativecommons.org/ns#"
   xmlns:rdf="http://www.w3.org/1999/02/22-rdf-syntax-ns#"
   xmlns:svg="http://www.w3.org/2000/svg"
   xmlns="http://www.w3.org/2000/svg"
   xmlns:xlink="http://www.w3.org/1999/xlink"
   xmlns:sodipodi="http://sodipodi.sourceforge.net/DTD/sodipodi-0.dtd"
   xmlns:inkscape="http://www.inkscape.org/namespaces/inkscape"
   width="300"
   height="300"
   id="svg3303"
   version="1.1"
   inkscape:version="0.48.3.1 r9886"
   sodipodi:docname="Nuovo documento 5">
  <defs
     id="defs3305">
    <linearGradient
       inkscape:collect="always"
       xlink:href="#linearGradient3628"
       id="linearGradient4964"
       gradientUnits="userSpaceOnUse"
       gradientTransform="translate(-368.07603,0)"
       x1="737.08258"
       y1="802.53125"
       x2="737.08258"
       y2="592.37677" />
    <linearGradient
       id="linearGradient3628">
      <stop
         style="stop-color:#79d2e1;stop-opacity:1;"
         offset="0"
         id="stop3630" />
      <stop
         style="stop-color:#23aec3;stop-opacity:1;"
         offset="1"
         id="stop3632" />
    </linearGradient>
    <linearGradient
       inkscape:collect="always"
       xlink:href="#linearGradient3730"
       id="linearGradient4966"
       gradientUnits="userSpaceOnUse"
       gradientTransform="translate(439.36731,0)"
       x1="-111.81263"
       y1="741.40619"
       x2="-113.53709"
       y2="538.18744" />
    <linearGradient
       id="linearGradient3730">
      <stop
         style="stop-color:#60d7f2;stop-opacity:1;"
         offset="0"
         id="stop3732" />
      <stop
         style="stop-color:#c8f6fc;stop-opacity:1;"
         offset="1"
         id="stop3734" />
    </linearGradient>
    <linearGradient
       inkscape:collect="always"
       xlink:href="#linearGradient3648"
       id="linearGradient4968"
       gradientUnits="userSpaceOnUse"
       x1="824.69788"
       y1="413.20364"
       x2="768.01453"
       y2="575.01593" />
    <linearGradient
       id="linearGradient3648">
      <stop
         style="stop-color:#ffffff;stop-opacity:1;"
         offset="0"
         id="stop3650" />
      <stop
         style="stop-color:#ffffff;stop-opacity:0.64705884;"
         offset="1"
         id="stop3652" />
    </linearGradient>
    <clipPath
       clipPathUnits="userSpaceOnUse"
       id="clipPath3664">
      <path
         inkscape:connector-curvature="0"
         sodipodi:nodetypes="csccsccsccscc"
         id="path3666"
         d="m 704.55558,439.10629 c -15.90627,-0.002 -31.71526,6.72675 -42.96269,18.28553 -11.24743,11.55878 -17.79472,27.80538 -17.79299,44.15197 l 0,206.1875 c -0.002,16.34659 6.54556,32.59319 17.79299,44.15197 11.24743,11.55878 27.05642,18.28731 42.96269,18.28553 l 202.54939,0 c 15.90629,0.002 31.71517,-6.72678 42.96262,-18.28556 11.24745,-11.55878 17.79472,-27.80537 17.79296,-44.15194 l 0,-206.1875 c 0,-16.34657 -6.54551,-32.59316 -17.79296,-44.15194 -11.24745,-11.55878 -27.05633,-18.28731 -42.96262,-18.28556 l -202.54939,0 z"
         style="font-size:medium;font-style:normal;font-variant:normal;font-weight:normal;font-stretch:normal;text-indent:0;text-align:start;text-decoration:none;line-height:normal;letter-spacing:normal;word-spacing:normal;text-transform:none;direction:ltr;block-progression:tb;writing-mode:lr-tb;text-anchor:start;color:#000000;fill:url(#linearGradient3668);fill-opacity:1;fill-rule:nonzero;stroke:none;stroke-width:124.8489151;marker:none;visibility:visible;display:inline;overflow:visible;enable-background:accumulate;font-family:Bitstream Vera Sans;-inkscape-font-specification:Bitstream Vera Sans" />
    </clipPath>
    <linearGradient
       inkscape:collect="always"
       xlink:href="#linearGradient3757"
       id="linearGradient4970"
       gradientUnits="userSpaceOnUse"
       gradientTransform="translate(427.6394,-10.011625)"
       x1="-108.12555"
       y1="557.07281"
       x2="-108.12555"
       y2="598.97864" />
    <linearGradient
       inkscape:collect="always"
       id="linearGradient3757">
      <stop
         style="stop-color:#ffffff;stop-opacity:1;"
         offset="0"
         id="stop3759" />
      <stop
         style="stop-color:#ffffff;stop-opacity:0;"
         offset="1"
         id="stop3761" />
    </linearGradient>
    <linearGradient
       inkscape:collect="always"
       xlink:href="#linearGradient3765"
       id="linearGradient4972"
       gradientUnits="userSpaceOnUse"
       gradientTransform="translate(439.36731,0)"
       x1="-119.84375"
       y1="543.49207"
       x2="-119.84375"
       y2="561.57507" />
    <linearGradient
       inkscape:collect="always"
       id="linearGradient3765">
      <stop
         style="stop-color:#ffffff;stop-opacity:1;"
         offset="0"
         id="stop3767" />
      <stop
         style="stop-color:#ffffff;stop-opacity:0;"
         offset="1"
         id="stop3769" />
    </linearGradient>
    <radialGradient
       inkscape:collect="always"
       xlink:href="#linearGradient3788"
       id="radialGradient4974"
       gradientUnits="userSpaceOnUse"
       gradientTransform="matrix(1.4680509,0,0,0.55932347,457.63238,277.42492)"
       cx="-34.169579"
       cy="570.80133"
       fx="-34.169579"
       fy="570.80133"
       r="47.058071" />
    <linearGradient
       inkscape:collect="always"
       id="linearGradient3788">
      <stop
         style="stop-color:#ffffff;stop-opacity:1;"
         offset="0"
         id="stop3790" />
      <stop
         style="stop-color:#ffffff;stop-opacity:0;"
         offset="1"
         id="stop3792" />
    </linearGradient>
    <radialGradient
       r="47.058071"
       fy="570.80133"
       fx="-34.169579"
       cy="570.80133"
       cx="-34.169579"
       gradientTransform="matrix(1.4680509,0,0,0.55932347,457.63238,277.42492)"
       gradientUnits="userSpaceOnUse"
       id="radialGradient3301"
       xlink:href="#linearGradient3788"
       inkscape:collect="always" />
  </defs>
  <sodipodi:namedview
     id="base"
     pagecolor="#ffffff"
     bordercolor="#666666"
     borderopacity="1.0"
     inkscape:pageopacity="0.0"
     inkscape:pageshadow="2"
     inkscape:zoom="0.35"
     inkscape:cx="375"
     inkscape:cy="520"
     inkscape:document-units="px"
     inkscape:current-layer="layer1"
     showgrid="false"
     inkscape:window-width="1366"
     inkscape:window-height="744"
     inkscape:window-x="0"
     inkscape:window-y="24"
     inkscape:window-maximized="1" />
  <metadata
     id="metadata3308">
    <rdf:RDF>
      <cc:Work
         rdf:about="">
        <dc:format>image/svg+xml</dc:format>
        <dc:type
           rdf:resource="http://purl.org/dc/dcmitype/StillImage" />
        <dc:title></dc:title>
      </cc:Work>
    </rdf:RDF>
  </metadata>
  <g
     inkscape:label="Livello 1"
     inkscape:groupmode="layer"
     id="layer1"
     transform="translate(0,-752.36218)">
    <g
       id="g3798"
       transform="matrix(0.8698961,0,0,0.8698961,-168.71164,350.52408)"
       inkscape:export-filename="/home/stanley/Pictures/inkscape/twitter_small.png"
       inkscape:export-xdpi="7.7497087"
       inkscape:export-ydpi="7.7497087">
      <path
         inkscape:connector-curvature="0"
         style="font-size:medium;font-style:normal;font-variant:normal;font-weight:normal;font-stretch:normal;text-indent:0;text-align:start;text-decoration:none;line-height:normal;letter-spacing:normal;word-spacing:normal;text-transform:none;direction:ltr;block-progression:tb;writing-mode:lr-tb;text-anchor:start;color:#000000;fill:url(#linearGradient4964);fill-opacity:1;fill-rule:nonzero;stroke:none;stroke-width:124.8489151;marker:none;visibility:visible;display:inline;overflow:visible;enable-background:accumulate;font-family:Bitstream Vera Sans;-inkscape-font-specification:Bitstream Vera Sans"
         d="m 264.92844,471.46875 c -16.34659,-0.002 -32.59319,6.72675 -44.15197,18.28553 -11.55878,11.55878 -18.28731,27.80538 -18.28553,44.15197 l 0,206.1875 c -0.002,16.34659 6.72675,32.59319 18.28553,44.15197 11.55878,11.55878 27.80538,18.28731 44.15197,18.28553 l 208.1563,0 c 16.3466,0.002 32.5931,-6.72678 44.1519,-18.28556 11.5588,-11.55878 18.2873,-27.80537 18.2855,-44.15194 l 0,-206.1875 c 0,-16.34657 -6.7267,-32.59316 -18.2855,-44.15194 -11.5588,-11.55878 -27.8053,-18.28731 -44.1519,-18.28556 l -208.1563,0 z"
         id="path3691"
         sodipodi:nodetypes="csccsccsccscc" />
      <path
         inkscape:connector-curvature="0"
         sodipodi:nodetypes="csccsccsccscc"
         id="path3693"
         d="m 273.72886,485.46547 c -14.96433,-0.002 -29.83719,6.15796 -40.41859,16.73937 -10.58141,10.58142 -16.741,25.45426 -16.73938,40.41865 l 0,188.75302 c -0.002,14.96439 6.15797,29.83723 16.73938,40.41865 10.5814,10.58141 25.45426,16.741 40.41859,16.73937 l 190.55536,0 c 14.96444,0.002 29.83715,-6.15798 40.41864,-16.73939 10.5814,-10.58142 16.74103,-25.45426 16.73936,-40.41863 l 0,-188.75302 c 0,-14.96437 -6.15796,-29.83721 -16.73936,-40.41863 -10.58149,-10.58141 -25.4542,-16.741 -40.41864,-16.73939 l -190.55536,0 z"
         style="font-size:medium;font-style:normal;font-variant:normal;font-weight:normal;font-stretch:normal;text-indent:0;text-align:start;text-decoration:none;line-height:normal;letter-spacing:normal;word-spacing:normal;text-transform:none;direction:ltr;block-progression:tb;writing-mode:lr-tb;text-anchor:start;opacity:0.46341463;color:#000000;fill:none;stroke:#ffffff;stroke-width:12.49501038;stroke-miterlimit:4;stroke-opacity:1;stroke-dasharray:none;marker:none;visibility:visible;display:inline;overflow:visible;enable-background:accumulate;font-family:Bitstream Vera Sans;-inkscape-font-specification:Bitstream Vera Sans" />
      <path
         inkscape:connector-curvature="0"
         style="fill:#ffffff;fill-opacity:1"
         d="m 340.926,762.39804 c -6.90987,-0.75805 -15.01935,-2.74126 -21.97912,-5.37512 -3.38478,-1.28093 -6.28602,-2.48656 -6.4472,-2.67916 -0.16118,-0.1926 -1.74368,-1.12232 -3.51666,-2.06602 -15.52205,-8.26194 -28.20587,-24.29337 -33.93764,-42.89475 -3.67336,-11.92121 -3.57339,-9.56042 -3.57339,-84.38176 0,-72.02156 -0.10667,-68.80481 2.5542,-77.02526 2.48336,-7.67203 7.89019,-15.51622 14.55094,-21.11039 4.36832,-3.66882 12.85872,-8.09729 18.64756,-9.72629 5.69229,-1.60184 18.62096,-1.49132 24.75796,0.21163 4.89795,1.35914 13.72072,5.65763 16.56277,8.06946 12.43563,10.55316 18.04162,21.35113 18.86102,36.32917 0.20139,3.6813 0.63159,6.63195 1.00277,6.87782 0.35753,0.23684 12.51878,0.43501 27.025,0.44038 32.53592,0.0121 35.03524,0.32743 45.71656,5.76858 4.04468,2.06038 7.02692,4.26753 11.06135,8.18645 20.19279,19.61471 18.76468,53.39158 -3.01708,71.35819 -6.64859,5.48407 -13.43129,8.46843 -24.08155,10.59577 -3.27064,1.22935 2.00956,2.43306 3.28906,2.69731 5.59701,1.12589 17.37748,6.2757 24.8476,13.95375 4.24793,4.36618 5.54228,6.18122 8.01497,11.23926 4.10025,8.38731 5.0588,12.52883 5.0588,21.85715 0,8.63929 -0.91673,13.10851 -4.12849,20.12718 -6.80198,14.86436 -20.63822,25.19227 -36.98189,27.60471 -5.11582,0.75513 -77.32838,0.70539 -84.28754,-0.0581 l 0,4e-5 z"
         id="path3717"
         sodipodi:nodetypes="cssssssssssssssssccssssscc" />
      <path
         inkscape:connector-curvature="0"
         sodipodi:nodetypes="cccssssccccczccccccczssssssscscc"
         id="path3719"
         d="m 319.99231,538.1875 c -4.20882,-0.0106 -8.47882,1.13762 -12.46875,3.0625 -6.33321,3.14329 -9.8716,8.1598 -12.5625,14.40625 -1.09417,2.92974 -1.22474,4.93204 -1.5,26.59375 -0.96197,75.70542 -1.04061,105.45359 -0.34375,110.40625 3.59386,25.5419 19.84912,42.92824 44.75,47.875 1.33584,0.26537 5.02125,0.4479 12.155,0.57049 7.13375,0.12258 17.71583,0.18521 32.845,0.21076 l 36.17578,0.0819 c 0,0 3.68923,0.14593 5.16797,-0.13132 8.49205,-2.10138 14.50609,-7.84683 18.65625,-15.35683 6.21709,-13.18326 0.61664,-28.53127 -12.84375,-35.21875 0,0 -2.23911,-1.33516 -4.6875,-1.91468 -2.4484,-0.57952 -9.85547,-0.44077 -9.85547,-0.44077 l -9.85547,-0.0117 -19.71094,-0.0234 -39.42187,-0.0469 0.1875,-44.53125 25.21875,-0.0625 39.375,-0.28125 c 6.5749,-0.0127 13.99675,-0.41288 18.22296,-2.32631 4.22622,-1.91343 9.5684,-5.99164 12.21454,-11.20494 4.1575,-8.19092 4.03941,-17.16702 -0.28125,-24.71875 -2.13118,-3.72492 -7.11741,-8.80874 -10.1875,-10.375 -5.89669,-3.00832 -4.44844,-2.91164 -46.21875,-3.0625 -21.51848,-0.0777 -39.23923,-0.27048 -39.375,-0.40625 -0.13577,-0.13577 -0.33669,-7.36114 -0.46875,-16.0625 -0.13206,-8.70135 -0.42604,-16.417 -0.625,-17.15625 -1.23212,-4.57806 -2.72082,-7.54963 -5.09375,-10.15625 -3.45966,-4.75845 -7.85798,-7.34965 -13.78125,-8.96875 -1.85102,-0.50597 -3.7744,-0.74517 -5.6875,-0.75 l 0,-5e-5 z"
         style="font-size:medium;font-style:normal;font-variant:normal;font-weight:normal;font-stretch:normal;text-indent:0;text-align:start;text-decoration:none;line-height:normal;letter-spacing:normal;word-spacing:normal;text-transform:none;direction:ltr;block-progression:tb;writing-mode:lr-tb;text-anchor:start;color:#000000;fill:url(#linearGradient4966);fill-opacity:1;fill-rule:nonzero;stroke:none;stroke-width:124.8489151;marker:none;visibility:visible;display:inline;overflow:visible;enable-background:accumulate;font-family:Bitstream Vera Sans;-inkscape-font-specification:Bitstream Vera Sans" />
      <path
         sodipodi:type="arc"
         style="opacity:0.38500001;fill:url(#linearGradient4968);fill-opacity:1;stroke:none"
         id="path3695"
         sodipodi:cx="805.01617"
         sodipodi:cy="470.24246"
         sodipodi:rx="233.81876"
         sodipodi:ry="104.77346"
         d="m 1038.8349,470.24246 c 0,57.86479 -104.68419,104.77346 -233.81873,104.77346 -129.13453,0 -233.81875,-46.90867 -233.81875,-104.77346 0,-57.86478 104.68422,-104.77346 233.81875,-104.77346 129.13454,0 233.81873,46.90868 233.81873,104.77346 z"
         transform="matrix(1.0276817,0,0,1,-459.13044,32.362459)"
         clip-path="url(#clipPath3664)" />
      <path
         inkscape:connector-curvature="0"
         sodipodi:nodetypes="cccsccsc"
         id="path3740"
         d="m 318.46106,543.5 c -10.88196,0.55161 -19.53125,9.57471 -19.53125,20.59375 l 0,22.875 c 0,11.37449 9.21926,20.59375 20.59375,20.59375 11.37449,0 20.59375,-9.21926 20.59375,-20.59375 l 0,-22.875 c 0,-11.37449 -9.21926,-20.59375 -20.59375,-20.59375 -0.35545,0 -0.71147,-0.0178 -1.0625,0 z"
         style="opacity:0.51599995;fill:url(#linearGradient4970);fill-opacity:1;stroke:none" />
      <path
         inkscape:connector-curvature="0"
         id="path3752"
         d="m 318.46106,543.5 c -10.88196,0.55161 -19.53125,9.57471 -19.53125,20.59375 0,0.81835 0.0322,1.61283 0.125,2.40625 1.21126,-10.2197 9.92322,-18.15625 20.46875,-18.15625 10.54553,0 19.22624,7.93655 20.4375,18.15625 0.0928,-0.79342 0.15625,-1.5879 0.15625,-2.40625 0,-11.37449 -9.21926,-20.59375 -20.59375,-20.59375 -0.35545,0 -0.71147,-0.0178 -1.0625,0 z"
         style="opacity:0.62601624;fill:url(#linearGradient4972);fill-opacity:1;stroke:none" />
      <path
         inkscape:connector-curvature="0"
         sodipodi:nodetypes="csccscc"
         id="path3780"
         d="m 349.56193,596.6875 c -11.69045,0 -21.1875,9.4658 -21.1875,21.15625 0,11.69045 9.49705,21.1875 21.1875,21.1875 l 68.64913,0 c 11.69045,0 21.15625,-9.49705 21.15625,-21.1875 0,-11.69045 -9.4658,-21.15625 -21.15625,-21.15625 l -68.64913,0 z"
         style="opacity:0.62601624;fill:url(#radialGradient3301);fill-opacity:1;stroke:none" />
    </g>
  </g>
</svg>
